G04 #@! TF.GenerationSoftware,KiCad,Pcbnew,(5.1.5)-3*
G04 #@! TF.CreationDate,2020-06-09T21:02:58-05:00*
G04 #@! TF.ProjectId,pcb,7063622e-6b69-4636-9164-5f7063625858,rev?*
G04 #@! TF.SameCoordinates,Original*
G04 #@! TF.FileFunction,Legend,Top*
G04 #@! TF.FilePolarity,Positive*
%FSLAX46Y46*%
G04 Gerber Fmt 4.6, Leading zero omitted, Abs format (unit mm)*
G04 Created by KiCad (PCBNEW (5.1.5)-3) date 2020-06-09 21:02:58*
%MOMM*%
%LPD*%
G04 APERTURE LIST*
%ADD10C,0.080000*%
%ADD11C,0.100000*%
%ADD12C,0.150000*%
%ADD13C,0.120000*%
G04 APERTURE END LIST*
D10*
X129176571Y-104157428D02*
X128976571Y-103871714D01*
X128833714Y-104157428D02*
X128833714Y-103557428D01*
X129062285Y-103557428D01*
X129119428Y-103586000D01*
X129148000Y-103614571D01*
X129176571Y-103671714D01*
X129176571Y-103757428D01*
X129148000Y-103814571D01*
X129119428Y-103843142D01*
X129062285Y-103871714D01*
X128833714Y-103871714D01*
X129433714Y-103843142D02*
X129633714Y-103843142D01*
X129719428Y-104157428D02*
X129433714Y-104157428D01*
X129433714Y-103557428D01*
X129719428Y-103557428D01*
X129948000Y-104128857D02*
X130033714Y-104157428D01*
X130176571Y-104157428D01*
X130233714Y-104128857D01*
X130262285Y-104100285D01*
X130290857Y-104043142D01*
X130290857Y-103986000D01*
X130262285Y-103928857D01*
X130233714Y-103900285D01*
X130176571Y-103871714D01*
X130062285Y-103843142D01*
X130005142Y-103814571D01*
X129976571Y-103786000D01*
X129948000Y-103728857D01*
X129948000Y-103671714D01*
X129976571Y-103614571D01*
X130005142Y-103586000D01*
X130062285Y-103557428D01*
X130205142Y-103557428D01*
X130290857Y-103586000D01*
X130548000Y-103843142D02*
X130748000Y-103843142D01*
X130833714Y-104157428D02*
X130548000Y-104157428D01*
X130548000Y-103557428D01*
X130833714Y-103557428D01*
X131005142Y-103557428D02*
X131348000Y-103557428D01*
X131176571Y-104157428D02*
X131176571Y-103557428D01*
X129176571Y-114323857D02*
X128662285Y-115095285D01*
X129376571Y-114952428D02*
X129376571Y-114352428D01*
X129605142Y-114352428D01*
X129662285Y-114381000D01*
X129690857Y-114409571D01*
X129719428Y-114466714D01*
X129719428Y-114552428D01*
X129690857Y-114609571D01*
X129662285Y-114638142D01*
X129605142Y-114666714D01*
X129376571Y-114666714D01*
X129948000Y-114781000D02*
X130233714Y-114781000D01*
X129890857Y-114952428D02*
X130090857Y-114352428D01*
X130290857Y-114952428D01*
X130805142Y-114952428D02*
X130462285Y-114952428D01*
X130633714Y-114952428D02*
X130633714Y-114352428D01*
X130576571Y-114438142D01*
X130519428Y-114495285D01*
X130462285Y-114523857D01*
X131348000Y-114352428D02*
X131062285Y-114352428D01*
X131033714Y-114638142D01*
X131062285Y-114609571D01*
X131119428Y-114581000D01*
X131262285Y-114581000D01*
X131319428Y-114609571D01*
X131348000Y-114638142D01*
X131376571Y-114695285D01*
X131376571Y-114838142D01*
X131348000Y-114895285D01*
X131319428Y-114923857D01*
X131262285Y-114952428D01*
X131119428Y-114952428D01*
X131062285Y-114923857D01*
X131033714Y-114895285D01*
X127424000Y-113876142D02*
X127509714Y-113904714D01*
X127538285Y-113933285D01*
X127566857Y-113990428D01*
X127566857Y-114076142D01*
X127538285Y-114133285D01*
X127509714Y-114161857D01*
X127452571Y-114190428D01*
X127224000Y-114190428D01*
X127224000Y-113590428D01*
X127424000Y-113590428D01*
X127481142Y-113619000D01*
X127509714Y-113647571D01*
X127538285Y-113704714D01*
X127538285Y-113761857D01*
X127509714Y-113819000D01*
X127481142Y-113847571D01*
X127424000Y-113876142D01*
X127224000Y-113876142D01*
X127938285Y-113590428D02*
X128052571Y-113590428D01*
X128109714Y-113619000D01*
X128166857Y-113676142D01*
X128195428Y-113790428D01*
X128195428Y-113990428D01*
X128166857Y-114104714D01*
X128109714Y-114161857D01*
X128052571Y-114190428D01*
X127938285Y-114190428D01*
X127881142Y-114161857D01*
X127824000Y-114104714D01*
X127795428Y-113990428D01*
X127795428Y-113790428D01*
X127824000Y-113676142D01*
X127881142Y-113619000D01*
X127938285Y-113590428D01*
X128566857Y-113590428D02*
X128681142Y-113590428D01*
X128738285Y-113619000D01*
X128795428Y-113676142D01*
X128824000Y-113790428D01*
X128824000Y-113990428D01*
X128795428Y-114104714D01*
X128738285Y-114161857D01*
X128681142Y-114190428D01*
X128566857Y-114190428D01*
X128509714Y-114161857D01*
X128452571Y-114104714D01*
X128424000Y-113990428D01*
X128424000Y-113790428D01*
X128452571Y-113676142D01*
X128509714Y-113619000D01*
X128566857Y-113590428D01*
X128995428Y-113590428D02*
X129338285Y-113590428D01*
X129166857Y-114190428D02*
X129166857Y-113590428D01*
X129652571Y-113590428D02*
X129709714Y-113590428D01*
X129766857Y-113619000D01*
X129795428Y-113647571D01*
X129824000Y-113704714D01*
X129852571Y-113819000D01*
X129852571Y-113961857D01*
X129824000Y-114076142D01*
X129795428Y-114133285D01*
X129766857Y-114161857D01*
X129709714Y-114190428D01*
X129652571Y-114190428D01*
X129595428Y-114161857D01*
X129566857Y-114133285D01*
X129538285Y-114076142D01*
X129509714Y-113961857D01*
X129509714Y-113819000D01*
X129538285Y-113704714D01*
X129566857Y-113647571D01*
X129595428Y-113619000D01*
X129652571Y-113590428D01*
X141052714Y-107938857D02*
X141138428Y-107967428D01*
X141281285Y-107967428D01*
X141338428Y-107938857D01*
X141367000Y-107910285D01*
X141395571Y-107853142D01*
X141395571Y-107796000D01*
X141367000Y-107738857D01*
X141338428Y-107710285D01*
X141281285Y-107681714D01*
X141167000Y-107653142D01*
X141109857Y-107624571D01*
X141081285Y-107596000D01*
X141052714Y-107538857D01*
X141052714Y-107481714D01*
X141081285Y-107424571D01*
X141109857Y-107396000D01*
X141167000Y-107367428D01*
X141309857Y-107367428D01*
X141395571Y-107396000D01*
X141567000Y-107367428D02*
X141909857Y-107367428D01*
X141738428Y-107967428D02*
X141738428Y-107367428D01*
X142109857Y-107967428D02*
X142109857Y-107367428D01*
X142309857Y-107796000D01*
X142509857Y-107367428D01*
X142509857Y-107967428D01*
X142738428Y-107367428D02*
X143109857Y-107367428D01*
X142909857Y-107596000D01*
X142995571Y-107596000D01*
X143052714Y-107624571D01*
X143081285Y-107653142D01*
X143109857Y-107710285D01*
X143109857Y-107853142D01*
X143081285Y-107910285D01*
X143052714Y-107938857D01*
X142995571Y-107967428D01*
X142824142Y-107967428D01*
X142767000Y-107938857D01*
X142738428Y-107910285D01*
X143338428Y-107424571D02*
X143367000Y-107396000D01*
X143424142Y-107367428D01*
X143567000Y-107367428D01*
X143624142Y-107396000D01*
X143652714Y-107424571D01*
X143681285Y-107481714D01*
X143681285Y-107538857D01*
X143652714Y-107624571D01*
X143309857Y-107967428D01*
X143681285Y-107967428D01*
X133877142Y-115396928D02*
X133877142Y-114796928D01*
X134105714Y-114796928D01*
X134162857Y-114825500D01*
X134191428Y-114854071D01*
X134220000Y-114911214D01*
X134220000Y-114996928D01*
X134191428Y-115054071D01*
X134162857Y-115082642D01*
X134105714Y-115111214D01*
X133877142Y-115111214D01*
X134677142Y-115082642D02*
X134762857Y-115111214D01*
X134791428Y-115139785D01*
X134820000Y-115196928D01*
X134820000Y-115282642D01*
X134791428Y-115339785D01*
X134762857Y-115368357D01*
X134705714Y-115396928D01*
X134477142Y-115396928D01*
X134477142Y-114796928D01*
X134677142Y-114796928D01*
X134734285Y-114825500D01*
X134762857Y-114854071D01*
X134791428Y-114911214D01*
X134791428Y-114968357D01*
X134762857Y-115025500D01*
X134734285Y-115054071D01*
X134677142Y-115082642D01*
X134477142Y-115082642D01*
X135020000Y-114796928D02*
X135391428Y-114796928D01*
X135191428Y-115025500D01*
X135277142Y-115025500D01*
X135334285Y-115054071D01*
X135362857Y-115082642D01*
X135391428Y-115139785D01*
X135391428Y-115282642D01*
X135362857Y-115339785D01*
X135334285Y-115368357D01*
X135277142Y-115396928D01*
X135105714Y-115396928D01*
X135048571Y-115368357D01*
X135020000Y-115339785D01*
X136417142Y-115396928D02*
X136417142Y-114796928D01*
X136645714Y-114796928D01*
X136702857Y-114825500D01*
X136731428Y-114854071D01*
X136760000Y-114911214D01*
X136760000Y-114996928D01*
X136731428Y-115054071D01*
X136702857Y-115082642D01*
X136645714Y-115111214D01*
X136417142Y-115111214D01*
X137217142Y-115082642D02*
X137302857Y-115111214D01*
X137331428Y-115139785D01*
X137360000Y-115196928D01*
X137360000Y-115282642D01*
X137331428Y-115339785D01*
X137302857Y-115368357D01*
X137245714Y-115396928D01*
X137017142Y-115396928D01*
X137017142Y-114796928D01*
X137217142Y-114796928D01*
X137274285Y-114825500D01*
X137302857Y-114854071D01*
X137331428Y-114911214D01*
X137331428Y-114968357D01*
X137302857Y-115025500D01*
X137274285Y-115054071D01*
X137217142Y-115082642D01*
X137017142Y-115082642D01*
X137874285Y-114996928D02*
X137874285Y-115396928D01*
X137731428Y-114768357D02*
X137588571Y-115196928D01*
X137960000Y-115196928D01*
X138957142Y-115396928D02*
X138957142Y-114796928D01*
X139185714Y-114796928D01*
X139242857Y-114825500D01*
X139271428Y-114854071D01*
X139300000Y-114911214D01*
X139300000Y-114996928D01*
X139271428Y-115054071D01*
X139242857Y-115082642D01*
X139185714Y-115111214D01*
X138957142Y-115111214D01*
X139757142Y-115082642D02*
X139842857Y-115111214D01*
X139871428Y-115139785D01*
X139900000Y-115196928D01*
X139900000Y-115282642D01*
X139871428Y-115339785D01*
X139842857Y-115368357D01*
X139785714Y-115396928D01*
X139557142Y-115396928D01*
X139557142Y-114796928D01*
X139757142Y-114796928D01*
X139814285Y-114825500D01*
X139842857Y-114854071D01*
X139871428Y-114911214D01*
X139871428Y-114968357D01*
X139842857Y-115025500D01*
X139814285Y-115054071D01*
X139757142Y-115082642D01*
X139557142Y-115082642D01*
X140442857Y-114796928D02*
X140157142Y-114796928D01*
X140128571Y-115082642D01*
X140157142Y-115054071D01*
X140214285Y-115025500D01*
X140357142Y-115025500D01*
X140414285Y-115054071D01*
X140442857Y-115082642D01*
X140471428Y-115139785D01*
X140471428Y-115282642D01*
X140442857Y-115339785D01*
X140414285Y-115368357D01*
X140357142Y-115396928D01*
X140214285Y-115396928D01*
X140157142Y-115368357D01*
X140128571Y-115339785D01*
X141497142Y-115396928D02*
X141497142Y-114796928D01*
X141725714Y-114796928D01*
X141782857Y-114825500D01*
X141811428Y-114854071D01*
X141840000Y-114911214D01*
X141840000Y-114996928D01*
X141811428Y-115054071D01*
X141782857Y-115082642D01*
X141725714Y-115111214D01*
X141497142Y-115111214D01*
X142297142Y-115082642D02*
X142382857Y-115111214D01*
X142411428Y-115139785D01*
X142440000Y-115196928D01*
X142440000Y-115282642D01*
X142411428Y-115339785D01*
X142382857Y-115368357D01*
X142325714Y-115396928D01*
X142097142Y-115396928D01*
X142097142Y-114796928D01*
X142297142Y-114796928D01*
X142354285Y-114825500D01*
X142382857Y-114854071D01*
X142411428Y-114911214D01*
X142411428Y-114968357D01*
X142382857Y-115025500D01*
X142354285Y-115054071D01*
X142297142Y-115082642D01*
X142097142Y-115082642D01*
X142954285Y-114796928D02*
X142840000Y-114796928D01*
X142782857Y-114825500D01*
X142754285Y-114854071D01*
X142697142Y-114939785D01*
X142668571Y-115054071D01*
X142668571Y-115282642D01*
X142697142Y-115339785D01*
X142725714Y-115368357D01*
X142782857Y-115396928D01*
X142897142Y-115396928D01*
X142954285Y-115368357D01*
X142982857Y-115339785D01*
X143011428Y-115282642D01*
X143011428Y-115139785D01*
X142982857Y-115082642D01*
X142954285Y-115054071D01*
X142897142Y-115025500D01*
X142782857Y-115025500D01*
X142725714Y-115054071D01*
X142697142Y-115082642D01*
X142668571Y-115139785D01*
X144037142Y-115396928D02*
X144037142Y-114796928D01*
X144265714Y-114796928D01*
X144322857Y-114825500D01*
X144351428Y-114854071D01*
X144380000Y-114911214D01*
X144380000Y-114996928D01*
X144351428Y-115054071D01*
X144322857Y-115082642D01*
X144265714Y-115111214D01*
X144037142Y-115111214D01*
X144837142Y-115082642D02*
X144922857Y-115111214D01*
X144951428Y-115139785D01*
X144980000Y-115196928D01*
X144980000Y-115282642D01*
X144951428Y-115339785D01*
X144922857Y-115368357D01*
X144865714Y-115396928D01*
X144637142Y-115396928D01*
X144637142Y-114796928D01*
X144837142Y-114796928D01*
X144894285Y-114825500D01*
X144922857Y-114854071D01*
X144951428Y-114911214D01*
X144951428Y-114968357D01*
X144922857Y-115025500D01*
X144894285Y-115054071D01*
X144837142Y-115082642D01*
X144637142Y-115082642D01*
X145180000Y-114796928D02*
X145580000Y-114796928D01*
X145322857Y-115396928D01*
X146577142Y-115396928D02*
X146577142Y-114796928D01*
X146805714Y-114796928D01*
X146862857Y-114825500D01*
X146891428Y-114854071D01*
X146920000Y-114911214D01*
X146920000Y-114996928D01*
X146891428Y-115054071D01*
X146862857Y-115082642D01*
X146805714Y-115111214D01*
X146577142Y-115111214D01*
X147377142Y-115082642D02*
X147462857Y-115111214D01*
X147491428Y-115139785D01*
X147520000Y-115196928D01*
X147520000Y-115282642D01*
X147491428Y-115339785D01*
X147462857Y-115368357D01*
X147405714Y-115396928D01*
X147177142Y-115396928D01*
X147177142Y-114796928D01*
X147377142Y-114796928D01*
X147434285Y-114825500D01*
X147462857Y-114854071D01*
X147491428Y-114911214D01*
X147491428Y-114968357D01*
X147462857Y-115025500D01*
X147434285Y-115054071D01*
X147377142Y-115082642D01*
X147177142Y-115082642D01*
X147862857Y-115054071D02*
X147805714Y-115025500D01*
X147777142Y-114996928D01*
X147748571Y-114939785D01*
X147748571Y-114911214D01*
X147777142Y-114854071D01*
X147805714Y-114825500D01*
X147862857Y-114796928D01*
X147977142Y-114796928D01*
X148034285Y-114825500D01*
X148062857Y-114854071D01*
X148091428Y-114911214D01*
X148091428Y-114939785D01*
X148062857Y-114996928D01*
X148034285Y-115025500D01*
X147977142Y-115054071D01*
X147862857Y-115054071D01*
X147805714Y-115082642D01*
X147777142Y-115111214D01*
X147748571Y-115168357D01*
X147748571Y-115282642D01*
X147777142Y-115339785D01*
X147805714Y-115368357D01*
X147862857Y-115396928D01*
X147977142Y-115396928D01*
X148034285Y-115368357D01*
X148062857Y-115339785D01*
X148091428Y-115282642D01*
X148091428Y-115168357D01*
X148062857Y-115111214D01*
X148034285Y-115082642D01*
X147977142Y-115054071D01*
X149117142Y-115396928D02*
X149117142Y-114796928D01*
X149345714Y-114796928D01*
X149402857Y-114825500D01*
X149431428Y-114854071D01*
X149460000Y-114911214D01*
X149460000Y-114996928D01*
X149431428Y-115054071D01*
X149402857Y-115082642D01*
X149345714Y-115111214D01*
X149117142Y-115111214D01*
X149917142Y-115082642D02*
X150002857Y-115111214D01*
X150031428Y-115139785D01*
X150060000Y-115196928D01*
X150060000Y-115282642D01*
X150031428Y-115339785D01*
X150002857Y-115368357D01*
X149945714Y-115396928D01*
X149717142Y-115396928D01*
X149717142Y-114796928D01*
X149917142Y-114796928D01*
X149974285Y-114825500D01*
X150002857Y-114854071D01*
X150031428Y-114911214D01*
X150031428Y-114968357D01*
X150002857Y-115025500D01*
X149974285Y-115054071D01*
X149917142Y-115082642D01*
X149717142Y-115082642D01*
X150345714Y-115396928D02*
X150460000Y-115396928D01*
X150517142Y-115368357D01*
X150545714Y-115339785D01*
X150602857Y-115254071D01*
X150631428Y-115139785D01*
X150631428Y-114911214D01*
X150602857Y-114854071D01*
X150574285Y-114825500D01*
X150517142Y-114796928D01*
X150402857Y-114796928D01*
X150345714Y-114825500D01*
X150317142Y-114854071D01*
X150288571Y-114911214D01*
X150288571Y-115054071D01*
X150317142Y-115111214D01*
X150345714Y-115139785D01*
X150402857Y-115168357D01*
X150517142Y-115168357D01*
X150574285Y-115139785D01*
X150602857Y-115111214D01*
X150631428Y-115054071D01*
X151657142Y-115168357D02*
X152114285Y-115168357D01*
X151885714Y-115396928D02*
X151885714Y-114939785D01*
X152685714Y-114796928D02*
X152400000Y-114796928D01*
X152371428Y-115082642D01*
X152400000Y-115054071D01*
X152457142Y-115025500D01*
X152600000Y-115025500D01*
X152657142Y-115054071D01*
X152685714Y-115082642D01*
X152714285Y-115139785D01*
X152714285Y-115282642D01*
X152685714Y-115339785D01*
X152657142Y-115368357D01*
X152600000Y-115396928D01*
X152457142Y-115396928D01*
X152400000Y-115368357D01*
X152371428Y-115339785D01*
X152914285Y-114996928D02*
X153057142Y-115396928D01*
X153200000Y-114996928D01*
X154482857Y-114825500D02*
X154425714Y-114796928D01*
X154340000Y-114796928D01*
X154254285Y-114825500D01*
X154197142Y-114882642D01*
X154168571Y-114939785D01*
X154140000Y-115054071D01*
X154140000Y-115139785D01*
X154168571Y-115254071D01*
X154197142Y-115311214D01*
X154254285Y-115368357D01*
X154340000Y-115396928D01*
X154397142Y-115396928D01*
X154482857Y-115368357D01*
X154511428Y-115339785D01*
X154511428Y-115139785D01*
X154397142Y-115139785D01*
X154768571Y-115396928D02*
X154768571Y-114796928D01*
X155111428Y-115396928D01*
X155111428Y-114796928D01*
X155397142Y-115396928D02*
X155397142Y-114796928D01*
X155540000Y-114796928D01*
X155625714Y-114825500D01*
X155682857Y-114882642D01*
X155711428Y-114939785D01*
X155740000Y-115054071D01*
X155740000Y-115139785D01*
X155711428Y-115254071D01*
X155682857Y-115311214D01*
X155625714Y-115368357D01*
X155540000Y-115396928D01*
X155397142Y-115396928D01*
X156451428Y-115168357D02*
X156908571Y-115168357D01*
X156680000Y-115396928D02*
X156680000Y-114939785D01*
X157137142Y-114796928D02*
X157508571Y-114796928D01*
X157308571Y-115025500D01*
X157394285Y-115025500D01*
X157451428Y-115054071D01*
X157480000Y-115082642D01*
X157508571Y-115139785D01*
X157508571Y-115282642D01*
X157480000Y-115339785D01*
X157451428Y-115368357D01*
X157394285Y-115396928D01*
X157222857Y-115396928D01*
X157165714Y-115368357D01*
X157137142Y-115339785D01*
X157708571Y-114996928D02*
X157851428Y-115396928D01*
X157994285Y-114996928D01*
X158165714Y-114796928D02*
X158537142Y-114796928D01*
X158337142Y-115025500D01*
X158422857Y-115025500D01*
X158480000Y-115054071D01*
X158508571Y-115082642D01*
X158537142Y-115139785D01*
X158537142Y-115282642D01*
X158508571Y-115339785D01*
X158480000Y-115368357D01*
X158422857Y-115396928D01*
X158251428Y-115396928D01*
X158194285Y-115368357D01*
X158165714Y-115339785D01*
X133920000Y-103585928D02*
X133920000Y-102985928D01*
X134148571Y-102985928D01*
X134205714Y-103014500D01*
X134234285Y-103043071D01*
X134262857Y-103100214D01*
X134262857Y-103185928D01*
X134234285Y-103243071D01*
X134205714Y-103271642D01*
X134148571Y-103300214D01*
X133920000Y-103300214D01*
X134491428Y-103414500D02*
X134777142Y-103414500D01*
X134434285Y-103585928D02*
X134634285Y-102985928D01*
X134834285Y-103585928D01*
X135320000Y-102985928D02*
X135034285Y-102985928D01*
X135005714Y-103271642D01*
X135034285Y-103243071D01*
X135091428Y-103214500D01*
X135234285Y-103214500D01*
X135291428Y-103243071D01*
X135320000Y-103271642D01*
X135348571Y-103328785D01*
X135348571Y-103471642D01*
X135320000Y-103528785D01*
X135291428Y-103557357D01*
X135234285Y-103585928D01*
X135091428Y-103585928D01*
X135034285Y-103557357D01*
X135005714Y-103528785D01*
X136460000Y-103585928D02*
X136460000Y-102985928D01*
X136688571Y-102985928D01*
X136745714Y-103014500D01*
X136774285Y-103043071D01*
X136802857Y-103100214D01*
X136802857Y-103185928D01*
X136774285Y-103243071D01*
X136745714Y-103271642D01*
X136688571Y-103300214D01*
X136460000Y-103300214D01*
X137031428Y-103414500D02*
X137317142Y-103414500D01*
X136974285Y-103585928D02*
X137174285Y-102985928D01*
X137374285Y-103585928D01*
X137831428Y-103185928D02*
X137831428Y-103585928D01*
X137688571Y-102957357D02*
X137545714Y-103385928D01*
X137917142Y-103385928D01*
X139000000Y-103585928D02*
X139000000Y-102985928D01*
X139228571Y-102985928D01*
X139285714Y-103014500D01*
X139314285Y-103043071D01*
X139342857Y-103100214D01*
X139342857Y-103185928D01*
X139314285Y-103243071D01*
X139285714Y-103271642D01*
X139228571Y-103300214D01*
X139000000Y-103300214D01*
X139571428Y-103414500D02*
X139857142Y-103414500D01*
X139514285Y-103585928D02*
X139714285Y-102985928D01*
X139914285Y-103585928D01*
X140057142Y-102985928D02*
X140428571Y-102985928D01*
X140228571Y-103214500D01*
X140314285Y-103214500D01*
X140371428Y-103243071D01*
X140400000Y-103271642D01*
X140428571Y-103328785D01*
X140428571Y-103471642D01*
X140400000Y-103528785D01*
X140371428Y-103557357D01*
X140314285Y-103585928D01*
X140142857Y-103585928D01*
X140085714Y-103557357D01*
X140057142Y-103528785D01*
X141540000Y-103585928D02*
X141540000Y-102985928D01*
X141768571Y-102985928D01*
X141825714Y-103014500D01*
X141854285Y-103043071D01*
X141882857Y-103100214D01*
X141882857Y-103185928D01*
X141854285Y-103243071D01*
X141825714Y-103271642D01*
X141768571Y-103300214D01*
X141540000Y-103300214D01*
X142111428Y-103414500D02*
X142397142Y-103414500D01*
X142054285Y-103585928D02*
X142254285Y-102985928D01*
X142454285Y-103585928D01*
X142625714Y-103043071D02*
X142654285Y-103014500D01*
X142711428Y-102985928D01*
X142854285Y-102985928D01*
X142911428Y-103014500D01*
X142940000Y-103043071D01*
X142968571Y-103100214D01*
X142968571Y-103157357D01*
X142940000Y-103243071D01*
X142597142Y-103585928D01*
X142968571Y-103585928D01*
X144080000Y-103585928D02*
X144080000Y-102985928D01*
X144308571Y-102985928D01*
X144365714Y-103014500D01*
X144394285Y-103043071D01*
X144422857Y-103100214D01*
X144422857Y-103185928D01*
X144394285Y-103243071D01*
X144365714Y-103271642D01*
X144308571Y-103300214D01*
X144080000Y-103300214D01*
X144651428Y-103414500D02*
X144937142Y-103414500D01*
X144594285Y-103585928D02*
X144794285Y-102985928D01*
X144994285Y-103585928D01*
X145508571Y-103585928D02*
X145165714Y-103585928D01*
X145337142Y-103585928D02*
X145337142Y-102985928D01*
X145280000Y-103071642D01*
X145222857Y-103128785D01*
X145165714Y-103157357D01*
X146620000Y-103585928D02*
X146620000Y-102985928D01*
X146848571Y-102985928D01*
X146905714Y-103014500D01*
X146934285Y-103043071D01*
X146962857Y-103100214D01*
X146962857Y-103185928D01*
X146934285Y-103243071D01*
X146905714Y-103271642D01*
X146848571Y-103300214D01*
X146620000Y-103300214D01*
X147191428Y-103414500D02*
X147477142Y-103414500D01*
X147134285Y-103585928D02*
X147334285Y-102985928D01*
X147534285Y-103585928D01*
X147848571Y-102985928D02*
X147905714Y-102985928D01*
X147962857Y-103014500D01*
X147991428Y-103043071D01*
X148020000Y-103100214D01*
X148048571Y-103214500D01*
X148048571Y-103357357D01*
X148020000Y-103471642D01*
X147991428Y-103528785D01*
X147962857Y-103557357D01*
X147905714Y-103585928D01*
X147848571Y-103585928D01*
X147791428Y-103557357D01*
X147762857Y-103528785D01*
X147734285Y-103471642D01*
X147705714Y-103357357D01*
X147705714Y-103214500D01*
X147734285Y-103100214D01*
X147762857Y-103043071D01*
X147791428Y-103014500D01*
X147848571Y-102985928D01*
X149474285Y-103528785D02*
X149445714Y-103557357D01*
X149360000Y-103585928D01*
X149302857Y-103585928D01*
X149217142Y-103557357D01*
X149160000Y-103500214D01*
X149131428Y-103443071D01*
X149102857Y-103328785D01*
X149102857Y-103243071D01*
X149131428Y-103128785D01*
X149160000Y-103071642D01*
X149217142Y-103014500D01*
X149302857Y-102985928D01*
X149360000Y-102985928D01*
X149445714Y-103014500D01*
X149474285Y-103043071D01*
X150045714Y-103585928D02*
X149702857Y-103585928D01*
X149874285Y-103585928D02*
X149874285Y-102985928D01*
X149817142Y-103071642D01*
X149760000Y-103128785D01*
X149702857Y-103157357D01*
X150588571Y-102985928D02*
X150302857Y-102985928D01*
X150274285Y-103271642D01*
X150302857Y-103243071D01*
X150360000Y-103214500D01*
X150502857Y-103214500D01*
X150560000Y-103243071D01*
X150588571Y-103271642D01*
X150617142Y-103328785D01*
X150617142Y-103471642D01*
X150588571Y-103528785D01*
X150560000Y-103557357D01*
X150502857Y-103585928D01*
X150360000Y-103585928D01*
X150302857Y-103557357D01*
X150274285Y-103528785D01*
X152014285Y-103528785D02*
X151985714Y-103557357D01*
X151900000Y-103585928D01*
X151842857Y-103585928D01*
X151757142Y-103557357D01*
X151700000Y-103500214D01*
X151671428Y-103443071D01*
X151642857Y-103328785D01*
X151642857Y-103243071D01*
X151671428Y-103128785D01*
X151700000Y-103071642D01*
X151757142Y-103014500D01*
X151842857Y-102985928D01*
X151900000Y-102985928D01*
X151985714Y-103014500D01*
X152014285Y-103043071D01*
X152585714Y-103585928D02*
X152242857Y-103585928D01*
X152414285Y-103585928D02*
X152414285Y-102985928D01*
X152357142Y-103071642D01*
X152300000Y-103128785D01*
X152242857Y-103157357D01*
X153100000Y-103185928D02*
X153100000Y-103585928D01*
X152957142Y-102957357D02*
X152814285Y-103385928D01*
X153185714Y-103385928D01*
X154554285Y-103528785D02*
X154525714Y-103557357D01*
X154440000Y-103585928D01*
X154382857Y-103585928D01*
X154297142Y-103557357D01*
X154240000Y-103500214D01*
X154211428Y-103443071D01*
X154182857Y-103328785D01*
X154182857Y-103243071D01*
X154211428Y-103128785D01*
X154240000Y-103071642D01*
X154297142Y-103014500D01*
X154382857Y-102985928D01*
X154440000Y-102985928D01*
X154525714Y-103014500D01*
X154554285Y-103043071D01*
X155125714Y-103585928D02*
X154782857Y-103585928D01*
X154954285Y-103585928D02*
X154954285Y-102985928D01*
X154897142Y-103071642D01*
X154840000Y-103128785D01*
X154782857Y-103157357D01*
X155325714Y-102985928D02*
X155697142Y-102985928D01*
X155497142Y-103214500D01*
X155582857Y-103214500D01*
X155640000Y-103243071D01*
X155668571Y-103271642D01*
X155697142Y-103328785D01*
X155697142Y-103471642D01*
X155668571Y-103528785D01*
X155640000Y-103557357D01*
X155582857Y-103585928D01*
X155411428Y-103585928D01*
X155354285Y-103557357D01*
X155325714Y-103528785D01*
X156494285Y-102985928D02*
X156694285Y-103585928D01*
X156894285Y-102985928D01*
X157294285Y-103271642D02*
X157380000Y-103300214D01*
X157408571Y-103328785D01*
X157437142Y-103385928D01*
X157437142Y-103471642D01*
X157408571Y-103528785D01*
X157380000Y-103557357D01*
X157322857Y-103585928D01*
X157094285Y-103585928D01*
X157094285Y-102985928D01*
X157294285Y-102985928D01*
X157351428Y-103014500D01*
X157380000Y-103043071D01*
X157408571Y-103100214D01*
X157408571Y-103157357D01*
X157380000Y-103214500D01*
X157351428Y-103243071D01*
X157294285Y-103271642D01*
X157094285Y-103271642D01*
X157665714Y-103414500D02*
X157951428Y-103414500D01*
X157608571Y-103585928D02*
X157808571Y-102985928D01*
X158008571Y-103585928D01*
X158122857Y-102985928D02*
X158465714Y-102985928D01*
X158294285Y-103585928D02*
X158294285Y-102985928D01*
X155783000Y-113487142D02*
X155754428Y-113544285D01*
X155754428Y-113630000D01*
X155783000Y-113715714D01*
X155840142Y-113772857D01*
X155897285Y-113801428D01*
X156011571Y-113830000D01*
X156097285Y-113830000D01*
X156211571Y-113801428D01*
X156268714Y-113772857D01*
X156325857Y-113715714D01*
X156354428Y-113630000D01*
X156354428Y-113572857D01*
X156325857Y-113487142D01*
X156297285Y-113458571D01*
X156097285Y-113458571D01*
X156097285Y-113572857D01*
X156354428Y-113201428D02*
X155754428Y-113201428D01*
X156354428Y-112858571D01*
X155754428Y-112858571D01*
X156354428Y-112572857D02*
X155754428Y-112572857D01*
X155754428Y-112430000D01*
X155783000Y-112344285D01*
X155840142Y-112287142D01*
X155897285Y-112258571D01*
X156011571Y-112230000D01*
X156097285Y-112230000D01*
X156211571Y-112258571D01*
X156268714Y-112287142D01*
X156325857Y-112344285D01*
X156354428Y-112430000D01*
X156354428Y-112572857D01*
X156297285Y-110847142D02*
X156325857Y-110875714D01*
X156354428Y-110961428D01*
X156354428Y-111018571D01*
X156325857Y-111104285D01*
X156268714Y-111161428D01*
X156211571Y-111190000D01*
X156097285Y-111218571D01*
X156011571Y-111218571D01*
X155897285Y-111190000D01*
X155840142Y-111161428D01*
X155783000Y-111104285D01*
X155754428Y-111018571D01*
X155754428Y-110961428D01*
X155783000Y-110875714D01*
X155811571Y-110847142D01*
X156354428Y-110304285D02*
X156354428Y-110590000D01*
X155754428Y-110590000D01*
X156354428Y-110104285D02*
X155754428Y-110104285D01*
X156354428Y-109761428D02*
X156011571Y-110018571D01*
X155754428Y-109761428D02*
X156097285Y-110104285D01*
X156354428Y-108564285D02*
X155754428Y-108564285D01*
X155754428Y-108421428D01*
X155783000Y-108335714D01*
X155840142Y-108278571D01*
X155897285Y-108250000D01*
X156011571Y-108221428D01*
X156097285Y-108221428D01*
X156211571Y-108250000D01*
X156268714Y-108278571D01*
X156325857Y-108335714D01*
X156354428Y-108421428D01*
X156354428Y-108564285D01*
X156354428Y-107964285D02*
X155754428Y-107964285D01*
X155754428Y-107564285D02*
X155754428Y-107450000D01*
X155783000Y-107392857D01*
X155840142Y-107335714D01*
X155954428Y-107307142D01*
X156154428Y-107307142D01*
X156268714Y-107335714D01*
X156325857Y-107392857D01*
X156354428Y-107450000D01*
X156354428Y-107564285D01*
X156325857Y-107621428D01*
X156268714Y-107678571D01*
X156154428Y-107707142D01*
X155954428Y-107707142D01*
X155840142Y-107678571D01*
X155783000Y-107621428D01*
X155754428Y-107564285D01*
X156125857Y-106438571D02*
X156125857Y-105981428D01*
X156354428Y-106210000D02*
X155897285Y-106210000D01*
X155754428Y-105752857D02*
X155754428Y-105381428D01*
X155983000Y-105581428D01*
X155983000Y-105495714D01*
X156011571Y-105438571D01*
X156040142Y-105410000D01*
X156097285Y-105381428D01*
X156240142Y-105381428D01*
X156297285Y-105410000D01*
X156325857Y-105438571D01*
X156354428Y-105495714D01*
X156354428Y-105667142D01*
X156325857Y-105724285D01*
X156297285Y-105752857D01*
X155954428Y-105181428D02*
X156354428Y-105038571D01*
X155954428Y-104895714D01*
X155754428Y-104724285D02*
X155754428Y-104352857D01*
X155983000Y-104552857D01*
X155983000Y-104467142D01*
X156011571Y-104410000D01*
X156040142Y-104381428D01*
X156097285Y-104352857D01*
X156240142Y-104352857D01*
X156297285Y-104381428D01*
X156325857Y-104410000D01*
X156354428Y-104467142D01*
X156354428Y-104638571D01*
X156325857Y-104695714D01*
X156297285Y-104724285D01*
D11*
X126746000Y-105470000D02*
X129846000Y-105470000D01*
X130996000Y-105470000D02*
X130996000Y-107620000D01*
D12*
X130996000Y-110820000D02*
X130996000Y-112970000D01*
D11*
X126746000Y-112970000D02*
X129846000Y-112970000D01*
D13*
X153263600Y-111683800D02*
X153263600Y-112507000D01*
X153263600Y-114630200D02*
X153263600Y-113807000D01*
X153263600Y-114630200D02*
X155324000Y-114630200D01*
X153263600Y-111683800D02*
X154624000Y-111683800D01*
X158699200Y-118033800D02*
X133426200Y-118033800D01*
X133426200Y-115637000D02*
X133426200Y-118033800D01*
X158699200Y-115620800D02*
X133426200Y-115637000D01*
X158699200Y-115620800D02*
X158699200Y-118033800D01*
X158699200Y-100380800D02*
X158699200Y-102819200D01*
X158699200Y-100380800D02*
X133400800Y-100380800D01*
X133400800Y-100380800D02*
X133400800Y-102819200D01*
X158699200Y-102819200D02*
X133400800Y-102819200D01*
X153492200Y-110642400D02*
X153492200Y-106045000D01*
X150291800Y-110642400D02*
X150291800Y-106045000D01*
X150622000Y-110845600D02*
X150495000Y-110845600D01*
X150495000Y-110845600D02*
X150291800Y-110642400D01*
X150622000Y-105841800D02*
X150495000Y-105841800D01*
X150495000Y-105841800D02*
X150291800Y-106045000D01*
X153162000Y-110845600D02*
X153289000Y-110845600D01*
X153289000Y-110845600D02*
X153492200Y-110642400D01*
X153162000Y-105841800D02*
X153289000Y-105841800D01*
X153289000Y-105841800D02*
X153492200Y-106045000D01*
X132323000Y-100192000D02*
X132323000Y-102492000D01*
X132323000Y-102492000D02*
X127773000Y-102492000D01*
X127773000Y-102492000D02*
X127773000Y-100192000D01*
X127773000Y-100192000D02*
X132323000Y-100192000D01*
D11*
X151882000Y-112157000D02*
X151882000Y-114157000D01*
X150632000Y-112157000D02*
X150632000Y-114157000D01*
X155438000Y-110220000D02*
X155438000Y-108220000D01*
X154188000Y-110220000D02*
X154188000Y-108220000D01*
X137779000Y-103896000D02*
X135779000Y-103896000D01*
X137779000Y-105146000D02*
X135779000Y-105146000D01*
X149447000Y-103896000D02*
X147447000Y-103896000D01*
X149447000Y-105146000D02*
X147447000Y-105146000D01*
X146939000Y-113294000D02*
X148939000Y-113294000D01*
X146939000Y-114544000D02*
X148939000Y-114544000D01*
X137779000Y-113294000D02*
X135779000Y-113294000D01*
X137779000Y-114544000D02*
X135779000Y-114544000D01*
X149596000Y-110125000D02*
X149596000Y-112125000D01*
X148346000Y-110125000D02*
X148346000Y-112125000D01*
X149596000Y-108442000D02*
X149596000Y-106442000D01*
X148346000Y-108442000D02*
X148346000Y-106442000D01*
X134096000Y-105146000D02*
X132096000Y-105146000D01*
X134096000Y-103896000D02*
X132096000Y-103896000D01*
X133890000Y-105928000D02*
X135890000Y-105928000D01*
X133890000Y-107178000D02*
X135890000Y-107178000D01*
X134080000Y-113294000D02*
X132080000Y-113294000D01*
X134080000Y-114544000D02*
X132080000Y-114544000D01*
X133890000Y-107706000D02*
X135890000Y-107706000D01*
X133890000Y-108956000D02*
X135890000Y-108956000D01*
X135890000Y-109484000D02*
X133890000Y-109484000D01*
X135890000Y-110734000D02*
X133890000Y-110734000D01*
X133890000Y-112512000D02*
X135890000Y-112512000D01*
X133890000Y-111262000D02*
X135890000Y-111262000D01*
D13*
X139207000Y-105610000D02*
X138757000Y-105610000D01*
X138757000Y-105610000D02*
X138757000Y-106060000D01*
X145527000Y-105610000D02*
X145977000Y-105610000D01*
X145977000Y-105610000D02*
X145977000Y-106060000D01*
X139207000Y-112830000D02*
X138757000Y-112830000D01*
X138757000Y-112830000D02*
X138757000Y-112380000D01*
X145527000Y-112830000D02*
X145977000Y-112830000D01*
X145977000Y-112830000D02*
X145977000Y-112380000D01*
X145977000Y-112380000D02*
X147267000Y-112380000D01*
X132323000Y-118248000D02*
X127773000Y-118248000D01*
X132323000Y-115948000D02*
X132323000Y-118248000D01*
X127773000Y-115948000D02*
X132323000Y-115948000D01*
X127773000Y-118248000D02*
X127773000Y-115948000D01*
D11*
X155448000Y-103806500D02*
X154178000Y-103806500D01*
X154188000Y-104521000D02*
X154188000Y-106521000D01*
X155438000Y-104521000D02*
X155438000Y-106521000D01*
X153003000Y-103896000D02*
X151003000Y-103896000D01*
X153003000Y-105146000D02*
X151003000Y-105146000D01*
D10*
X129338428Y-110262857D02*
X129824142Y-110262857D01*
X129881285Y-110234285D01*
X129909857Y-110205714D01*
X129938428Y-110148571D01*
X129938428Y-110034285D01*
X129909857Y-109977142D01*
X129881285Y-109948571D01*
X129824142Y-109920000D01*
X129338428Y-109920000D01*
X129909857Y-109662857D02*
X129938428Y-109577142D01*
X129938428Y-109434285D01*
X129909857Y-109377142D01*
X129881285Y-109348571D01*
X129824142Y-109320000D01*
X129767000Y-109320000D01*
X129709857Y-109348571D01*
X129681285Y-109377142D01*
X129652714Y-109434285D01*
X129624142Y-109548571D01*
X129595571Y-109605714D01*
X129567000Y-109634285D01*
X129509857Y-109662857D01*
X129452714Y-109662857D01*
X129395571Y-109634285D01*
X129367000Y-109605714D01*
X129338428Y-109548571D01*
X129338428Y-109405714D01*
X129367000Y-109320000D01*
X129624142Y-108862857D02*
X129652714Y-108777142D01*
X129681285Y-108748571D01*
X129738428Y-108720000D01*
X129824142Y-108720000D01*
X129881285Y-108748571D01*
X129909857Y-108777142D01*
X129938428Y-108834285D01*
X129938428Y-109062857D01*
X129338428Y-109062857D01*
X129338428Y-108862857D01*
X129367000Y-108805714D01*
X129395571Y-108777142D01*
X129452714Y-108748571D01*
X129509857Y-108748571D01*
X129567000Y-108777142D01*
X129595571Y-108805714D01*
X129624142Y-108862857D01*
X129624142Y-109062857D01*
X129938428Y-108148571D02*
X129938428Y-108491428D01*
X129938428Y-108320000D02*
X129338428Y-108320000D01*
X129424142Y-108377142D01*
X129481285Y-108434285D01*
X129509857Y-108491428D01*
X153595428Y-113614142D02*
X154081142Y-113614142D01*
X154138285Y-113585571D01*
X154166857Y-113557000D01*
X154195428Y-113499857D01*
X154195428Y-113385571D01*
X154166857Y-113328428D01*
X154138285Y-113299857D01*
X154081142Y-113271285D01*
X153595428Y-113271285D01*
X153652571Y-113014142D02*
X153624000Y-112985571D01*
X153595428Y-112928428D01*
X153595428Y-112785571D01*
X153624000Y-112728428D01*
X153652571Y-112699857D01*
X153709714Y-112671285D01*
X153766857Y-112671285D01*
X153852571Y-112699857D01*
X154195428Y-113042714D01*
X154195428Y-112671285D01*
X151406285Y-108002428D02*
X151806285Y-108602428D01*
X151806285Y-108002428D02*
X151406285Y-108602428D01*
X152349142Y-108602428D02*
X152006285Y-108602428D01*
X152177714Y-108602428D02*
X152177714Y-108002428D01*
X152120571Y-108088142D01*
X152063428Y-108145285D01*
X152006285Y-108173857D01*
X129248000Y-102223857D02*
X129333714Y-102252428D01*
X129476571Y-102252428D01*
X129533714Y-102223857D01*
X129562285Y-102195285D01*
X129590857Y-102138142D01*
X129590857Y-102081000D01*
X129562285Y-102023857D01*
X129533714Y-101995285D01*
X129476571Y-101966714D01*
X129362285Y-101938142D01*
X129305142Y-101909571D01*
X129276571Y-101881000D01*
X129248000Y-101823857D01*
X129248000Y-101766714D01*
X129276571Y-101709571D01*
X129305142Y-101681000D01*
X129362285Y-101652428D01*
X129505142Y-101652428D01*
X129590857Y-101681000D01*
X129790857Y-101652428D02*
X129933714Y-102252428D01*
X130048000Y-101823857D01*
X130162285Y-102252428D01*
X130305142Y-101652428D01*
X130848000Y-102252428D02*
X130505142Y-102252428D01*
X130676571Y-102252428D02*
X130676571Y-101652428D01*
X130619428Y-101738142D01*
X130562285Y-101795285D01*
X130505142Y-101823857D01*
X156665714Y-109462857D02*
X156751428Y-109491428D01*
X156894285Y-109491428D01*
X156951428Y-109462857D01*
X156980000Y-109434285D01*
X157008571Y-109377142D01*
X157008571Y-109320000D01*
X156980000Y-109262857D01*
X156951428Y-109234285D01*
X156894285Y-109205714D01*
X156780000Y-109177142D01*
X156722857Y-109148571D01*
X156694285Y-109120000D01*
X156665714Y-109062857D01*
X156665714Y-109005714D01*
X156694285Y-108948571D01*
X156722857Y-108920000D01*
X156780000Y-108891428D01*
X156922857Y-108891428D01*
X157008571Y-108920000D01*
X157208571Y-108891428D02*
X157351428Y-109491428D01*
X157465714Y-109062857D01*
X157580000Y-109491428D01*
X157722857Y-108891428D01*
X157951428Y-109491428D02*
X157951428Y-108891428D01*
X158094285Y-108891428D01*
X158180000Y-108920000D01*
X158237142Y-108977142D01*
X158265714Y-109034285D01*
X158294285Y-109148571D01*
X158294285Y-109234285D01*
X158265714Y-109348571D01*
X158237142Y-109405714D01*
X158180000Y-109462857D01*
X158094285Y-109491428D01*
X157951428Y-109491428D01*
D11*
X151173666Y-113335571D02*
X151149857Y-113359380D01*
X151078428Y-113383190D01*
X151030809Y-113383190D01*
X150959380Y-113359380D01*
X150911761Y-113311761D01*
X150887952Y-113264142D01*
X150864142Y-113168904D01*
X150864142Y-113097476D01*
X150887952Y-113002238D01*
X150911761Y-112954619D01*
X150959380Y-112907000D01*
X151030809Y-112883190D01*
X151078428Y-112883190D01*
X151149857Y-112907000D01*
X151173666Y-112930809D01*
X151649857Y-113383190D02*
X151364142Y-113383190D01*
X151507000Y-113383190D02*
X151507000Y-112883190D01*
X151459380Y-112954619D01*
X151411761Y-113002238D01*
X151364142Y-113026047D01*
X154729666Y-109398571D02*
X154705857Y-109422380D01*
X154634428Y-109446190D01*
X154586809Y-109446190D01*
X154515380Y-109422380D01*
X154467761Y-109374761D01*
X154443952Y-109327142D01*
X154420142Y-109231904D01*
X154420142Y-109160476D01*
X154443952Y-109065238D01*
X154467761Y-109017619D01*
X154515380Y-108970000D01*
X154586809Y-108946190D01*
X154634428Y-108946190D01*
X154705857Y-108970000D01*
X154729666Y-108993809D01*
X154920142Y-108993809D02*
X154943952Y-108970000D01*
X154991571Y-108946190D01*
X155110619Y-108946190D01*
X155158238Y-108970000D01*
X155182047Y-108993809D01*
X155205857Y-109041428D01*
X155205857Y-109089047D01*
X155182047Y-109160476D01*
X154896333Y-109446190D01*
X155205857Y-109446190D01*
X136957571Y-104604333D02*
X136981380Y-104628142D01*
X137005190Y-104699571D01*
X137005190Y-104747190D01*
X136981380Y-104818619D01*
X136933761Y-104866238D01*
X136886142Y-104890047D01*
X136790904Y-104913857D01*
X136719476Y-104913857D01*
X136624238Y-104890047D01*
X136576619Y-104866238D01*
X136529000Y-104818619D01*
X136505190Y-104747190D01*
X136505190Y-104699571D01*
X136529000Y-104628142D01*
X136552809Y-104604333D01*
X136505190Y-104437666D02*
X136505190Y-104128142D01*
X136695666Y-104294809D01*
X136695666Y-104223380D01*
X136719476Y-104175761D01*
X136743285Y-104151952D01*
X136790904Y-104128142D01*
X136909952Y-104128142D01*
X136957571Y-104151952D01*
X136981380Y-104175761D01*
X137005190Y-104223380D01*
X137005190Y-104366238D01*
X136981380Y-104413857D01*
X136957571Y-104437666D01*
X148625571Y-104604333D02*
X148649380Y-104628142D01*
X148673190Y-104699571D01*
X148673190Y-104747190D01*
X148649380Y-104818619D01*
X148601761Y-104866238D01*
X148554142Y-104890047D01*
X148458904Y-104913857D01*
X148387476Y-104913857D01*
X148292238Y-104890047D01*
X148244619Y-104866238D01*
X148197000Y-104818619D01*
X148173190Y-104747190D01*
X148173190Y-104699571D01*
X148197000Y-104628142D01*
X148220809Y-104604333D01*
X148339857Y-104175761D02*
X148673190Y-104175761D01*
X148149380Y-104294809D02*
X148506523Y-104413857D01*
X148506523Y-104104333D01*
X148117571Y-114002333D02*
X148141380Y-114026142D01*
X148165190Y-114097571D01*
X148165190Y-114145190D01*
X148141380Y-114216619D01*
X148093761Y-114264238D01*
X148046142Y-114288047D01*
X147950904Y-114311857D01*
X147879476Y-114311857D01*
X147784238Y-114288047D01*
X147736619Y-114264238D01*
X147689000Y-114216619D01*
X147665190Y-114145190D01*
X147665190Y-114097571D01*
X147689000Y-114026142D01*
X147712809Y-114002333D01*
X147665190Y-113549952D02*
X147665190Y-113788047D01*
X147903285Y-113811857D01*
X147879476Y-113788047D01*
X147855666Y-113740428D01*
X147855666Y-113621380D01*
X147879476Y-113573761D01*
X147903285Y-113549952D01*
X147950904Y-113526142D01*
X148069952Y-113526142D01*
X148117571Y-113549952D01*
X148141380Y-113573761D01*
X148165190Y-113621380D01*
X148165190Y-113740428D01*
X148141380Y-113788047D01*
X148117571Y-113811857D01*
X136957571Y-114002333D02*
X136981380Y-114026142D01*
X137005190Y-114097571D01*
X137005190Y-114145190D01*
X136981380Y-114216619D01*
X136933761Y-114264238D01*
X136886142Y-114288047D01*
X136790904Y-114311857D01*
X136719476Y-114311857D01*
X136624238Y-114288047D01*
X136576619Y-114264238D01*
X136529000Y-114216619D01*
X136505190Y-114145190D01*
X136505190Y-114097571D01*
X136529000Y-114026142D01*
X136552809Y-114002333D01*
X136505190Y-113573761D02*
X136505190Y-113669000D01*
X136529000Y-113716619D01*
X136552809Y-113740428D01*
X136624238Y-113788047D01*
X136719476Y-113811857D01*
X136909952Y-113811857D01*
X136957571Y-113788047D01*
X136981380Y-113764238D01*
X137005190Y-113716619D01*
X137005190Y-113621380D01*
X136981380Y-113573761D01*
X136957571Y-113549952D01*
X136909952Y-113526142D01*
X136790904Y-113526142D01*
X136743285Y-113549952D01*
X136719476Y-113573761D01*
X136695666Y-113621380D01*
X136695666Y-113716619D01*
X136719476Y-113764238D01*
X136743285Y-113788047D01*
X136790904Y-113811857D01*
X148887666Y-111303571D02*
X148863857Y-111327380D01*
X148792428Y-111351190D01*
X148744809Y-111351190D01*
X148673380Y-111327380D01*
X148625761Y-111279761D01*
X148601952Y-111232142D01*
X148578142Y-111136904D01*
X148578142Y-111065476D01*
X148601952Y-110970238D01*
X148625761Y-110922619D01*
X148673380Y-110875000D01*
X148744809Y-110851190D01*
X148792428Y-110851190D01*
X148863857Y-110875000D01*
X148887666Y-110898809D01*
X149054333Y-110851190D02*
X149387666Y-110851190D01*
X149173380Y-111351190D01*
X148887666Y-107620571D02*
X148863857Y-107644380D01*
X148792428Y-107668190D01*
X148744809Y-107668190D01*
X148673380Y-107644380D01*
X148625761Y-107596761D01*
X148601952Y-107549142D01*
X148578142Y-107453904D01*
X148578142Y-107382476D01*
X148601952Y-107287238D01*
X148625761Y-107239619D01*
X148673380Y-107192000D01*
X148744809Y-107168190D01*
X148792428Y-107168190D01*
X148863857Y-107192000D01*
X148887666Y-107215809D01*
X149173380Y-107382476D02*
X149125761Y-107358666D01*
X149101952Y-107334857D01*
X149078142Y-107287238D01*
X149078142Y-107263428D01*
X149101952Y-107215809D01*
X149125761Y-107192000D01*
X149173380Y-107168190D01*
X149268619Y-107168190D01*
X149316238Y-107192000D01*
X149340047Y-107215809D01*
X149363857Y-107263428D01*
X149363857Y-107287238D01*
X149340047Y-107334857D01*
X149316238Y-107358666D01*
X149268619Y-107382476D01*
X149173380Y-107382476D01*
X149125761Y-107406285D01*
X149101952Y-107430095D01*
X149078142Y-107477714D01*
X149078142Y-107572952D01*
X149101952Y-107620571D01*
X149125761Y-107644380D01*
X149173380Y-107668190D01*
X149268619Y-107668190D01*
X149316238Y-107644380D01*
X149340047Y-107620571D01*
X149363857Y-107572952D01*
X149363857Y-107477714D01*
X149340047Y-107430095D01*
X149316238Y-107406285D01*
X149268619Y-107382476D01*
X133274571Y-104604333D02*
X133298380Y-104628142D01*
X133322190Y-104699571D01*
X133322190Y-104747190D01*
X133298380Y-104818619D01*
X133250761Y-104866238D01*
X133203142Y-104890047D01*
X133107904Y-104913857D01*
X133036476Y-104913857D01*
X132941238Y-104890047D01*
X132893619Y-104866238D01*
X132846000Y-104818619D01*
X132822190Y-104747190D01*
X132822190Y-104699571D01*
X132846000Y-104628142D01*
X132869809Y-104604333D01*
X133322190Y-104366238D02*
X133322190Y-104271000D01*
X133298380Y-104223380D01*
X133274571Y-104199571D01*
X133203142Y-104151952D01*
X133107904Y-104128142D01*
X132917428Y-104128142D01*
X132869809Y-104151952D01*
X132846000Y-104175761D01*
X132822190Y-104223380D01*
X132822190Y-104318619D01*
X132846000Y-104366238D01*
X132869809Y-104390047D01*
X132917428Y-104413857D01*
X133036476Y-104413857D01*
X133084095Y-104390047D01*
X133107904Y-104366238D01*
X133131714Y-104318619D01*
X133131714Y-104223380D01*
X133107904Y-104175761D01*
X133084095Y-104151952D01*
X133036476Y-104128142D01*
X135116190Y-106636333D02*
X134878095Y-106803000D01*
X135116190Y-106922047D02*
X134616190Y-106922047D01*
X134616190Y-106731571D01*
X134640000Y-106683952D01*
X134663809Y-106660142D01*
X134711428Y-106636333D01*
X134782857Y-106636333D01*
X134830476Y-106660142D01*
X134854285Y-106683952D01*
X134878095Y-106731571D01*
X134878095Y-106922047D01*
X135116190Y-106160142D02*
X135116190Y-106445857D01*
X135116190Y-106303000D02*
X134616190Y-106303000D01*
X134687619Y-106350619D01*
X134735238Y-106398238D01*
X134759047Y-106445857D01*
X133306190Y-114002333D02*
X133068095Y-114169000D01*
X133306190Y-114288047D02*
X132806190Y-114288047D01*
X132806190Y-114097571D01*
X132830000Y-114049952D01*
X132853809Y-114026142D01*
X132901428Y-114002333D01*
X132972857Y-114002333D01*
X133020476Y-114026142D01*
X133044285Y-114049952D01*
X133068095Y-114097571D01*
X133068095Y-114288047D01*
X132853809Y-113811857D02*
X132830000Y-113788047D01*
X132806190Y-113740428D01*
X132806190Y-113621380D01*
X132830000Y-113573761D01*
X132853809Y-113549952D01*
X132901428Y-113526142D01*
X132949047Y-113526142D01*
X133020476Y-113549952D01*
X133306190Y-113835666D01*
X133306190Y-113526142D01*
X135116190Y-108414333D02*
X134878095Y-108581000D01*
X135116190Y-108700047D02*
X134616190Y-108700047D01*
X134616190Y-108509571D01*
X134640000Y-108461952D01*
X134663809Y-108438142D01*
X134711428Y-108414333D01*
X134782857Y-108414333D01*
X134830476Y-108438142D01*
X134854285Y-108461952D01*
X134878095Y-108509571D01*
X134878095Y-108700047D01*
X134616190Y-108247666D02*
X134616190Y-107938142D01*
X134806666Y-108104809D01*
X134806666Y-108033380D01*
X134830476Y-107985761D01*
X134854285Y-107961952D01*
X134901904Y-107938142D01*
X135020952Y-107938142D01*
X135068571Y-107961952D01*
X135092380Y-107985761D01*
X135116190Y-108033380D01*
X135116190Y-108176238D01*
X135092380Y-108223857D01*
X135068571Y-108247666D01*
X135116190Y-110192333D02*
X134878095Y-110359000D01*
X135116190Y-110478047D02*
X134616190Y-110478047D01*
X134616190Y-110287571D01*
X134640000Y-110239952D01*
X134663809Y-110216142D01*
X134711428Y-110192333D01*
X134782857Y-110192333D01*
X134830476Y-110216142D01*
X134854285Y-110239952D01*
X134878095Y-110287571D01*
X134878095Y-110478047D01*
X134782857Y-109763761D02*
X135116190Y-109763761D01*
X134592380Y-109882809D02*
X134949523Y-110001857D01*
X134949523Y-109692333D01*
X135116190Y-111970333D02*
X134878095Y-112137000D01*
X135116190Y-112256047D02*
X134616190Y-112256047D01*
X134616190Y-112065571D01*
X134640000Y-112017952D01*
X134663809Y-111994142D01*
X134711428Y-111970333D01*
X134782857Y-111970333D01*
X134830476Y-111994142D01*
X134854285Y-112017952D01*
X134878095Y-112065571D01*
X134878095Y-112256047D01*
X134616190Y-111517952D02*
X134616190Y-111756047D01*
X134854285Y-111779857D01*
X134830476Y-111756047D01*
X134806666Y-111708428D01*
X134806666Y-111589380D01*
X134830476Y-111541761D01*
X134854285Y-111517952D01*
X134901904Y-111494142D01*
X135020952Y-111494142D01*
X135068571Y-111517952D01*
X135092380Y-111541761D01*
X135116190Y-111589380D01*
X135116190Y-111708428D01*
X135092380Y-111756047D01*
X135068571Y-111779857D01*
D10*
X141909857Y-108891428D02*
X141909857Y-109377142D01*
X141938428Y-109434285D01*
X141967000Y-109462857D01*
X142024142Y-109491428D01*
X142138428Y-109491428D01*
X142195571Y-109462857D01*
X142224142Y-109434285D01*
X142252714Y-109377142D01*
X142252714Y-108891428D01*
X142852714Y-109491428D02*
X142509857Y-109491428D01*
X142681285Y-109491428D02*
X142681285Y-108891428D01*
X142624142Y-108977142D01*
X142567000Y-109034285D01*
X142509857Y-109062857D01*
X129248000Y-116701857D02*
X129333714Y-116730428D01*
X129476571Y-116730428D01*
X129533714Y-116701857D01*
X129562285Y-116673285D01*
X129590857Y-116616142D01*
X129590857Y-116559000D01*
X129562285Y-116501857D01*
X129533714Y-116473285D01*
X129476571Y-116444714D01*
X129362285Y-116416142D01*
X129305142Y-116387571D01*
X129276571Y-116359000D01*
X129248000Y-116301857D01*
X129248000Y-116244714D01*
X129276571Y-116187571D01*
X129305142Y-116159000D01*
X129362285Y-116130428D01*
X129505142Y-116130428D01*
X129590857Y-116159000D01*
X129790857Y-116130428D02*
X129933714Y-116730428D01*
X130048000Y-116301857D01*
X130162285Y-116730428D01*
X130305142Y-116130428D01*
X130505142Y-116187571D02*
X130533714Y-116159000D01*
X130590857Y-116130428D01*
X130733714Y-116130428D01*
X130790857Y-116159000D01*
X130819428Y-116187571D01*
X130848000Y-116244714D01*
X130848000Y-116301857D01*
X130819428Y-116387571D01*
X130476571Y-116730428D01*
X130848000Y-116730428D01*
D11*
X154443952Y-105747190D02*
X154443952Y-105247190D01*
X154563000Y-105247190D01*
X154634428Y-105271000D01*
X154682047Y-105318619D01*
X154705857Y-105366238D01*
X154729666Y-105461476D01*
X154729666Y-105532904D01*
X154705857Y-105628142D01*
X154682047Y-105675761D01*
X154634428Y-105723380D01*
X154563000Y-105747190D01*
X154443952Y-105747190D01*
X155205857Y-105747190D02*
X154920142Y-105747190D01*
X155063000Y-105747190D02*
X155063000Y-105247190D01*
X155015380Y-105318619D01*
X154967761Y-105366238D01*
X154920142Y-105390047D01*
X152229190Y-104604333D02*
X151991095Y-104771000D01*
X152229190Y-104890047D02*
X151729190Y-104890047D01*
X151729190Y-104699571D01*
X151753000Y-104651952D01*
X151776809Y-104628142D01*
X151824428Y-104604333D01*
X151895857Y-104604333D01*
X151943476Y-104628142D01*
X151967285Y-104651952D01*
X151991095Y-104699571D01*
X151991095Y-104890047D01*
X151729190Y-104175761D02*
X151729190Y-104271000D01*
X151753000Y-104318619D01*
X151776809Y-104342428D01*
X151848238Y-104390047D01*
X151943476Y-104413857D01*
X152133952Y-104413857D01*
X152181571Y-104390047D01*
X152205380Y-104366238D01*
X152229190Y-104318619D01*
X152229190Y-104223380D01*
X152205380Y-104175761D01*
X152181571Y-104151952D01*
X152133952Y-104128142D01*
X152014904Y-104128142D01*
X151967285Y-104151952D01*
X151943476Y-104175761D01*
X151919666Y-104223380D01*
X151919666Y-104318619D01*
X151943476Y-104366238D01*
X151967285Y-104390047D01*
X152014904Y-104413857D01*
M02*
