G04 #@! TF.GenerationSoftware,KiCad,Pcbnew,(5.1.5)-3*
G04 #@! TF.CreationDate,2020-06-09T21:02:58-05:00*
G04 #@! TF.ProjectId,pcb,7063622e-6b69-4636-9164-5f7063625858,rev?*
G04 #@! TF.SameCoordinates,Original*
G04 #@! TF.FileFunction,Copper,L2,Bot*
G04 #@! TF.FilePolarity,Positive*
%FSLAX46Y46*%
G04 Gerber Fmt 4.6, Leading zero omitted, Abs format (unit mm)*
G04 Created by KiCad (PCBNEW (5.1.5)-3) date 2020-06-09 21:02:58*
%MOMM*%
%LPD*%
G04 APERTURE LIST*
%ADD10C,1.600000*%
%ADD11O,1.700000X1.700000*%
%ADD12R,1.700000X1.700000*%
%ADD13C,0.800000*%
%ADD14C,0.250000*%
%ADD15C,0.200000*%
G04 APERTURE END LIST*
D10*
X128196000Y-112045000D03*
X128196000Y-106395000D03*
D11*
X134620000Y-116840000D03*
X137160000Y-116840000D03*
X139700000Y-116840000D03*
X142240000Y-116840000D03*
X144780000Y-116840000D03*
X147320000Y-116840000D03*
X149860000Y-116840000D03*
X152400000Y-116840000D03*
X154940000Y-116840000D03*
D12*
X157480000Y-116840000D03*
X157480000Y-101600000D03*
D11*
X154940000Y-101600000D03*
X152400000Y-101600000D03*
X149860000Y-101600000D03*
X147320000Y-101600000D03*
X144780000Y-101600000D03*
X142240000Y-101600000D03*
X139700000Y-101600000D03*
X137160000Y-101600000D03*
X134620000Y-101600000D03*
X157480000Y-105410000D03*
X157480000Y-107950000D03*
X157480000Y-110490000D03*
X157480000Y-113030000D03*
D13*
X132080000Y-107188000D03*
X140843000Y-106426000D03*
X142425182Y-110259643D03*
X149987000Y-113157000D03*
X144780000Y-108204000D03*
X153035000Y-108204000D03*
X143256000Y-108458000D03*
X132715000Y-104521000D03*
X140589000Y-109601000D03*
X138811000Y-105664000D03*
X148082000Y-104521000D03*
X136398000Y-104521000D03*
X136398000Y-113919000D03*
X130048000Y-115443000D03*
X130048000Y-102997000D03*
X145923000Y-112776000D03*
X139576402Y-110497615D03*
X138811000Y-112776000D03*
X147853400Y-111226600D03*
X144266570Y-111003429D03*
X144035345Y-109746898D03*
X145034000Y-109695000D03*
X141356750Y-111925929D03*
X132715000Y-113919000D03*
X144837315Y-106628374D03*
X145923000Y-105664000D03*
D14*
X151224999Y-115664999D02*
X152400000Y-116840000D01*
X132301999Y-115664999D02*
X151224999Y-115664999D01*
X131699000Y-115062000D02*
X132301999Y-115664999D01*
X132080000Y-107188000D02*
X132080000Y-112395000D01*
X132080000Y-112395000D02*
X131191000Y-113284000D01*
X131191000Y-114554000D02*
X132301999Y-115664999D01*
X131191000Y-113284000D02*
X131191000Y-114554000D01*
X145923000Y-113157000D02*
X146939000Y-114173000D01*
X157480000Y-115740000D02*
X157480000Y-116840000D01*
X155913000Y-114173000D02*
X157480000Y-115740000D01*
X146939000Y-114173000D02*
X155913000Y-114173000D01*
X145923000Y-112776000D02*
X145923000Y-113157000D01*
X132715000Y-104521000D02*
X132715000Y-103955315D01*
X141322158Y-103349158D02*
X141351000Y-103378000D01*
X133321158Y-103349158D02*
X141322158Y-103349158D01*
X132715000Y-103955315D02*
X133321158Y-103349158D01*
X143256000Y-105283000D02*
X141351000Y-103378000D01*
X143256000Y-108458000D02*
X143256000Y-105283000D01*
X141637848Y-110497615D02*
X139576402Y-110497615D01*
X146525989Y-111600989D02*
X145388599Y-111600989D01*
X143118220Y-111977989D02*
X141637848Y-110497615D01*
X153579999Y-111850001D02*
X149584587Y-111850001D01*
X145011599Y-111977989D02*
X143118220Y-111977989D01*
X149584587Y-111850001D02*
X148981598Y-112452990D01*
X145388599Y-111600989D02*
X145011599Y-111977989D01*
X157480000Y-107950000D02*
X153579999Y-111850001D01*
X147377990Y-112452990D02*
X146525989Y-111600989D01*
X148981598Y-112452990D02*
X147377990Y-112452990D01*
X154401409Y-102775001D02*
X156558999Y-102775001D01*
X157480000Y-101854000D02*
X157480000Y-101600000D01*
X156558999Y-102775001D02*
X157480000Y-101854000D01*
X147320705Y-110489295D02*
X147320000Y-110490000D01*
X147320705Y-109855705D02*
X147320705Y-110489295D01*
X147320705Y-109855705D02*
X154401409Y-102775001D01*
X147955000Y-111125000D02*
X147320000Y-110490000D01*
X145536571Y-111003429D02*
X154940000Y-101600000D01*
X144266570Y-111003429D02*
X145536571Y-111003429D01*
X145382001Y-110420001D02*
X152400000Y-103402002D01*
X144708448Y-110420001D02*
X145382001Y-110420001D01*
X152400000Y-102802081D02*
X152400000Y-101600000D01*
X152400000Y-103402002D02*
X152400000Y-102802081D01*
X144035345Y-109746898D02*
X144708448Y-110420001D01*
X145470592Y-109695000D02*
X145034000Y-109695000D01*
X151003000Y-102743000D02*
X151003000Y-104162592D01*
X151003000Y-104162592D02*
X145470592Y-109695000D01*
X149860000Y-101600000D02*
X151003000Y-102743000D01*
X141356750Y-111925929D02*
X139363679Y-113919000D01*
X132715000Y-113919000D02*
X133604000Y-114808000D01*
X138474679Y-114808000D02*
X141356750Y-111925929D01*
X133604000Y-114808000D02*
X138474679Y-114808000D01*
X145085626Y-106628374D02*
X144837315Y-106628374D01*
X144525999Y-103884589D02*
X145580409Y-104938999D01*
X144780000Y-101600000D02*
X143930001Y-102449999D01*
X143930001Y-102449999D02*
X143930001Y-103287181D01*
X143930001Y-103287181D02*
X144525999Y-103883179D01*
X145324999Y-106389001D02*
X145085626Y-106628374D01*
X144525999Y-103883179D02*
X144525999Y-103884589D01*
X145580409Y-104938999D02*
X146271001Y-104938999D01*
X146648001Y-105315999D02*
X146648001Y-106012001D01*
X146271001Y-104938999D02*
X146648001Y-105315999D01*
X146648001Y-106012001D02*
X146271001Y-106389001D01*
X146271001Y-106389001D02*
X145324999Y-106389001D01*
X142621000Y-101600000D02*
X142240000Y-101600000D01*
X142265410Y-101600000D02*
X142240000Y-101600000D01*
X142240000Y-101600000D02*
X142240000Y-101854000D01*
X142240000Y-102324991D02*
X142331402Y-102324992D01*
X142240000Y-101600000D02*
X142240000Y-102324991D01*
X142331402Y-102324992D02*
X144075990Y-104069580D01*
X144075990Y-104069580D02*
X144075990Y-104070990D01*
X144075990Y-104070990D02*
X144329990Y-104324990D01*
X145394009Y-105389009D02*
X144329990Y-104324990D01*
X145648009Y-105389009D02*
X145394009Y-105389009D01*
X145923000Y-105664000D02*
X145648009Y-105389009D01*
X149421998Y-112649000D02*
X149675998Y-112395000D01*
X149421998Y-112649000D02*
X149770987Y-112300011D01*
X145197999Y-112427999D02*
X142931821Y-112427999D01*
X141704751Y-111200928D02*
X140579693Y-111200928D01*
X145574999Y-112050999D02*
X145197999Y-112427999D01*
X140579693Y-111200928D02*
X138878897Y-112901724D01*
X142931821Y-112427999D02*
X141704751Y-111200928D01*
X146271001Y-112050999D02*
X145574999Y-112050999D01*
X146648001Y-112427999D02*
X146271001Y-112050999D01*
X153766399Y-112300011D02*
X155576410Y-110490000D01*
X155576410Y-110490000D02*
X157480000Y-110490000D01*
X149770987Y-112300011D02*
X153766399Y-112300011D01*
X149167998Y-112903000D02*
X149770987Y-112300011D01*
X146648001Y-112427999D02*
X146648001Y-112485001D01*
X146648001Y-112485001D02*
X147066000Y-112903000D01*
X147066000Y-112903000D02*
X149167998Y-112903000D01*
D15*
G36*
X158652001Y-118012000D02*
G01*
X126971000Y-118012000D01*
X126971000Y-117288905D01*
X128598000Y-117288905D01*
X128598000Y-117407095D01*
X128621058Y-117523014D01*
X128666287Y-117632207D01*
X128731950Y-117730478D01*
X128815522Y-117814050D01*
X128913793Y-117879713D01*
X129022986Y-117924942D01*
X129138905Y-117948000D01*
X129257095Y-117948000D01*
X129373014Y-117924942D01*
X129482207Y-117879713D01*
X129580478Y-117814050D01*
X129664050Y-117730478D01*
X129729713Y-117632207D01*
X129774942Y-117523014D01*
X129798000Y-117407095D01*
X129798000Y-117288905D01*
X130298000Y-117288905D01*
X130298000Y-117407095D01*
X130321058Y-117523014D01*
X130366287Y-117632207D01*
X130431950Y-117730478D01*
X130515522Y-117814050D01*
X130613793Y-117879713D01*
X130722986Y-117924942D01*
X130838905Y-117948000D01*
X130957095Y-117948000D01*
X131073014Y-117924942D01*
X131182207Y-117879713D01*
X131280478Y-117814050D01*
X131364050Y-117730478D01*
X131429713Y-117632207D01*
X131474942Y-117523014D01*
X131498000Y-117407095D01*
X131498000Y-117288905D01*
X131474942Y-117172986D01*
X131429713Y-117063793D01*
X131364050Y-116965522D01*
X131280478Y-116881950D01*
X131182207Y-116816287D01*
X131073014Y-116771058D01*
X130957095Y-116748000D01*
X130838905Y-116748000D01*
X130722986Y-116771058D01*
X130613793Y-116816287D01*
X130515522Y-116881950D01*
X130431950Y-116965522D01*
X130366287Y-117063793D01*
X130321058Y-117172986D01*
X130298000Y-117288905D01*
X129798000Y-117288905D01*
X129774942Y-117172986D01*
X129729713Y-117063793D01*
X129664050Y-116965522D01*
X129580478Y-116881950D01*
X129482207Y-116816287D01*
X129373014Y-116771058D01*
X129257095Y-116748000D01*
X129138905Y-116748000D01*
X129022986Y-116771058D01*
X128913793Y-116816287D01*
X128815522Y-116881950D01*
X128731950Y-116965522D01*
X128666287Y-117063793D01*
X128621058Y-117172986D01*
X128598000Y-117288905D01*
X126971000Y-117288905D01*
X126971000Y-113284000D01*
X130763945Y-113284000D01*
X130766000Y-113304867D01*
X130766001Y-114533124D01*
X130763945Y-114554000D01*
X130772150Y-114637314D01*
X130793265Y-114706917D01*
X130796453Y-114717427D01*
X130835917Y-114791260D01*
X130889027Y-114855974D01*
X130905239Y-114869279D01*
X131700957Y-115664998D01*
X131986718Y-115950759D01*
X132000025Y-115966973D01*
X132064739Y-116020083D01*
X132105695Y-116041974D01*
X132138571Y-116059547D01*
X132218684Y-116083849D01*
X132227097Y-116084678D01*
X132281125Y-116089999D01*
X132281131Y-116089999D01*
X132301998Y-116092054D01*
X132301999Y-116092054D01*
X132322866Y-116089999D01*
X133743656Y-116089999D01*
X133726737Y-116106918D01*
X133600884Y-116295271D01*
X133514194Y-116504557D01*
X133470000Y-116726735D01*
X133470000Y-116953265D01*
X133514194Y-117175443D01*
X133600884Y-117384729D01*
X133726737Y-117573082D01*
X133886918Y-117733263D01*
X134075271Y-117859116D01*
X134284557Y-117945806D01*
X134506735Y-117990000D01*
X134733265Y-117990000D01*
X134955443Y-117945806D01*
X135164729Y-117859116D01*
X135353082Y-117733263D01*
X135513263Y-117573082D01*
X135639116Y-117384729D01*
X135725806Y-117175443D01*
X135770000Y-116953265D01*
X135770000Y-116726735D01*
X135725806Y-116504557D01*
X135639116Y-116295271D01*
X135513263Y-116106918D01*
X135496344Y-116089999D01*
X136283656Y-116089999D01*
X136266737Y-116106918D01*
X136140884Y-116295271D01*
X136054194Y-116504557D01*
X136010000Y-116726735D01*
X136010000Y-116953265D01*
X136054194Y-117175443D01*
X136140884Y-117384729D01*
X136266737Y-117573082D01*
X136426918Y-117733263D01*
X136615271Y-117859116D01*
X136824557Y-117945806D01*
X137046735Y-117990000D01*
X137273265Y-117990000D01*
X137495443Y-117945806D01*
X137704729Y-117859116D01*
X137893082Y-117733263D01*
X138053263Y-117573082D01*
X138179116Y-117384729D01*
X138265806Y-117175443D01*
X138310000Y-116953265D01*
X138310000Y-116726735D01*
X138265806Y-116504557D01*
X138179116Y-116295271D01*
X138053263Y-116106918D01*
X138036344Y-116089999D01*
X138823656Y-116089999D01*
X138806737Y-116106918D01*
X138680884Y-116295271D01*
X138594194Y-116504557D01*
X138550000Y-116726735D01*
X138550000Y-116953265D01*
X138594194Y-117175443D01*
X138680884Y-117384729D01*
X138806737Y-117573082D01*
X138966918Y-117733263D01*
X139155271Y-117859116D01*
X139364557Y-117945806D01*
X139586735Y-117990000D01*
X139813265Y-117990000D01*
X140035443Y-117945806D01*
X140244729Y-117859116D01*
X140433082Y-117733263D01*
X140593263Y-117573082D01*
X140719116Y-117384729D01*
X140805806Y-117175443D01*
X140850000Y-116953265D01*
X140850000Y-116726735D01*
X140805806Y-116504557D01*
X140719116Y-116295271D01*
X140593263Y-116106918D01*
X140576344Y-116089999D01*
X141363656Y-116089999D01*
X141346737Y-116106918D01*
X141220884Y-116295271D01*
X141134194Y-116504557D01*
X141090000Y-116726735D01*
X141090000Y-116953265D01*
X141134194Y-117175443D01*
X141220884Y-117384729D01*
X141346737Y-117573082D01*
X141506918Y-117733263D01*
X141695271Y-117859116D01*
X141904557Y-117945806D01*
X142126735Y-117990000D01*
X142353265Y-117990000D01*
X142575443Y-117945806D01*
X142784729Y-117859116D01*
X142973082Y-117733263D01*
X143133263Y-117573082D01*
X143259116Y-117384729D01*
X143345806Y-117175443D01*
X143390000Y-116953265D01*
X143390000Y-116726735D01*
X143345806Y-116504557D01*
X143259116Y-116295271D01*
X143133263Y-116106918D01*
X143116344Y-116089999D01*
X143903656Y-116089999D01*
X143886737Y-116106918D01*
X143760884Y-116295271D01*
X143674194Y-116504557D01*
X143630000Y-116726735D01*
X143630000Y-116953265D01*
X143674194Y-117175443D01*
X143760884Y-117384729D01*
X143886737Y-117573082D01*
X144046918Y-117733263D01*
X144235271Y-117859116D01*
X144444557Y-117945806D01*
X144666735Y-117990000D01*
X144893265Y-117990000D01*
X145115443Y-117945806D01*
X145324729Y-117859116D01*
X145513082Y-117733263D01*
X145673263Y-117573082D01*
X145799116Y-117384729D01*
X145885806Y-117175443D01*
X145930000Y-116953265D01*
X145930000Y-116726735D01*
X145885806Y-116504557D01*
X145799116Y-116295271D01*
X145673263Y-116106918D01*
X145656344Y-116089999D01*
X146443656Y-116089999D01*
X146426737Y-116106918D01*
X146300884Y-116295271D01*
X146214194Y-116504557D01*
X146170000Y-116726735D01*
X146170000Y-116953265D01*
X146214194Y-117175443D01*
X146300884Y-117384729D01*
X146426737Y-117573082D01*
X146586918Y-117733263D01*
X146775271Y-117859116D01*
X146984557Y-117945806D01*
X147206735Y-117990000D01*
X147433265Y-117990000D01*
X147655443Y-117945806D01*
X147864729Y-117859116D01*
X148053082Y-117733263D01*
X148213263Y-117573082D01*
X148339116Y-117384729D01*
X148425806Y-117175443D01*
X148470000Y-116953265D01*
X148470000Y-116726735D01*
X148425806Y-116504557D01*
X148339116Y-116295271D01*
X148213263Y-116106918D01*
X148196344Y-116089999D01*
X148983656Y-116089999D01*
X148966737Y-116106918D01*
X148840884Y-116295271D01*
X148754194Y-116504557D01*
X148710000Y-116726735D01*
X148710000Y-116953265D01*
X148754194Y-117175443D01*
X148840884Y-117384729D01*
X148966737Y-117573082D01*
X149126918Y-117733263D01*
X149315271Y-117859116D01*
X149524557Y-117945806D01*
X149746735Y-117990000D01*
X149973265Y-117990000D01*
X150195443Y-117945806D01*
X150404729Y-117859116D01*
X150593082Y-117733263D01*
X150753263Y-117573082D01*
X150879116Y-117384729D01*
X150965806Y-117175443D01*
X151010000Y-116953265D01*
X151010000Y-116726735D01*
X150965806Y-116504557D01*
X150879116Y-116295271D01*
X150753263Y-116106918D01*
X150736344Y-116089999D01*
X151048959Y-116089999D01*
X151343788Y-116384828D01*
X151294194Y-116504557D01*
X151250000Y-116726735D01*
X151250000Y-116953265D01*
X151294194Y-117175443D01*
X151380884Y-117384729D01*
X151506737Y-117573082D01*
X151666918Y-117733263D01*
X151855271Y-117859116D01*
X152064557Y-117945806D01*
X152286735Y-117990000D01*
X152513265Y-117990000D01*
X152735443Y-117945806D01*
X152944729Y-117859116D01*
X153133082Y-117733263D01*
X153293263Y-117573082D01*
X153419116Y-117384729D01*
X153505806Y-117175443D01*
X153517234Y-117117988D01*
X153824099Y-117117988D01*
X153899773Y-117330348D01*
X154015423Y-117523864D01*
X154166604Y-117691100D01*
X154347506Y-117825628D01*
X154551177Y-117922279D01*
X154662013Y-117955896D01*
X154840000Y-117910339D01*
X154840000Y-116940000D01*
X155040000Y-116940000D01*
X155040000Y-117910339D01*
X155217987Y-117955896D01*
X155328823Y-117922279D01*
X155532494Y-117825628D01*
X155713396Y-117691100D01*
X155864577Y-117523864D01*
X155980227Y-117330348D01*
X156055901Y-117117988D01*
X156010649Y-116940000D01*
X155040000Y-116940000D01*
X154840000Y-116940000D01*
X153869351Y-116940000D01*
X153824099Y-117117988D01*
X153517234Y-117117988D01*
X153550000Y-116953265D01*
X153550000Y-116726735D01*
X153517235Y-116562012D01*
X153824099Y-116562012D01*
X153869351Y-116740000D01*
X154840000Y-116740000D01*
X154840000Y-115769661D01*
X155040000Y-115769661D01*
X155040000Y-116740000D01*
X156010649Y-116740000D01*
X156055901Y-116562012D01*
X155980227Y-116349652D01*
X155864577Y-116156136D01*
X155713396Y-115988900D01*
X155532494Y-115854372D01*
X155328823Y-115757721D01*
X155217987Y-115724104D01*
X155040000Y-115769661D01*
X154840000Y-115769661D01*
X154662013Y-115724104D01*
X154551177Y-115757721D01*
X154347506Y-115854372D01*
X154166604Y-115988900D01*
X154015423Y-116156136D01*
X153899773Y-116349652D01*
X153824099Y-116562012D01*
X153517235Y-116562012D01*
X153505806Y-116504557D01*
X153419116Y-116295271D01*
X153293263Y-116106918D01*
X153133082Y-115946737D01*
X152944729Y-115820884D01*
X152735443Y-115734194D01*
X152513265Y-115690000D01*
X152286735Y-115690000D01*
X152064557Y-115734194D01*
X151944828Y-115783788D01*
X151540282Y-115379242D01*
X151526973Y-115363025D01*
X151462259Y-115309915D01*
X151388426Y-115270451D01*
X151308313Y-115246149D01*
X151245873Y-115239999D01*
X151245866Y-115239999D01*
X151224999Y-115237944D01*
X151204132Y-115239999D01*
X132478040Y-115239999D01*
X132348015Y-115109974D01*
X131616000Y-114377960D01*
X131616000Y-113850056D01*
X132015000Y-113850056D01*
X132015000Y-113987944D01*
X132041901Y-114123182D01*
X132094668Y-114250574D01*
X132171274Y-114365224D01*
X132268776Y-114462726D01*
X132383426Y-114539332D01*
X132510818Y-114592099D01*
X132646056Y-114619000D01*
X132783944Y-114619000D01*
X132808980Y-114614020D01*
X133288721Y-115093762D01*
X133302026Y-115109974D01*
X133366740Y-115163084D01*
X133414855Y-115188801D01*
X133440572Y-115202548D01*
X133520685Y-115226850D01*
X133528327Y-115227603D01*
X133583126Y-115233000D01*
X133583133Y-115233000D01*
X133604000Y-115235055D01*
X133624867Y-115233000D01*
X138453812Y-115233000D01*
X138474679Y-115235055D01*
X138495546Y-115233000D01*
X138495553Y-115233000D01*
X138557993Y-115226850D01*
X138638106Y-115202548D01*
X138711939Y-115163084D01*
X138776653Y-115109974D01*
X138789962Y-115093757D01*
X141262771Y-112620949D01*
X141287806Y-112625929D01*
X141425694Y-112625929D01*
X141560932Y-112599028D01*
X141688324Y-112546261D01*
X141802974Y-112469655D01*
X141900476Y-112372153D01*
X141977082Y-112257503D01*
X142029849Y-112130111D01*
X142030354Y-112127572D01*
X142616542Y-112713761D01*
X142629847Y-112729973D01*
X142694561Y-112783083D01*
X142741315Y-112808073D01*
X142768393Y-112822547D01*
X142848506Y-112846849D01*
X142855492Y-112847537D01*
X142910947Y-112852999D01*
X142910954Y-112852999D01*
X142931821Y-112855054D01*
X142952688Y-112852999D01*
X145177132Y-112852999D01*
X145197999Y-112855054D01*
X145218866Y-112852999D01*
X145218873Y-112852999D01*
X145224492Y-112852446D01*
X145249901Y-112980182D01*
X145302668Y-113107574D01*
X145379274Y-113222224D01*
X145476776Y-113319726D01*
X145556579Y-113373048D01*
X145567917Y-113394260D01*
X145621027Y-113458974D01*
X145637239Y-113472279D01*
X146623719Y-114458760D01*
X146637026Y-114474974D01*
X146701740Y-114528084D01*
X146775573Y-114567548D01*
X146831383Y-114584478D01*
X146855685Y-114591850D01*
X146863327Y-114592603D01*
X146918126Y-114598000D01*
X146918133Y-114598000D01*
X146939000Y-114600055D01*
X146959867Y-114598000D01*
X155736960Y-114598000D01*
X156827509Y-115688549D01*
X156630000Y-115688549D01*
X156571190Y-115694341D01*
X156514640Y-115711496D01*
X156462523Y-115739353D01*
X156416842Y-115776842D01*
X156379353Y-115822523D01*
X156351496Y-115874640D01*
X156334341Y-115931190D01*
X156328549Y-115990000D01*
X156328549Y-117690000D01*
X156334341Y-117748810D01*
X156351496Y-117805360D01*
X156379353Y-117857477D01*
X156416842Y-117903158D01*
X156462523Y-117940647D01*
X156514640Y-117968504D01*
X156571190Y-117985659D01*
X156630000Y-117991451D01*
X158330000Y-117991451D01*
X158388810Y-117985659D01*
X158445360Y-117968504D01*
X158497477Y-117940647D01*
X158543158Y-117903158D01*
X158580647Y-117857477D01*
X158608504Y-117805360D01*
X158625659Y-117748810D01*
X158631451Y-117690000D01*
X158631451Y-115990000D01*
X158625659Y-115931190D01*
X158608504Y-115874640D01*
X158580647Y-115822523D01*
X158543158Y-115776842D01*
X158497477Y-115739353D01*
X158445360Y-115711496D01*
X158388810Y-115694341D01*
X158330000Y-115688549D01*
X157901988Y-115688549D01*
X157898850Y-115656686D01*
X157874548Y-115576573D01*
X157835084Y-115502740D01*
X157781974Y-115438026D01*
X157765758Y-115424718D01*
X156228284Y-113887244D01*
X156214974Y-113871026D01*
X156150260Y-113817916D01*
X156076427Y-113778452D01*
X155996314Y-113754150D01*
X155933874Y-113748000D01*
X155933867Y-113748000D01*
X155913000Y-113745945D01*
X155892133Y-113748000D01*
X147115041Y-113748000D01*
X146515808Y-113148767D01*
X146543332Y-113107574D01*
X146580295Y-113018336D01*
X146750721Y-113188762D01*
X146764026Y-113204974D01*
X146780238Y-113218279D01*
X146780239Y-113218280D01*
X146785045Y-113222224D01*
X146828740Y-113258084D01*
X146876855Y-113283801D01*
X146902572Y-113297548D01*
X146982685Y-113321850D01*
X146990327Y-113322603D01*
X147045126Y-113328000D01*
X147045133Y-113328000D01*
X147066000Y-113330055D01*
X147086867Y-113328000D01*
X149147131Y-113328000D01*
X149167998Y-113330055D01*
X149188865Y-113328000D01*
X149188872Y-113328000D01*
X149251312Y-113321850D01*
X149297012Y-113307987D01*
X156364104Y-113307987D01*
X156397721Y-113418823D01*
X156494372Y-113622494D01*
X156628900Y-113803396D01*
X156796136Y-113954577D01*
X156989652Y-114070227D01*
X157202012Y-114145901D01*
X157380000Y-114100649D01*
X157380000Y-113130000D01*
X157580000Y-113130000D01*
X157580000Y-114100649D01*
X157757988Y-114145901D01*
X157970348Y-114070227D01*
X158163864Y-113954577D01*
X158331100Y-113803396D01*
X158465628Y-113622494D01*
X158562279Y-113418823D01*
X158595896Y-113307987D01*
X158550339Y-113130000D01*
X157580000Y-113130000D01*
X157380000Y-113130000D01*
X156409661Y-113130000D01*
X156364104Y-113307987D01*
X149297012Y-113307987D01*
X149331425Y-113297548D01*
X149405258Y-113258084D01*
X149469972Y-113204974D01*
X149483281Y-113188757D01*
X149920025Y-112752013D01*
X156364104Y-112752013D01*
X156409661Y-112930000D01*
X157380000Y-112930000D01*
X157380000Y-111959351D01*
X157580000Y-111959351D01*
X157580000Y-112930000D01*
X158550339Y-112930000D01*
X158595896Y-112752013D01*
X158562279Y-112641177D01*
X158465628Y-112437506D01*
X158331100Y-112256604D01*
X158163864Y-112105423D01*
X157970348Y-111989773D01*
X157757988Y-111914099D01*
X157580000Y-111959351D01*
X157380000Y-111959351D01*
X157202012Y-111914099D01*
X156989652Y-111989773D01*
X156796136Y-112105423D01*
X156628900Y-112256604D01*
X156494372Y-112437506D01*
X156397721Y-112641177D01*
X156364104Y-112752013D01*
X149920025Y-112752013D01*
X149947028Y-112725011D01*
X153745532Y-112725011D01*
X153766399Y-112727066D01*
X153787266Y-112725011D01*
X153787273Y-112725011D01*
X153849713Y-112718861D01*
X153929826Y-112694559D01*
X154003659Y-112655095D01*
X154068373Y-112601985D01*
X154081682Y-112585768D01*
X155752451Y-110915000D01*
X156411290Y-110915000D01*
X156460884Y-111034729D01*
X156586737Y-111223082D01*
X156746918Y-111383263D01*
X156935271Y-111509116D01*
X157144557Y-111595806D01*
X157366735Y-111640000D01*
X157593265Y-111640000D01*
X157815443Y-111595806D01*
X158024729Y-111509116D01*
X158213082Y-111383263D01*
X158373263Y-111223082D01*
X158499116Y-111034729D01*
X158585806Y-110825443D01*
X158630000Y-110603265D01*
X158630000Y-110376735D01*
X158585806Y-110154557D01*
X158499116Y-109945271D01*
X158373263Y-109756918D01*
X158213082Y-109596737D01*
X158024729Y-109470884D01*
X157815443Y-109384194D01*
X157593265Y-109340000D01*
X157366735Y-109340000D01*
X157144557Y-109384194D01*
X156935271Y-109470884D01*
X156746918Y-109596737D01*
X156586737Y-109756918D01*
X156460884Y-109945271D01*
X156411290Y-110065000D01*
X155966041Y-110065000D01*
X157024828Y-109006212D01*
X157144557Y-109055806D01*
X157366735Y-109100000D01*
X157593265Y-109100000D01*
X157815443Y-109055806D01*
X158024729Y-108969116D01*
X158213082Y-108843263D01*
X158373263Y-108683082D01*
X158499116Y-108494729D01*
X158585806Y-108285443D01*
X158630000Y-108063265D01*
X158630000Y-107836735D01*
X158585806Y-107614557D01*
X158499116Y-107405271D01*
X158373263Y-107216918D01*
X158213082Y-107056737D01*
X158024729Y-106930884D01*
X157815443Y-106844194D01*
X157593265Y-106800000D01*
X157366735Y-106800000D01*
X157144557Y-106844194D01*
X156935271Y-106930884D01*
X156746918Y-107056737D01*
X156586737Y-107216918D01*
X156460884Y-107405271D01*
X156374194Y-107614557D01*
X156330000Y-107836735D01*
X156330000Y-108063265D01*
X156374194Y-108285443D01*
X156423788Y-108405172D01*
X153403959Y-111425001D01*
X149605453Y-111425001D01*
X149584586Y-111422946D01*
X149563719Y-111425001D01*
X149563713Y-111425001D01*
X149509685Y-111430322D01*
X149501272Y-111431151D01*
X149480139Y-111437562D01*
X149421160Y-111455453D01*
X149347327Y-111494917D01*
X149282613Y-111548027D01*
X149269308Y-111564239D01*
X148805558Y-112027990D01*
X147554031Y-112027990D01*
X146841272Y-111315232D01*
X146827963Y-111299015D01*
X146763249Y-111245905D01*
X146689416Y-111206441D01*
X146609303Y-111182139D01*
X146546863Y-111175989D01*
X146546856Y-111175989D01*
X146525989Y-111173934D01*
X146505122Y-111175989D01*
X145965051Y-111175989D01*
X146895706Y-110245335D01*
X146895706Y-110461965D01*
X146892945Y-110490000D01*
X146901150Y-110573314D01*
X146925453Y-110653427D01*
X146964917Y-110727259D01*
X147018026Y-110791974D01*
X147034240Y-110805280D01*
X147201119Y-110972159D01*
X147180301Y-111022418D01*
X147153400Y-111157656D01*
X147153400Y-111295544D01*
X147180301Y-111430782D01*
X147233068Y-111558174D01*
X147309674Y-111672824D01*
X147407176Y-111770326D01*
X147521826Y-111846932D01*
X147649218Y-111899699D01*
X147784456Y-111926600D01*
X147922344Y-111926600D01*
X148057582Y-111899699D01*
X148184974Y-111846932D01*
X148299624Y-111770326D01*
X148397126Y-111672824D01*
X148473732Y-111558174D01*
X148526499Y-111430782D01*
X148553400Y-111295544D01*
X148553400Y-111157656D01*
X148526499Y-111022418D01*
X148473732Y-110895026D01*
X148397126Y-110780376D01*
X148299624Y-110682874D01*
X148184974Y-110606268D01*
X148057582Y-110553501D01*
X147966404Y-110535364D01*
X147745705Y-110314665D01*
X147745705Y-110031745D01*
X152480715Y-105296735D01*
X156330000Y-105296735D01*
X156330000Y-105523265D01*
X156374194Y-105745443D01*
X156460884Y-105954729D01*
X156586737Y-106143082D01*
X156746918Y-106303263D01*
X156935271Y-106429116D01*
X157144557Y-106515806D01*
X157366735Y-106560000D01*
X157593265Y-106560000D01*
X157815443Y-106515806D01*
X158024729Y-106429116D01*
X158213082Y-106303263D01*
X158373263Y-106143082D01*
X158499116Y-105954729D01*
X158585806Y-105745443D01*
X158630000Y-105523265D01*
X158630000Y-105296735D01*
X158585806Y-105074557D01*
X158499116Y-104865271D01*
X158373263Y-104676918D01*
X158213082Y-104516737D01*
X158024729Y-104390884D01*
X157815443Y-104304194D01*
X157593265Y-104260000D01*
X157366735Y-104260000D01*
X157144557Y-104304194D01*
X156935271Y-104390884D01*
X156746918Y-104516737D01*
X156586737Y-104676918D01*
X156460884Y-104865271D01*
X156374194Y-105074557D01*
X156330000Y-105296735D01*
X152480715Y-105296735D01*
X154577449Y-103200001D01*
X156538132Y-103200001D01*
X156558999Y-103202056D01*
X156579866Y-103200001D01*
X156579873Y-103200001D01*
X156642313Y-103193851D01*
X156722426Y-103169549D01*
X156796259Y-103130085D01*
X156860973Y-103076975D01*
X156874282Y-103060758D01*
X157183589Y-102751451D01*
X158330000Y-102751451D01*
X158388810Y-102745659D01*
X158445360Y-102728504D01*
X158497477Y-102700647D01*
X158543158Y-102663158D01*
X158580647Y-102617477D01*
X158608504Y-102565360D01*
X158625659Y-102508810D01*
X158631451Y-102450000D01*
X158631451Y-100750000D01*
X158625659Y-100691190D01*
X158608504Y-100634640D01*
X158580647Y-100582523D01*
X158543158Y-100536842D01*
X158497477Y-100499353D01*
X158445360Y-100471496D01*
X158388810Y-100454341D01*
X158330000Y-100448549D01*
X156630000Y-100448549D01*
X156571190Y-100454341D01*
X156514640Y-100471496D01*
X156462523Y-100499353D01*
X156416842Y-100536842D01*
X156379353Y-100582523D01*
X156351496Y-100634640D01*
X156334341Y-100691190D01*
X156328549Y-100750000D01*
X156328549Y-102350001D01*
X155816344Y-102350001D01*
X155833263Y-102333082D01*
X155959116Y-102144729D01*
X156045806Y-101935443D01*
X156090000Y-101713265D01*
X156090000Y-101486735D01*
X156045806Y-101264557D01*
X155959116Y-101055271D01*
X155833263Y-100866918D01*
X155673082Y-100706737D01*
X155484729Y-100580884D01*
X155275443Y-100494194D01*
X155053265Y-100450000D01*
X154826735Y-100450000D01*
X154604557Y-100494194D01*
X154395271Y-100580884D01*
X154206918Y-100706737D01*
X154046737Y-100866918D01*
X153920884Y-101055271D01*
X153834194Y-101264557D01*
X153790000Y-101486735D01*
X153790000Y-101713265D01*
X153834194Y-101935443D01*
X153883788Y-102055171D01*
X152825000Y-103113959D01*
X152825000Y-102668710D01*
X152944729Y-102619116D01*
X153133082Y-102493263D01*
X153293263Y-102333082D01*
X153419116Y-102144729D01*
X153505806Y-101935443D01*
X153550000Y-101713265D01*
X153550000Y-101486735D01*
X153505806Y-101264557D01*
X153419116Y-101055271D01*
X153293263Y-100866918D01*
X153133082Y-100706737D01*
X152944729Y-100580884D01*
X152735443Y-100494194D01*
X152513265Y-100450000D01*
X152286735Y-100450000D01*
X152064557Y-100494194D01*
X151855271Y-100580884D01*
X151666918Y-100706737D01*
X151506737Y-100866918D01*
X151380884Y-101055271D01*
X151294194Y-101264557D01*
X151250000Y-101486735D01*
X151250000Y-101713265D01*
X151294194Y-101935443D01*
X151380884Y-102144729D01*
X151506737Y-102333082D01*
X151666918Y-102493263D01*
X151855271Y-102619116D01*
X151975000Y-102668710D01*
X151975000Y-102822954D01*
X151975001Y-102822963D01*
X151975000Y-103225961D01*
X151428000Y-103772961D01*
X151428000Y-102763866D01*
X151430055Y-102742999D01*
X151428000Y-102722132D01*
X151428000Y-102722126D01*
X151421850Y-102659686D01*
X151397548Y-102579573D01*
X151358084Y-102505740D01*
X151304974Y-102441026D01*
X151288763Y-102427722D01*
X150916212Y-102055172D01*
X150965806Y-101935443D01*
X151010000Y-101713265D01*
X151010000Y-101486735D01*
X150965806Y-101264557D01*
X150879116Y-101055271D01*
X150753263Y-100866918D01*
X150593082Y-100706737D01*
X150404729Y-100580884D01*
X150195443Y-100494194D01*
X149973265Y-100450000D01*
X149746735Y-100450000D01*
X149524557Y-100494194D01*
X149315271Y-100580884D01*
X149126918Y-100706737D01*
X148966737Y-100866918D01*
X148840884Y-101055271D01*
X148754194Y-101264557D01*
X148710000Y-101486735D01*
X148710000Y-101713265D01*
X148754194Y-101935443D01*
X148840884Y-102144729D01*
X148966737Y-102333082D01*
X149126918Y-102493263D01*
X149315271Y-102619116D01*
X149524557Y-102705806D01*
X149746735Y-102750000D01*
X149973265Y-102750000D01*
X150195443Y-102705806D01*
X150315172Y-102656212D01*
X150578000Y-102919041D01*
X150578001Y-103986550D01*
X145440093Y-109124459D01*
X145365574Y-109074668D01*
X145238182Y-109021901D01*
X145102944Y-108995000D01*
X144965056Y-108995000D01*
X144829818Y-109021901D01*
X144702426Y-109074668D01*
X144587776Y-109151274D01*
X144508724Y-109230327D01*
X144481569Y-109203172D01*
X144366919Y-109126566D01*
X144239527Y-109073799D01*
X144104289Y-109046898D01*
X143966401Y-109046898D01*
X143831163Y-109073799D01*
X143703771Y-109126566D01*
X143589121Y-109203172D01*
X143491619Y-109300674D01*
X143415013Y-109415324D01*
X143362246Y-109542716D01*
X143335345Y-109677954D01*
X143335345Y-109815842D01*
X143362246Y-109951080D01*
X143415013Y-110078472D01*
X143491619Y-110193122D01*
X143589121Y-110290624D01*
X143703771Y-110367230D01*
X143831163Y-110419997D01*
X143868620Y-110427448D01*
X143820346Y-110459703D01*
X143722844Y-110557205D01*
X143646238Y-110671855D01*
X143593471Y-110799247D01*
X143566570Y-110934485D01*
X143566570Y-111072373D01*
X143593471Y-111207611D01*
X143646238Y-111335003D01*
X143722844Y-111449653D01*
X143820346Y-111547155D01*
X143829077Y-111552989D01*
X143294261Y-111552989D01*
X141953132Y-110211859D01*
X141939822Y-110195641D01*
X141875108Y-110142531D01*
X141801275Y-110103067D01*
X141721162Y-110078765D01*
X141658722Y-110072615D01*
X141658715Y-110072615D01*
X141637848Y-110070560D01*
X141616982Y-110072615D01*
X140134309Y-110072615D01*
X140120128Y-110051391D01*
X140022626Y-109953889D01*
X139907976Y-109877283D01*
X139780584Y-109824516D01*
X139645346Y-109797615D01*
X139507458Y-109797615D01*
X139372220Y-109824516D01*
X139244828Y-109877283D01*
X139130178Y-109953889D01*
X139032676Y-110051391D01*
X138956070Y-110166041D01*
X138903303Y-110293433D01*
X138876402Y-110428671D01*
X138876402Y-110566559D01*
X138903303Y-110701797D01*
X138956070Y-110829189D01*
X139032676Y-110943839D01*
X139130178Y-111041341D01*
X139244828Y-111117947D01*
X139372220Y-111170714D01*
X139507458Y-111197615D01*
X139645346Y-111197615D01*
X139780584Y-111170714D01*
X139907976Y-111117947D01*
X140022626Y-111041341D01*
X140120128Y-110943839D01*
X140134309Y-110922615D01*
X140256965Y-110922615D01*
X139058668Y-112120913D01*
X139015182Y-112102901D01*
X138879944Y-112076000D01*
X138742056Y-112076000D01*
X138606818Y-112102901D01*
X138479426Y-112155668D01*
X138364776Y-112232274D01*
X138267274Y-112329776D01*
X138190668Y-112444426D01*
X138137901Y-112571818D01*
X138111000Y-112707056D01*
X138111000Y-112844944D01*
X138137901Y-112980182D01*
X138190668Y-113107574D01*
X138267274Y-113222224D01*
X138364776Y-113319726D01*
X138479426Y-113396332D01*
X138606818Y-113449099D01*
X138742056Y-113476000D01*
X138879944Y-113476000D01*
X139015182Y-113449099D01*
X139142574Y-113396332D01*
X139257224Y-113319726D01*
X139354726Y-113222224D01*
X139431332Y-113107574D01*
X139484099Y-112980182D01*
X139504614Y-112877047D01*
X140700435Y-111681227D01*
X140683651Y-111721747D01*
X140656750Y-111856985D01*
X140656750Y-111994873D01*
X140661730Y-112019908D01*
X138298639Y-114383000D01*
X133780041Y-114383000D01*
X133410020Y-114012980D01*
X133415000Y-113987944D01*
X133415000Y-113850056D01*
X133388099Y-113714818D01*
X133335332Y-113587426D01*
X133258726Y-113472776D01*
X133161224Y-113375274D01*
X133046574Y-113298668D01*
X132919182Y-113245901D01*
X132783944Y-113219000D01*
X132646056Y-113219000D01*
X132510818Y-113245901D01*
X132383426Y-113298668D01*
X132268776Y-113375274D01*
X132171274Y-113472776D01*
X132094668Y-113587426D01*
X132041901Y-113714818D01*
X132015000Y-113850056D01*
X131616000Y-113850056D01*
X131616000Y-113460040D01*
X132365762Y-112710279D01*
X132381974Y-112696974D01*
X132435084Y-112632260D01*
X132460801Y-112584145D01*
X132474548Y-112558428D01*
X132498850Y-112478315D01*
X132502077Y-112445547D01*
X132505000Y-112415874D01*
X132505000Y-112415867D01*
X132507055Y-112395000D01*
X132505000Y-112374133D01*
X132505000Y-107745907D01*
X132526224Y-107731726D01*
X132623726Y-107634224D01*
X132700332Y-107519574D01*
X132753099Y-107392182D01*
X132780000Y-107256944D01*
X132780000Y-107119056D01*
X132753099Y-106983818D01*
X132700332Y-106856426D01*
X132623726Y-106741776D01*
X132526224Y-106644274D01*
X132411574Y-106567668D01*
X132284182Y-106514901D01*
X132148944Y-106488000D01*
X132011056Y-106488000D01*
X131875818Y-106514901D01*
X131748426Y-106567668D01*
X131633776Y-106644274D01*
X131536274Y-106741776D01*
X131459668Y-106856426D01*
X131406901Y-106983818D01*
X131380000Y-107119056D01*
X131380000Y-107256944D01*
X131406901Y-107392182D01*
X131459668Y-107519574D01*
X131536274Y-107634224D01*
X131633776Y-107731726D01*
X131655000Y-107745907D01*
X131655001Y-112218958D01*
X130905243Y-112968717D01*
X130889026Y-112982026D01*
X130835916Y-113046741D01*
X130796452Y-113120574D01*
X130772150Y-113200687D01*
X130766000Y-113263127D01*
X130766000Y-113263133D01*
X130763945Y-113284000D01*
X126971000Y-113284000D01*
X126971000Y-112840819D01*
X127541602Y-112840819D01*
X127629874Y-112994335D01*
X127825958Y-113086540D01*
X128036263Y-113138719D01*
X128252706Y-113148867D01*
X128466970Y-113116593D01*
X128670821Y-113043139D01*
X128762126Y-112994335D01*
X128850398Y-112840819D01*
X128196000Y-112186421D01*
X127541602Y-112840819D01*
X126971000Y-112840819D01*
X126971000Y-112101706D01*
X127092133Y-112101706D01*
X127124407Y-112315970D01*
X127197861Y-112519821D01*
X127246665Y-112611126D01*
X127400181Y-112699398D01*
X128054579Y-112045000D01*
X128337421Y-112045000D01*
X128991819Y-112699398D01*
X129145335Y-112611126D01*
X129237540Y-112415042D01*
X129289719Y-112204737D01*
X129299867Y-111988294D01*
X129267593Y-111774030D01*
X129194139Y-111570179D01*
X129145335Y-111478874D01*
X128991819Y-111390602D01*
X128337421Y-112045000D01*
X128054579Y-112045000D01*
X127400181Y-111390602D01*
X127246665Y-111478874D01*
X127154460Y-111674958D01*
X127102281Y-111885263D01*
X127092133Y-112101706D01*
X126971000Y-112101706D01*
X126971000Y-111249181D01*
X127541602Y-111249181D01*
X128196000Y-111903579D01*
X128850398Y-111249181D01*
X128799640Y-111160905D01*
X129746000Y-111160905D01*
X129746000Y-111279095D01*
X129769058Y-111395014D01*
X129814287Y-111504207D01*
X129879950Y-111602478D01*
X129963522Y-111686050D01*
X130061793Y-111751713D01*
X130170986Y-111796942D01*
X130286905Y-111820000D01*
X130405095Y-111820000D01*
X130521014Y-111796942D01*
X130630207Y-111751713D01*
X130728478Y-111686050D01*
X130812050Y-111602478D01*
X130877713Y-111504207D01*
X130922942Y-111395014D01*
X130946000Y-111279095D01*
X130946000Y-111160905D01*
X130922942Y-111044986D01*
X130877713Y-110935793D01*
X130812050Y-110837522D01*
X130728478Y-110753950D01*
X130630207Y-110688287D01*
X130521014Y-110643058D01*
X130405095Y-110620000D01*
X130286905Y-110620000D01*
X130170986Y-110643058D01*
X130061793Y-110688287D01*
X129963522Y-110753950D01*
X129879950Y-110837522D01*
X129814287Y-110935793D01*
X129769058Y-111044986D01*
X129746000Y-111160905D01*
X128799640Y-111160905D01*
X128762126Y-111095665D01*
X128566042Y-111003460D01*
X128355737Y-110951281D01*
X128139294Y-110941133D01*
X127925030Y-110973407D01*
X127721179Y-111046861D01*
X127629874Y-111095665D01*
X127541602Y-111249181D01*
X126971000Y-111249181D01*
X126971000Y-107190819D01*
X127541602Y-107190819D01*
X127629874Y-107344335D01*
X127825958Y-107436540D01*
X128036263Y-107488719D01*
X128252706Y-107498867D01*
X128466970Y-107466593D01*
X128670821Y-107393139D01*
X128762126Y-107344335D01*
X128850398Y-107190819D01*
X128820484Y-107160905D01*
X129746000Y-107160905D01*
X129746000Y-107279095D01*
X129769058Y-107395014D01*
X129814287Y-107504207D01*
X129879950Y-107602478D01*
X129963522Y-107686050D01*
X130061793Y-107751713D01*
X130170986Y-107796942D01*
X130286905Y-107820000D01*
X130405095Y-107820000D01*
X130521014Y-107796942D01*
X130630207Y-107751713D01*
X130728478Y-107686050D01*
X130812050Y-107602478D01*
X130877713Y-107504207D01*
X130922942Y-107395014D01*
X130946000Y-107279095D01*
X130946000Y-107160905D01*
X130922942Y-107044986D01*
X130877713Y-106935793D01*
X130812050Y-106837522D01*
X130728478Y-106753950D01*
X130630207Y-106688287D01*
X130521014Y-106643058D01*
X130405095Y-106620000D01*
X130286905Y-106620000D01*
X130170986Y-106643058D01*
X130061793Y-106688287D01*
X129963522Y-106753950D01*
X129879950Y-106837522D01*
X129814287Y-106935793D01*
X129769058Y-107044986D01*
X129746000Y-107160905D01*
X128820484Y-107160905D01*
X128196000Y-106536421D01*
X127541602Y-107190819D01*
X126971000Y-107190819D01*
X126971000Y-106451706D01*
X127092133Y-106451706D01*
X127124407Y-106665970D01*
X127197861Y-106869821D01*
X127246665Y-106961126D01*
X127400181Y-107049398D01*
X128054579Y-106395000D01*
X128337421Y-106395000D01*
X128991819Y-107049398D01*
X129145335Y-106961126D01*
X129237540Y-106765042D01*
X129289719Y-106554737D01*
X129299867Y-106338294D01*
X129267593Y-106124030D01*
X129194139Y-105920179D01*
X129145335Y-105828874D01*
X128991819Y-105740602D01*
X128337421Y-106395000D01*
X128054579Y-106395000D01*
X127400181Y-105740602D01*
X127246665Y-105828874D01*
X127154460Y-106024958D01*
X127102281Y-106235263D01*
X127092133Y-106451706D01*
X126971000Y-106451706D01*
X126971000Y-105599181D01*
X127541602Y-105599181D01*
X128196000Y-106253579D01*
X128850398Y-105599181D01*
X128762126Y-105445665D01*
X128566042Y-105353460D01*
X128355737Y-105301281D01*
X128139294Y-105291133D01*
X127925030Y-105323407D01*
X127721179Y-105396861D01*
X127629874Y-105445665D01*
X127541602Y-105599181D01*
X126971000Y-105599181D01*
X126971000Y-104452056D01*
X132015000Y-104452056D01*
X132015000Y-104589944D01*
X132041901Y-104725182D01*
X132094668Y-104852574D01*
X132171274Y-104967224D01*
X132268776Y-105064726D01*
X132383426Y-105141332D01*
X132510818Y-105194099D01*
X132646056Y-105221000D01*
X132783944Y-105221000D01*
X132919182Y-105194099D01*
X133046574Y-105141332D01*
X133161224Y-105064726D01*
X133258726Y-104967224D01*
X133335332Y-104852574D01*
X133388099Y-104725182D01*
X133415000Y-104589944D01*
X133415000Y-104452056D01*
X133388099Y-104316818D01*
X133335332Y-104189426D01*
X133258726Y-104074776D01*
X133227653Y-104043703D01*
X133497198Y-103774158D01*
X141146118Y-103774158D01*
X142831001Y-105459042D01*
X142831000Y-107900093D01*
X142809776Y-107914274D01*
X142712274Y-108011776D01*
X142635668Y-108126426D01*
X142582901Y-108253818D01*
X142556000Y-108389056D01*
X142556000Y-108526944D01*
X142582901Y-108662182D01*
X142635668Y-108789574D01*
X142712274Y-108904224D01*
X142809776Y-109001726D01*
X142924426Y-109078332D01*
X143051818Y-109131099D01*
X143187056Y-109158000D01*
X143324944Y-109158000D01*
X143460182Y-109131099D01*
X143587574Y-109078332D01*
X143702224Y-109001726D01*
X143799726Y-108904224D01*
X143876332Y-108789574D01*
X143929099Y-108662182D01*
X143956000Y-108526944D01*
X143956000Y-108389056D01*
X143929099Y-108253818D01*
X143876332Y-108126426D01*
X143799726Y-108011776D01*
X143702224Y-107914274D01*
X143681000Y-107900093D01*
X143681000Y-105303867D01*
X143683055Y-105283000D01*
X143681000Y-105262133D01*
X143681000Y-105262126D01*
X143674850Y-105199686D01*
X143674850Y-105199685D01*
X143650548Y-105119572D01*
X143633156Y-105087035D01*
X143611084Y-105045740D01*
X143557974Y-104981026D01*
X143541762Y-104967721D01*
X141637442Y-103063402D01*
X141624132Y-103047184D01*
X141559418Y-102994074D01*
X141485585Y-102954610D01*
X141405472Y-102930308D01*
X141343032Y-102924158D01*
X141343025Y-102924158D01*
X141322158Y-102922103D01*
X141301291Y-102924158D01*
X133342025Y-102924158D01*
X133321158Y-102922103D01*
X133300291Y-102924158D01*
X133300284Y-102924158D01*
X133237844Y-102930308D01*
X133157731Y-102954610D01*
X133083898Y-102994074D01*
X133019184Y-103047184D01*
X133005879Y-103063396D01*
X132429239Y-103640036D01*
X132413027Y-103653341D01*
X132399722Y-103669553D01*
X132399720Y-103669555D01*
X132359917Y-103718055D01*
X132320453Y-103791888D01*
X132296150Y-103872001D01*
X132287945Y-103955315D01*
X132288791Y-103963901D01*
X132268776Y-103977274D01*
X132171274Y-104074776D01*
X132094668Y-104189426D01*
X132041901Y-104316818D01*
X132015000Y-104452056D01*
X126971000Y-104452056D01*
X126971000Y-101032905D01*
X128598000Y-101032905D01*
X128598000Y-101151095D01*
X128621058Y-101267014D01*
X128666287Y-101376207D01*
X128731950Y-101474478D01*
X128815522Y-101558050D01*
X128913793Y-101623713D01*
X129022986Y-101668942D01*
X129138905Y-101692000D01*
X129257095Y-101692000D01*
X129373014Y-101668942D01*
X129482207Y-101623713D01*
X129580478Y-101558050D01*
X129664050Y-101474478D01*
X129729713Y-101376207D01*
X129774942Y-101267014D01*
X129798000Y-101151095D01*
X129798000Y-101032905D01*
X130298000Y-101032905D01*
X130298000Y-101151095D01*
X130321058Y-101267014D01*
X130366287Y-101376207D01*
X130431950Y-101474478D01*
X130515522Y-101558050D01*
X130613793Y-101623713D01*
X130722986Y-101668942D01*
X130838905Y-101692000D01*
X130957095Y-101692000D01*
X131073014Y-101668942D01*
X131182207Y-101623713D01*
X131280478Y-101558050D01*
X131351793Y-101486735D01*
X133470000Y-101486735D01*
X133470000Y-101713265D01*
X133514194Y-101935443D01*
X133600884Y-102144729D01*
X133726737Y-102333082D01*
X133886918Y-102493263D01*
X134075271Y-102619116D01*
X134284557Y-102705806D01*
X134506735Y-102750000D01*
X134733265Y-102750000D01*
X134955443Y-102705806D01*
X135164729Y-102619116D01*
X135353082Y-102493263D01*
X135513263Y-102333082D01*
X135639116Y-102144729D01*
X135725806Y-101935443D01*
X135770000Y-101713265D01*
X135770000Y-101486735D01*
X136010000Y-101486735D01*
X136010000Y-101713265D01*
X136054194Y-101935443D01*
X136140884Y-102144729D01*
X136266737Y-102333082D01*
X136426918Y-102493263D01*
X136615271Y-102619116D01*
X136824557Y-102705806D01*
X137046735Y-102750000D01*
X137273265Y-102750000D01*
X137495443Y-102705806D01*
X137704729Y-102619116D01*
X137893082Y-102493263D01*
X138053263Y-102333082D01*
X138179116Y-102144729D01*
X138265806Y-101935443D01*
X138310000Y-101713265D01*
X138310000Y-101486735D01*
X138550000Y-101486735D01*
X138550000Y-101713265D01*
X138594194Y-101935443D01*
X138680884Y-102144729D01*
X138806737Y-102333082D01*
X138966918Y-102493263D01*
X139155271Y-102619116D01*
X139364557Y-102705806D01*
X139586735Y-102750000D01*
X139813265Y-102750000D01*
X140035443Y-102705806D01*
X140244729Y-102619116D01*
X140433082Y-102493263D01*
X140593263Y-102333082D01*
X140719116Y-102144729D01*
X140805806Y-101935443D01*
X140850000Y-101713265D01*
X140850000Y-101486735D01*
X141090000Y-101486735D01*
X141090000Y-101713265D01*
X141134194Y-101935443D01*
X141220884Y-102144729D01*
X141346737Y-102333082D01*
X141506918Y-102493263D01*
X141695271Y-102619116D01*
X141904557Y-102705806D01*
X142126735Y-102750000D01*
X142155370Y-102750000D01*
X143754258Y-104348889D01*
X143774016Y-104372964D01*
X143790232Y-104386272D01*
X144014710Y-104610750D01*
X145078728Y-105674769D01*
X145092035Y-105690983D01*
X145156749Y-105744093D01*
X145230582Y-105783557D01*
X145233227Y-105784359D01*
X145249901Y-105868182D01*
X145290160Y-105965376D01*
X145241685Y-105970151D01*
X145161572Y-105994453D01*
X145150443Y-106000401D01*
X145041497Y-105955275D01*
X144906259Y-105928374D01*
X144768371Y-105928374D01*
X144633133Y-105955275D01*
X144505741Y-106008042D01*
X144391091Y-106084648D01*
X144293589Y-106182150D01*
X144216983Y-106296800D01*
X144164216Y-106424192D01*
X144137315Y-106559430D01*
X144137315Y-106697318D01*
X144164216Y-106832556D01*
X144216983Y-106959948D01*
X144293589Y-107074598D01*
X144391091Y-107172100D01*
X144505741Y-107248706D01*
X144633133Y-107301473D01*
X144768371Y-107328374D01*
X144906259Y-107328374D01*
X145041497Y-107301473D01*
X145168889Y-107248706D01*
X145283539Y-107172100D01*
X145381041Y-107074598D01*
X145457647Y-106959948D01*
X145510414Y-106832556D01*
X145514105Y-106814001D01*
X146250134Y-106814001D01*
X146271001Y-106816056D01*
X146291868Y-106814001D01*
X146291875Y-106814001D01*
X146354315Y-106807851D01*
X146434428Y-106783549D01*
X146508261Y-106744085D01*
X146572975Y-106690975D01*
X146586285Y-106674757D01*
X146933757Y-106327285D01*
X146949975Y-106313975D01*
X147003085Y-106249261D01*
X147042549Y-106175428D01*
X147066851Y-106095315D01*
X147073001Y-106032875D01*
X147075057Y-106012001D01*
X147073001Y-105991127D01*
X147073001Y-105336873D01*
X147075057Y-105315999D01*
X147066851Y-105232685D01*
X147042549Y-105152572D01*
X147036541Y-105141332D01*
X147003085Y-105078739D01*
X146949975Y-105014025D01*
X146933759Y-105000717D01*
X146586285Y-104653243D01*
X146572975Y-104637025D01*
X146508261Y-104583915D01*
X146434428Y-104544451D01*
X146354315Y-104520149D01*
X146291875Y-104513999D01*
X146291868Y-104513999D01*
X146271001Y-104511944D01*
X146250134Y-104513999D01*
X145756450Y-104513999D01*
X144847736Y-103605286D01*
X144841279Y-103597418D01*
X144841278Y-103597417D01*
X144827973Y-103581205D01*
X144811762Y-103567901D01*
X144355001Y-103111141D01*
X144355001Y-102668710D01*
X144444557Y-102705806D01*
X144666735Y-102750000D01*
X144893265Y-102750000D01*
X145115443Y-102705806D01*
X145324729Y-102619116D01*
X145513082Y-102493263D01*
X145673263Y-102333082D01*
X145799116Y-102144729D01*
X145885806Y-101935443D01*
X145930000Y-101713265D01*
X145930000Y-101486735D01*
X146170000Y-101486735D01*
X146170000Y-101713265D01*
X146214194Y-101935443D01*
X146300884Y-102144729D01*
X146426737Y-102333082D01*
X146586918Y-102493263D01*
X146775271Y-102619116D01*
X146984557Y-102705806D01*
X147206735Y-102750000D01*
X147433265Y-102750000D01*
X147655443Y-102705806D01*
X147864729Y-102619116D01*
X148053082Y-102493263D01*
X148213263Y-102333082D01*
X148339116Y-102144729D01*
X148425806Y-101935443D01*
X148470000Y-101713265D01*
X148470000Y-101486735D01*
X148425806Y-101264557D01*
X148339116Y-101055271D01*
X148213263Y-100866918D01*
X148053082Y-100706737D01*
X147864729Y-100580884D01*
X147655443Y-100494194D01*
X147433265Y-100450000D01*
X147206735Y-100450000D01*
X146984557Y-100494194D01*
X146775271Y-100580884D01*
X146586918Y-100706737D01*
X146426737Y-100866918D01*
X146300884Y-101055271D01*
X146214194Y-101264557D01*
X146170000Y-101486735D01*
X145930000Y-101486735D01*
X145885806Y-101264557D01*
X145799116Y-101055271D01*
X145673263Y-100866918D01*
X145513082Y-100706737D01*
X145324729Y-100580884D01*
X145115443Y-100494194D01*
X144893265Y-100450000D01*
X144666735Y-100450000D01*
X144444557Y-100494194D01*
X144235271Y-100580884D01*
X144046918Y-100706737D01*
X143886737Y-100866918D01*
X143760884Y-101055271D01*
X143674194Y-101264557D01*
X143630000Y-101486735D01*
X143630000Y-101713265D01*
X143674194Y-101935443D01*
X143723788Y-102055172D01*
X143644244Y-102134716D01*
X143628027Y-102148025D01*
X143574917Y-102212740D01*
X143535453Y-102286573D01*
X143511151Y-102366686D01*
X143505001Y-102429126D01*
X143505001Y-102429132D01*
X143502946Y-102449999D01*
X143505001Y-102470866D01*
X143505002Y-102897551D01*
X143036898Y-102429447D01*
X143133263Y-102333082D01*
X143259116Y-102144729D01*
X143345806Y-101935443D01*
X143390000Y-101713265D01*
X143390000Y-101486735D01*
X143345806Y-101264557D01*
X143259116Y-101055271D01*
X143133263Y-100866918D01*
X142973082Y-100706737D01*
X142784729Y-100580884D01*
X142575443Y-100494194D01*
X142353265Y-100450000D01*
X142126735Y-100450000D01*
X141904557Y-100494194D01*
X141695271Y-100580884D01*
X141506918Y-100706737D01*
X141346737Y-100866918D01*
X141220884Y-101055271D01*
X141134194Y-101264557D01*
X141090000Y-101486735D01*
X140850000Y-101486735D01*
X140805806Y-101264557D01*
X140719116Y-101055271D01*
X140593263Y-100866918D01*
X140433082Y-100706737D01*
X140244729Y-100580884D01*
X140035443Y-100494194D01*
X139813265Y-100450000D01*
X139586735Y-100450000D01*
X139364557Y-100494194D01*
X139155271Y-100580884D01*
X138966918Y-100706737D01*
X138806737Y-100866918D01*
X138680884Y-101055271D01*
X138594194Y-101264557D01*
X138550000Y-101486735D01*
X138310000Y-101486735D01*
X138265806Y-101264557D01*
X138179116Y-101055271D01*
X138053263Y-100866918D01*
X137893082Y-100706737D01*
X137704729Y-100580884D01*
X137495443Y-100494194D01*
X137273265Y-100450000D01*
X137046735Y-100450000D01*
X136824557Y-100494194D01*
X136615271Y-100580884D01*
X136426918Y-100706737D01*
X136266737Y-100866918D01*
X136140884Y-101055271D01*
X136054194Y-101264557D01*
X136010000Y-101486735D01*
X135770000Y-101486735D01*
X135725806Y-101264557D01*
X135639116Y-101055271D01*
X135513263Y-100866918D01*
X135353082Y-100706737D01*
X135164729Y-100580884D01*
X134955443Y-100494194D01*
X134733265Y-100450000D01*
X134506735Y-100450000D01*
X134284557Y-100494194D01*
X134075271Y-100580884D01*
X133886918Y-100706737D01*
X133726737Y-100866918D01*
X133600884Y-101055271D01*
X133514194Y-101264557D01*
X133470000Y-101486735D01*
X131351793Y-101486735D01*
X131364050Y-101474478D01*
X131429713Y-101376207D01*
X131474942Y-101267014D01*
X131498000Y-101151095D01*
X131498000Y-101032905D01*
X131474942Y-100916986D01*
X131429713Y-100807793D01*
X131364050Y-100709522D01*
X131280478Y-100625950D01*
X131182207Y-100560287D01*
X131073014Y-100515058D01*
X130957095Y-100492000D01*
X130838905Y-100492000D01*
X130722986Y-100515058D01*
X130613793Y-100560287D01*
X130515522Y-100625950D01*
X130431950Y-100709522D01*
X130366287Y-100807793D01*
X130321058Y-100916986D01*
X130298000Y-101032905D01*
X129798000Y-101032905D01*
X129774942Y-100916986D01*
X129729713Y-100807793D01*
X129664050Y-100709522D01*
X129580478Y-100625950D01*
X129482207Y-100560287D01*
X129373014Y-100515058D01*
X129257095Y-100492000D01*
X129138905Y-100492000D01*
X129022986Y-100515058D01*
X128913793Y-100560287D01*
X128815522Y-100625950D01*
X128731950Y-100709522D01*
X128666287Y-100807793D01*
X128621058Y-100916986D01*
X128598000Y-101032905D01*
X126971000Y-101032905D01*
X126971000Y-100428000D01*
X158652000Y-100428000D01*
X158652001Y-118012000D01*
G37*
X158652001Y-118012000D02*
X126971000Y-118012000D01*
X126971000Y-117288905D01*
X128598000Y-117288905D01*
X128598000Y-117407095D01*
X128621058Y-117523014D01*
X128666287Y-117632207D01*
X128731950Y-117730478D01*
X128815522Y-117814050D01*
X128913793Y-117879713D01*
X129022986Y-117924942D01*
X129138905Y-117948000D01*
X129257095Y-117948000D01*
X129373014Y-117924942D01*
X129482207Y-117879713D01*
X129580478Y-117814050D01*
X129664050Y-117730478D01*
X129729713Y-117632207D01*
X129774942Y-117523014D01*
X129798000Y-117407095D01*
X129798000Y-117288905D01*
X130298000Y-117288905D01*
X130298000Y-117407095D01*
X130321058Y-117523014D01*
X130366287Y-117632207D01*
X130431950Y-117730478D01*
X130515522Y-117814050D01*
X130613793Y-117879713D01*
X130722986Y-117924942D01*
X130838905Y-117948000D01*
X130957095Y-117948000D01*
X131073014Y-117924942D01*
X131182207Y-117879713D01*
X131280478Y-117814050D01*
X131364050Y-117730478D01*
X131429713Y-117632207D01*
X131474942Y-117523014D01*
X131498000Y-117407095D01*
X131498000Y-117288905D01*
X131474942Y-117172986D01*
X131429713Y-117063793D01*
X131364050Y-116965522D01*
X131280478Y-116881950D01*
X131182207Y-116816287D01*
X131073014Y-116771058D01*
X130957095Y-116748000D01*
X130838905Y-116748000D01*
X130722986Y-116771058D01*
X130613793Y-116816287D01*
X130515522Y-116881950D01*
X130431950Y-116965522D01*
X130366287Y-117063793D01*
X130321058Y-117172986D01*
X130298000Y-117288905D01*
X129798000Y-117288905D01*
X129774942Y-117172986D01*
X129729713Y-117063793D01*
X129664050Y-116965522D01*
X129580478Y-116881950D01*
X129482207Y-116816287D01*
X129373014Y-116771058D01*
X129257095Y-116748000D01*
X129138905Y-116748000D01*
X129022986Y-116771058D01*
X128913793Y-116816287D01*
X128815522Y-116881950D01*
X128731950Y-116965522D01*
X128666287Y-117063793D01*
X128621058Y-117172986D01*
X128598000Y-117288905D01*
X126971000Y-117288905D01*
X126971000Y-113284000D01*
X130763945Y-113284000D01*
X130766000Y-113304867D01*
X130766001Y-114533124D01*
X130763945Y-114554000D01*
X130772150Y-114637314D01*
X130793265Y-114706917D01*
X130796453Y-114717427D01*
X130835917Y-114791260D01*
X130889027Y-114855974D01*
X130905239Y-114869279D01*
X131700957Y-115664998D01*
X131986718Y-115950759D01*
X132000025Y-115966973D01*
X132064739Y-116020083D01*
X132105695Y-116041974D01*
X132138571Y-116059547D01*
X132218684Y-116083849D01*
X132227097Y-116084678D01*
X132281125Y-116089999D01*
X132281131Y-116089999D01*
X132301998Y-116092054D01*
X132301999Y-116092054D01*
X132322866Y-116089999D01*
X133743656Y-116089999D01*
X133726737Y-116106918D01*
X133600884Y-116295271D01*
X133514194Y-116504557D01*
X133470000Y-116726735D01*
X133470000Y-116953265D01*
X133514194Y-117175443D01*
X133600884Y-117384729D01*
X133726737Y-117573082D01*
X133886918Y-117733263D01*
X134075271Y-117859116D01*
X134284557Y-117945806D01*
X134506735Y-117990000D01*
X134733265Y-117990000D01*
X134955443Y-117945806D01*
X135164729Y-117859116D01*
X135353082Y-117733263D01*
X135513263Y-117573082D01*
X135639116Y-117384729D01*
X135725806Y-117175443D01*
X135770000Y-116953265D01*
X135770000Y-116726735D01*
X135725806Y-116504557D01*
X135639116Y-116295271D01*
X135513263Y-116106918D01*
X135496344Y-116089999D01*
X136283656Y-116089999D01*
X136266737Y-116106918D01*
X136140884Y-116295271D01*
X136054194Y-116504557D01*
X136010000Y-116726735D01*
X136010000Y-116953265D01*
X136054194Y-117175443D01*
X136140884Y-117384729D01*
X136266737Y-117573082D01*
X136426918Y-117733263D01*
X136615271Y-117859116D01*
X136824557Y-117945806D01*
X137046735Y-117990000D01*
X137273265Y-117990000D01*
X137495443Y-117945806D01*
X137704729Y-117859116D01*
X137893082Y-117733263D01*
X138053263Y-117573082D01*
X138179116Y-117384729D01*
X138265806Y-117175443D01*
X138310000Y-116953265D01*
X138310000Y-116726735D01*
X138265806Y-116504557D01*
X138179116Y-116295271D01*
X138053263Y-116106918D01*
X138036344Y-116089999D01*
X138823656Y-116089999D01*
X138806737Y-116106918D01*
X138680884Y-116295271D01*
X138594194Y-116504557D01*
X138550000Y-116726735D01*
X138550000Y-116953265D01*
X138594194Y-117175443D01*
X138680884Y-117384729D01*
X138806737Y-117573082D01*
X138966918Y-117733263D01*
X139155271Y-117859116D01*
X139364557Y-117945806D01*
X139586735Y-117990000D01*
X139813265Y-117990000D01*
X140035443Y-117945806D01*
X140244729Y-117859116D01*
X140433082Y-117733263D01*
X140593263Y-117573082D01*
X140719116Y-117384729D01*
X140805806Y-117175443D01*
X140850000Y-116953265D01*
X140850000Y-116726735D01*
X140805806Y-116504557D01*
X140719116Y-116295271D01*
X140593263Y-116106918D01*
X140576344Y-116089999D01*
X141363656Y-116089999D01*
X141346737Y-116106918D01*
X141220884Y-116295271D01*
X141134194Y-116504557D01*
X141090000Y-116726735D01*
X141090000Y-116953265D01*
X141134194Y-117175443D01*
X141220884Y-117384729D01*
X141346737Y-117573082D01*
X141506918Y-117733263D01*
X141695271Y-117859116D01*
X141904557Y-117945806D01*
X142126735Y-117990000D01*
X142353265Y-117990000D01*
X142575443Y-117945806D01*
X142784729Y-117859116D01*
X142973082Y-117733263D01*
X143133263Y-117573082D01*
X143259116Y-117384729D01*
X143345806Y-117175443D01*
X143390000Y-116953265D01*
X143390000Y-116726735D01*
X143345806Y-116504557D01*
X143259116Y-116295271D01*
X143133263Y-116106918D01*
X143116344Y-116089999D01*
X143903656Y-116089999D01*
X143886737Y-116106918D01*
X143760884Y-116295271D01*
X143674194Y-116504557D01*
X143630000Y-116726735D01*
X143630000Y-116953265D01*
X143674194Y-117175443D01*
X143760884Y-117384729D01*
X143886737Y-117573082D01*
X144046918Y-117733263D01*
X144235271Y-117859116D01*
X144444557Y-117945806D01*
X144666735Y-117990000D01*
X144893265Y-117990000D01*
X145115443Y-117945806D01*
X145324729Y-117859116D01*
X145513082Y-117733263D01*
X145673263Y-117573082D01*
X145799116Y-117384729D01*
X145885806Y-117175443D01*
X145930000Y-116953265D01*
X145930000Y-116726735D01*
X145885806Y-116504557D01*
X145799116Y-116295271D01*
X145673263Y-116106918D01*
X145656344Y-116089999D01*
X146443656Y-116089999D01*
X146426737Y-116106918D01*
X146300884Y-116295271D01*
X146214194Y-116504557D01*
X146170000Y-116726735D01*
X146170000Y-116953265D01*
X146214194Y-117175443D01*
X146300884Y-117384729D01*
X146426737Y-117573082D01*
X146586918Y-117733263D01*
X146775271Y-117859116D01*
X146984557Y-117945806D01*
X147206735Y-117990000D01*
X147433265Y-117990000D01*
X147655443Y-117945806D01*
X147864729Y-117859116D01*
X148053082Y-117733263D01*
X148213263Y-117573082D01*
X148339116Y-117384729D01*
X148425806Y-117175443D01*
X148470000Y-116953265D01*
X148470000Y-116726735D01*
X148425806Y-116504557D01*
X148339116Y-116295271D01*
X148213263Y-116106918D01*
X148196344Y-116089999D01*
X148983656Y-116089999D01*
X148966737Y-116106918D01*
X148840884Y-116295271D01*
X148754194Y-116504557D01*
X148710000Y-116726735D01*
X148710000Y-116953265D01*
X148754194Y-117175443D01*
X148840884Y-117384729D01*
X148966737Y-117573082D01*
X149126918Y-117733263D01*
X149315271Y-117859116D01*
X149524557Y-117945806D01*
X149746735Y-117990000D01*
X149973265Y-117990000D01*
X150195443Y-117945806D01*
X150404729Y-117859116D01*
X150593082Y-117733263D01*
X150753263Y-117573082D01*
X150879116Y-117384729D01*
X150965806Y-117175443D01*
X151010000Y-116953265D01*
X151010000Y-116726735D01*
X150965806Y-116504557D01*
X150879116Y-116295271D01*
X150753263Y-116106918D01*
X150736344Y-116089999D01*
X151048959Y-116089999D01*
X151343788Y-116384828D01*
X151294194Y-116504557D01*
X151250000Y-116726735D01*
X151250000Y-116953265D01*
X151294194Y-117175443D01*
X151380884Y-117384729D01*
X151506737Y-117573082D01*
X151666918Y-117733263D01*
X151855271Y-117859116D01*
X152064557Y-117945806D01*
X152286735Y-117990000D01*
X152513265Y-117990000D01*
X152735443Y-117945806D01*
X152944729Y-117859116D01*
X153133082Y-117733263D01*
X153293263Y-117573082D01*
X153419116Y-117384729D01*
X153505806Y-117175443D01*
X153517234Y-117117988D01*
X153824099Y-117117988D01*
X153899773Y-117330348D01*
X154015423Y-117523864D01*
X154166604Y-117691100D01*
X154347506Y-117825628D01*
X154551177Y-117922279D01*
X154662013Y-117955896D01*
X154840000Y-117910339D01*
X154840000Y-116940000D01*
X155040000Y-116940000D01*
X155040000Y-117910339D01*
X155217987Y-117955896D01*
X155328823Y-117922279D01*
X155532494Y-117825628D01*
X155713396Y-117691100D01*
X155864577Y-117523864D01*
X155980227Y-117330348D01*
X156055901Y-117117988D01*
X156010649Y-116940000D01*
X155040000Y-116940000D01*
X154840000Y-116940000D01*
X153869351Y-116940000D01*
X153824099Y-117117988D01*
X153517234Y-117117988D01*
X153550000Y-116953265D01*
X153550000Y-116726735D01*
X153517235Y-116562012D01*
X153824099Y-116562012D01*
X153869351Y-116740000D01*
X154840000Y-116740000D01*
X154840000Y-115769661D01*
X155040000Y-115769661D01*
X155040000Y-116740000D01*
X156010649Y-116740000D01*
X156055901Y-116562012D01*
X155980227Y-116349652D01*
X155864577Y-116156136D01*
X155713396Y-115988900D01*
X155532494Y-115854372D01*
X155328823Y-115757721D01*
X155217987Y-115724104D01*
X155040000Y-115769661D01*
X154840000Y-115769661D01*
X154662013Y-115724104D01*
X154551177Y-115757721D01*
X154347506Y-115854372D01*
X154166604Y-115988900D01*
X154015423Y-116156136D01*
X153899773Y-116349652D01*
X153824099Y-116562012D01*
X153517235Y-116562012D01*
X153505806Y-116504557D01*
X153419116Y-116295271D01*
X153293263Y-116106918D01*
X153133082Y-115946737D01*
X152944729Y-115820884D01*
X152735443Y-115734194D01*
X152513265Y-115690000D01*
X152286735Y-115690000D01*
X152064557Y-115734194D01*
X151944828Y-115783788D01*
X151540282Y-115379242D01*
X151526973Y-115363025D01*
X151462259Y-115309915D01*
X151388426Y-115270451D01*
X151308313Y-115246149D01*
X151245873Y-115239999D01*
X151245866Y-115239999D01*
X151224999Y-115237944D01*
X151204132Y-115239999D01*
X132478040Y-115239999D01*
X132348015Y-115109974D01*
X131616000Y-114377960D01*
X131616000Y-113850056D01*
X132015000Y-113850056D01*
X132015000Y-113987944D01*
X132041901Y-114123182D01*
X132094668Y-114250574D01*
X132171274Y-114365224D01*
X132268776Y-114462726D01*
X132383426Y-114539332D01*
X132510818Y-114592099D01*
X132646056Y-114619000D01*
X132783944Y-114619000D01*
X132808980Y-114614020D01*
X133288721Y-115093762D01*
X133302026Y-115109974D01*
X133366740Y-115163084D01*
X133414855Y-115188801D01*
X133440572Y-115202548D01*
X133520685Y-115226850D01*
X133528327Y-115227603D01*
X133583126Y-115233000D01*
X133583133Y-115233000D01*
X133604000Y-115235055D01*
X133624867Y-115233000D01*
X138453812Y-115233000D01*
X138474679Y-115235055D01*
X138495546Y-115233000D01*
X138495553Y-115233000D01*
X138557993Y-115226850D01*
X138638106Y-115202548D01*
X138711939Y-115163084D01*
X138776653Y-115109974D01*
X138789962Y-115093757D01*
X141262771Y-112620949D01*
X141287806Y-112625929D01*
X141425694Y-112625929D01*
X141560932Y-112599028D01*
X141688324Y-112546261D01*
X141802974Y-112469655D01*
X141900476Y-112372153D01*
X141977082Y-112257503D01*
X142029849Y-112130111D01*
X142030354Y-112127572D01*
X142616542Y-112713761D01*
X142629847Y-112729973D01*
X142694561Y-112783083D01*
X142741315Y-112808073D01*
X142768393Y-112822547D01*
X142848506Y-112846849D01*
X142855492Y-112847537D01*
X142910947Y-112852999D01*
X142910954Y-112852999D01*
X142931821Y-112855054D01*
X142952688Y-112852999D01*
X145177132Y-112852999D01*
X145197999Y-112855054D01*
X145218866Y-112852999D01*
X145218873Y-112852999D01*
X145224492Y-112852446D01*
X145249901Y-112980182D01*
X145302668Y-113107574D01*
X145379274Y-113222224D01*
X145476776Y-113319726D01*
X145556579Y-113373048D01*
X145567917Y-113394260D01*
X145621027Y-113458974D01*
X145637239Y-113472279D01*
X146623719Y-114458760D01*
X146637026Y-114474974D01*
X146701740Y-114528084D01*
X146775573Y-114567548D01*
X146831383Y-114584478D01*
X146855685Y-114591850D01*
X146863327Y-114592603D01*
X146918126Y-114598000D01*
X146918133Y-114598000D01*
X146939000Y-114600055D01*
X146959867Y-114598000D01*
X155736960Y-114598000D01*
X156827509Y-115688549D01*
X156630000Y-115688549D01*
X156571190Y-115694341D01*
X156514640Y-115711496D01*
X156462523Y-115739353D01*
X156416842Y-115776842D01*
X156379353Y-115822523D01*
X156351496Y-115874640D01*
X156334341Y-115931190D01*
X156328549Y-115990000D01*
X156328549Y-117690000D01*
X156334341Y-117748810D01*
X156351496Y-117805360D01*
X156379353Y-117857477D01*
X156416842Y-117903158D01*
X156462523Y-117940647D01*
X156514640Y-117968504D01*
X156571190Y-117985659D01*
X156630000Y-117991451D01*
X158330000Y-117991451D01*
X158388810Y-117985659D01*
X158445360Y-117968504D01*
X158497477Y-117940647D01*
X158543158Y-117903158D01*
X158580647Y-117857477D01*
X158608504Y-117805360D01*
X158625659Y-117748810D01*
X158631451Y-117690000D01*
X158631451Y-115990000D01*
X158625659Y-115931190D01*
X158608504Y-115874640D01*
X158580647Y-115822523D01*
X158543158Y-115776842D01*
X158497477Y-115739353D01*
X158445360Y-115711496D01*
X158388810Y-115694341D01*
X158330000Y-115688549D01*
X157901988Y-115688549D01*
X157898850Y-115656686D01*
X157874548Y-115576573D01*
X157835084Y-115502740D01*
X157781974Y-115438026D01*
X157765758Y-115424718D01*
X156228284Y-113887244D01*
X156214974Y-113871026D01*
X156150260Y-113817916D01*
X156076427Y-113778452D01*
X155996314Y-113754150D01*
X155933874Y-113748000D01*
X155933867Y-113748000D01*
X155913000Y-113745945D01*
X155892133Y-113748000D01*
X147115041Y-113748000D01*
X146515808Y-113148767D01*
X146543332Y-113107574D01*
X146580295Y-113018336D01*
X146750721Y-113188762D01*
X146764026Y-113204974D01*
X146780238Y-113218279D01*
X146780239Y-113218280D01*
X146785045Y-113222224D01*
X146828740Y-113258084D01*
X146876855Y-113283801D01*
X146902572Y-113297548D01*
X146982685Y-113321850D01*
X146990327Y-113322603D01*
X147045126Y-113328000D01*
X147045133Y-113328000D01*
X147066000Y-113330055D01*
X147086867Y-113328000D01*
X149147131Y-113328000D01*
X149167998Y-113330055D01*
X149188865Y-113328000D01*
X149188872Y-113328000D01*
X149251312Y-113321850D01*
X149297012Y-113307987D01*
X156364104Y-113307987D01*
X156397721Y-113418823D01*
X156494372Y-113622494D01*
X156628900Y-113803396D01*
X156796136Y-113954577D01*
X156989652Y-114070227D01*
X157202012Y-114145901D01*
X157380000Y-114100649D01*
X157380000Y-113130000D01*
X157580000Y-113130000D01*
X157580000Y-114100649D01*
X157757988Y-114145901D01*
X157970348Y-114070227D01*
X158163864Y-113954577D01*
X158331100Y-113803396D01*
X158465628Y-113622494D01*
X158562279Y-113418823D01*
X158595896Y-113307987D01*
X158550339Y-113130000D01*
X157580000Y-113130000D01*
X157380000Y-113130000D01*
X156409661Y-113130000D01*
X156364104Y-113307987D01*
X149297012Y-113307987D01*
X149331425Y-113297548D01*
X149405258Y-113258084D01*
X149469972Y-113204974D01*
X149483281Y-113188757D01*
X149920025Y-112752013D01*
X156364104Y-112752013D01*
X156409661Y-112930000D01*
X157380000Y-112930000D01*
X157380000Y-111959351D01*
X157580000Y-111959351D01*
X157580000Y-112930000D01*
X158550339Y-112930000D01*
X158595896Y-112752013D01*
X158562279Y-112641177D01*
X158465628Y-112437506D01*
X158331100Y-112256604D01*
X158163864Y-112105423D01*
X157970348Y-111989773D01*
X157757988Y-111914099D01*
X157580000Y-111959351D01*
X157380000Y-111959351D01*
X157202012Y-111914099D01*
X156989652Y-111989773D01*
X156796136Y-112105423D01*
X156628900Y-112256604D01*
X156494372Y-112437506D01*
X156397721Y-112641177D01*
X156364104Y-112752013D01*
X149920025Y-112752013D01*
X149947028Y-112725011D01*
X153745532Y-112725011D01*
X153766399Y-112727066D01*
X153787266Y-112725011D01*
X153787273Y-112725011D01*
X153849713Y-112718861D01*
X153929826Y-112694559D01*
X154003659Y-112655095D01*
X154068373Y-112601985D01*
X154081682Y-112585768D01*
X155752451Y-110915000D01*
X156411290Y-110915000D01*
X156460884Y-111034729D01*
X156586737Y-111223082D01*
X156746918Y-111383263D01*
X156935271Y-111509116D01*
X157144557Y-111595806D01*
X157366735Y-111640000D01*
X157593265Y-111640000D01*
X157815443Y-111595806D01*
X158024729Y-111509116D01*
X158213082Y-111383263D01*
X158373263Y-111223082D01*
X158499116Y-111034729D01*
X158585806Y-110825443D01*
X158630000Y-110603265D01*
X158630000Y-110376735D01*
X158585806Y-110154557D01*
X158499116Y-109945271D01*
X158373263Y-109756918D01*
X158213082Y-109596737D01*
X158024729Y-109470884D01*
X157815443Y-109384194D01*
X157593265Y-109340000D01*
X157366735Y-109340000D01*
X157144557Y-109384194D01*
X156935271Y-109470884D01*
X156746918Y-109596737D01*
X156586737Y-109756918D01*
X156460884Y-109945271D01*
X156411290Y-110065000D01*
X155966041Y-110065000D01*
X157024828Y-109006212D01*
X157144557Y-109055806D01*
X157366735Y-109100000D01*
X157593265Y-109100000D01*
X157815443Y-109055806D01*
X158024729Y-108969116D01*
X158213082Y-108843263D01*
X158373263Y-108683082D01*
X158499116Y-108494729D01*
X158585806Y-108285443D01*
X158630000Y-108063265D01*
X158630000Y-107836735D01*
X158585806Y-107614557D01*
X158499116Y-107405271D01*
X158373263Y-107216918D01*
X158213082Y-107056737D01*
X158024729Y-106930884D01*
X157815443Y-106844194D01*
X157593265Y-106800000D01*
X157366735Y-106800000D01*
X157144557Y-106844194D01*
X156935271Y-106930884D01*
X156746918Y-107056737D01*
X156586737Y-107216918D01*
X156460884Y-107405271D01*
X156374194Y-107614557D01*
X156330000Y-107836735D01*
X156330000Y-108063265D01*
X156374194Y-108285443D01*
X156423788Y-108405172D01*
X153403959Y-111425001D01*
X149605453Y-111425001D01*
X149584586Y-111422946D01*
X149563719Y-111425001D01*
X149563713Y-111425001D01*
X149509685Y-111430322D01*
X149501272Y-111431151D01*
X149480139Y-111437562D01*
X149421160Y-111455453D01*
X149347327Y-111494917D01*
X149282613Y-111548027D01*
X149269308Y-111564239D01*
X148805558Y-112027990D01*
X147554031Y-112027990D01*
X146841272Y-111315232D01*
X146827963Y-111299015D01*
X146763249Y-111245905D01*
X146689416Y-111206441D01*
X146609303Y-111182139D01*
X146546863Y-111175989D01*
X146546856Y-111175989D01*
X146525989Y-111173934D01*
X146505122Y-111175989D01*
X145965051Y-111175989D01*
X146895706Y-110245335D01*
X146895706Y-110461965D01*
X146892945Y-110490000D01*
X146901150Y-110573314D01*
X146925453Y-110653427D01*
X146964917Y-110727259D01*
X147018026Y-110791974D01*
X147034240Y-110805280D01*
X147201119Y-110972159D01*
X147180301Y-111022418D01*
X147153400Y-111157656D01*
X147153400Y-111295544D01*
X147180301Y-111430782D01*
X147233068Y-111558174D01*
X147309674Y-111672824D01*
X147407176Y-111770326D01*
X147521826Y-111846932D01*
X147649218Y-111899699D01*
X147784456Y-111926600D01*
X147922344Y-111926600D01*
X148057582Y-111899699D01*
X148184974Y-111846932D01*
X148299624Y-111770326D01*
X148397126Y-111672824D01*
X148473732Y-111558174D01*
X148526499Y-111430782D01*
X148553400Y-111295544D01*
X148553400Y-111157656D01*
X148526499Y-111022418D01*
X148473732Y-110895026D01*
X148397126Y-110780376D01*
X148299624Y-110682874D01*
X148184974Y-110606268D01*
X148057582Y-110553501D01*
X147966404Y-110535364D01*
X147745705Y-110314665D01*
X147745705Y-110031745D01*
X152480715Y-105296735D01*
X156330000Y-105296735D01*
X156330000Y-105523265D01*
X156374194Y-105745443D01*
X156460884Y-105954729D01*
X156586737Y-106143082D01*
X156746918Y-106303263D01*
X156935271Y-106429116D01*
X157144557Y-106515806D01*
X157366735Y-106560000D01*
X157593265Y-106560000D01*
X157815443Y-106515806D01*
X158024729Y-106429116D01*
X158213082Y-106303263D01*
X158373263Y-106143082D01*
X158499116Y-105954729D01*
X158585806Y-105745443D01*
X158630000Y-105523265D01*
X158630000Y-105296735D01*
X158585806Y-105074557D01*
X158499116Y-104865271D01*
X158373263Y-104676918D01*
X158213082Y-104516737D01*
X158024729Y-104390884D01*
X157815443Y-104304194D01*
X157593265Y-104260000D01*
X157366735Y-104260000D01*
X157144557Y-104304194D01*
X156935271Y-104390884D01*
X156746918Y-104516737D01*
X156586737Y-104676918D01*
X156460884Y-104865271D01*
X156374194Y-105074557D01*
X156330000Y-105296735D01*
X152480715Y-105296735D01*
X154577449Y-103200001D01*
X156538132Y-103200001D01*
X156558999Y-103202056D01*
X156579866Y-103200001D01*
X156579873Y-103200001D01*
X156642313Y-103193851D01*
X156722426Y-103169549D01*
X156796259Y-103130085D01*
X156860973Y-103076975D01*
X156874282Y-103060758D01*
X157183589Y-102751451D01*
X158330000Y-102751451D01*
X158388810Y-102745659D01*
X158445360Y-102728504D01*
X158497477Y-102700647D01*
X158543158Y-102663158D01*
X158580647Y-102617477D01*
X158608504Y-102565360D01*
X158625659Y-102508810D01*
X158631451Y-102450000D01*
X158631451Y-100750000D01*
X158625659Y-100691190D01*
X158608504Y-100634640D01*
X158580647Y-100582523D01*
X158543158Y-100536842D01*
X158497477Y-100499353D01*
X158445360Y-100471496D01*
X158388810Y-100454341D01*
X158330000Y-100448549D01*
X156630000Y-100448549D01*
X156571190Y-100454341D01*
X156514640Y-100471496D01*
X156462523Y-100499353D01*
X156416842Y-100536842D01*
X156379353Y-100582523D01*
X156351496Y-100634640D01*
X156334341Y-100691190D01*
X156328549Y-100750000D01*
X156328549Y-102350001D01*
X155816344Y-102350001D01*
X155833263Y-102333082D01*
X155959116Y-102144729D01*
X156045806Y-101935443D01*
X156090000Y-101713265D01*
X156090000Y-101486735D01*
X156045806Y-101264557D01*
X155959116Y-101055271D01*
X155833263Y-100866918D01*
X155673082Y-100706737D01*
X155484729Y-100580884D01*
X155275443Y-100494194D01*
X155053265Y-100450000D01*
X154826735Y-100450000D01*
X154604557Y-100494194D01*
X154395271Y-100580884D01*
X154206918Y-100706737D01*
X154046737Y-100866918D01*
X153920884Y-101055271D01*
X153834194Y-101264557D01*
X153790000Y-101486735D01*
X153790000Y-101713265D01*
X153834194Y-101935443D01*
X153883788Y-102055171D01*
X152825000Y-103113959D01*
X152825000Y-102668710D01*
X152944729Y-102619116D01*
X153133082Y-102493263D01*
X153293263Y-102333082D01*
X153419116Y-102144729D01*
X153505806Y-101935443D01*
X153550000Y-101713265D01*
X153550000Y-101486735D01*
X153505806Y-101264557D01*
X153419116Y-101055271D01*
X153293263Y-100866918D01*
X153133082Y-100706737D01*
X152944729Y-100580884D01*
X152735443Y-100494194D01*
X152513265Y-100450000D01*
X152286735Y-100450000D01*
X152064557Y-100494194D01*
X151855271Y-100580884D01*
X151666918Y-100706737D01*
X151506737Y-100866918D01*
X151380884Y-101055271D01*
X151294194Y-101264557D01*
X151250000Y-101486735D01*
X151250000Y-101713265D01*
X151294194Y-101935443D01*
X151380884Y-102144729D01*
X151506737Y-102333082D01*
X151666918Y-102493263D01*
X151855271Y-102619116D01*
X151975000Y-102668710D01*
X151975000Y-102822954D01*
X151975001Y-102822963D01*
X151975000Y-103225961D01*
X151428000Y-103772961D01*
X151428000Y-102763866D01*
X151430055Y-102742999D01*
X151428000Y-102722132D01*
X151428000Y-102722126D01*
X151421850Y-102659686D01*
X151397548Y-102579573D01*
X151358084Y-102505740D01*
X151304974Y-102441026D01*
X151288763Y-102427722D01*
X150916212Y-102055172D01*
X150965806Y-101935443D01*
X151010000Y-101713265D01*
X151010000Y-101486735D01*
X150965806Y-101264557D01*
X150879116Y-101055271D01*
X150753263Y-100866918D01*
X150593082Y-100706737D01*
X150404729Y-100580884D01*
X150195443Y-100494194D01*
X149973265Y-100450000D01*
X149746735Y-100450000D01*
X149524557Y-100494194D01*
X149315271Y-100580884D01*
X149126918Y-100706737D01*
X148966737Y-100866918D01*
X148840884Y-101055271D01*
X148754194Y-101264557D01*
X148710000Y-101486735D01*
X148710000Y-101713265D01*
X148754194Y-101935443D01*
X148840884Y-102144729D01*
X148966737Y-102333082D01*
X149126918Y-102493263D01*
X149315271Y-102619116D01*
X149524557Y-102705806D01*
X149746735Y-102750000D01*
X149973265Y-102750000D01*
X150195443Y-102705806D01*
X150315172Y-102656212D01*
X150578000Y-102919041D01*
X150578001Y-103986550D01*
X145440093Y-109124459D01*
X145365574Y-109074668D01*
X145238182Y-109021901D01*
X145102944Y-108995000D01*
X144965056Y-108995000D01*
X144829818Y-109021901D01*
X144702426Y-109074668D01*
X144587776Y-109151274D01*
X144508724Y-109230327D01*
X144481569Y-109203172D01*
X144366919Y-109126566D01*
X144239527Y-109073799D01*
X144104289Y-109046898D01*
X143966401Y-109046898D01*
X143831163Y-109073799D01*
X143703771Y-109126566D01*
X143589121Y-109203172D01*
X143491619Y-109300674D01*
X143415013Y-109415324D01*
X143362246Y-109542716D01*
X143335345Y-109677954D01*
X143335345Y-109815842D01*
X143362246Y-109951080D01*
X143415013Y-110078472D01*
X143491619Y-110193122D01*
X143589121Y-110290624D01*
X143703771Y-110367230D01*
X143831163Y-110419997D01*
X143868620Y-110427448D01*
X143820346Y-110459703D01*
X143722844Y-110557205D01*
X143646238Y-110671855D01*
X143593471Y-110799247D01*
X143566570Y-110934485D01*
X143566570Y-111072373D01*
X143593471Y-111207611D01*
X143646238Y-111335003D01*
X143722844Y-111449653D01*
X143820346Y-111547155D01*
X143829077Y-111552989D01*
X143294261Y-111552989D01*
X141953132Y-110211859D01*
X141939822Y-110195641D01*
X141875108Y-110142531D01*
X141801275Y-110103067D01*
X141721162Y-110078765D01*
X141658722Y-110072615D01*
X141658715Y-110072615D01*
X141637848Y-110070560D01*
X141616982Y-110072615D01*
X140134309Y-110072615D01*
X140120128Y-110051391D01*
X140022626Y-109953889D01*
X139907976Y-109877283D01*
X139780584Y-109824516D01*
X139645346Y-109797615D01*
X139507458Y-109797615D01*
X139372220Y-109824516D01*
X139244828Y-109877283D01*
X139130178Y-109953889D01*
X139032676Y-110051391D01*
X138956070Y-110166041D01*
X138903303Y-110293433D01*
X138876402Y-110428671D01*
X138876402Y-110566559D01*
X138903303Y-110701797D01*
X138956070Y-110829189D01*
X139032676Y-110943839D01*
X139130178Y-111041341D01*
X139244828Y-111117947D01*
X139372220Y-111170714D01*
X139507458Y-111197615D01*
X139645346Y-111197615D01*
X139780584Y-111170714D01*
X139907976Y-111117947D01*
X140022626Y-111041341D01*
X140120128Y-110943839D01*
X140134309Y-110922615D01*
X140256965Y-110922615D01*
X139058668Y-112120913D01*
X139015182Y-112102901D01*
X138879944Y-112076000D01*
X138742056Y-112076000D01*
X138606818Y-112102901D01*
X138479426Y-112155668D01*
X138364776Y-112232274D01*
X138267274Y-112329776D01*
X138190668Y-112444426D01*
X138137901Y-112571818D01*
X138111000Y-112707056D01*
X138111000Y-112844944D01*
X138137901Y-112980182D01*
X138190668Y-113107574D01*
X138267274Y-113222224D01*
X138364776Y-113319726D01*
X138479426Y-113396332D01*
X138606818Y-113449099D01*
X138742056Y-113476000D01*
X138879944Y-113476000D01*
X139015182Y-113449099D01*
X139142574Y-113396332D01*
X139257224Y-113319726D01*
X139354726Y-113222224D01*
X139431332Y-113107574D01*
X139484099Y-112980182D01*
X139504614Y-112877047D01*
X140700435Y-111681227D01*
X140683651Y-111721747D01*
X140656750Y-111856985D01*
X140656750Y-111994873D01*
X140661730Y-112019908D01*
X138298639Y-114383000D01*
X133780041Y-114383000D01*
X133410020Y-114012980D01*
X133415000Y-113987944D01*
X133415000Y-113850056D01*
X133388099Y-113714818D01*
X133335332Y-113587426D01*
X133258726Y-113472776D01*
X133161224Y-113375274D01*
X133046574Y-113298668D01*
X132919182Y-113245901D01*
X132783944Y-113219000D01*
X132646056Y-113219000D01*
X132510818Y-113245901D01*
X132383426Y-113298668D01*
X132268776Y-113375274D01*
X132171274Y-113472776D01*
X132094668Y-113587426D01*
X132041901Y-113714818D01*
X132015000Y-113850056D01*
X131616000Y-113850056D01*
X131616000Y-113460040D01*
X132365762Y-112710279D01*
X132381974Y-112696974D01*
X132435084Y-112632260D01*
X132460801Y-112584145D01*
X132474548Y-112558428D01*
X132498850Y-112478315D01*
X132502077Y-112445547D01*
X132505000Y-112415874D01*
X132505000Y-112415867D01*
X132507055Y-112395000D01*
X132505000Y-112374133D01*
X132505000Y-107745907D01*
X132526224Y-107731726D01*
X132623726Y-107634224D01*
X132700332Y-107519574D01*
X132753099Y-107392182D01*
X132780000Y-107256944D01*
X132780000Y-107119056D01*
X132753099Y-106983818D01*
X132700332Y-106856426D01*
X132623726Y-106741776D01*
X132526224Y-106644274D01*
X132411574Y-106567668D01*
X132284182Y-106514901D01*
X132148944Y-106488000D01*
X132011056Y-106488000D01*
X131875818Y-106514901D01*
X131748426Y-106567668D01*
X131633776Y-106644274D01*
X131536274Y-106741776D01*
X131459668Y-106856426D01*
X131406901Y-106983818D01*
X131380000Y-107119056D01*
X131380000Y-107256944D01*
X131406901Y-107392182D01*
X131459668Y-107519574D01*
X131536274Y-107634224D01*
X131633776Y-107731726D01*
X131655000Y-107745907D01*
X131655001Y-112218958D01*
X130905243Y-112968717D01*
X130889026Y-112982026D01*
X130835916Y-113046741D01*
X130796452Y-113120574D01*
X130772150Y-113200687D01*
X130766000Y-113263127D01*
X130766000Y-113263133D01*
X130763945Y-113284000D01*
X126971000Y-113284000D01*
X126971000Y-112840819D01*
X127541602Y-112840819D01*
X127629874Y-112994335D01*
X127825958Y-113086540D01*
X128036263Y-113138719D01*
X128252706Y-113148867D01*
X128466970Y-113116593D01*
X128670821Y-113043139D01*
X128762126Y-112994335D01*
X128850398Y-112840819D01*
X128196000Y-112186421D01*
X127541602Y-112840819D01*
X126971000Y-112840819D01*
X126971000Y-112101706D01*
X127092133Y-112101706D01*
X127124407Y-112315970D01*
X127197861Y-112519821D01*
X127246665Y-112611126D01*
X127400181Y-112699398D01*
X128054579Y-112045000D01*
X128337421Y-112045000D01*
X128991819Y-112699398D01*
X129145335Y-112611126D01*
X129237540Y-112415042D01*
X129289719Y-112204737D01*
X129299867Y-111988294D01*
X129267593Y-111774030D01*
X129194139Y-111570179D01*
X129145335Y-111478874D01*
X128991819Y-111390602D01*
X128337421Y-112045000D01*
X128054579Y-112045000D01*
X127400181Y-111390602D01*
X127246665Y-111478874D01*
X127154460Y-111674958D01*
X127102281Y-111885263D01*
X127092133Y-112101706D01*
X126971000Y-112101706D01*
X126971000Y-111249181D01*
X127541602Y-111249181D01*
X128196000Y-111903579D01*
X128850398Y-111249181D01*
X128799640Y-111160905D01*
X129746000Y-111160905D01*
X129746000Y-111279095D01*
X129769058Y-111395014D01*
X129814287Y-111504207D01*
X129879950Y-111602478D01*
X129963522Y-111686050D01*
X130061793Y-111751713D01*
X130170986Y-111796942D01*
X130286905Y-111820000D01*
X130405095Y-111820000D01*
X130521014Y-111796942D01*
X130630207Y-111751713D01*
X130728478Y-111686050D01*
X130812050Y-111602478D01*
X130877713Y-111504207D01*
X130922942Y-111395014D01*
X130946000Y-111279095D01*
X130946000Y-111160905D01*
X130922942Y-111044986D01*
X130877713Y-110935793D01*
X130812050Y-110837522D01*
X130728478Y-110753950D01*
X130630207Y-110688287D01*
X130521014Y-110643058D01*
X130405095Y-110620000D01*
X130286905Y-110620000D01*
X130170986Y-110643058D01*
X130061793Y-110688287D01*
X129963522Y-110753950D01*
X129879950Y-110837522D01*
X129814287Y-110935793D01*
X129769058Y-111044986D01*
X129746000Y-111160905D01*
X128799640Y-111160905D01*
X128762126Y-111095665D01*
X128566042Y-111003460D01*
X128355737Y-110951281D01*
X128139294Y-110941133D01*
X127925030Y-110973407D01*
X127721179Y-111046861D01*
X127629874Y-111095665D01*
X127541602Y-111249181D01*
X126971000Y-111249181D01*
X126971000Y-107190819D01*
X127541602Y-107190819D01*
X127629874Y-107344335D01*
X127825958Y-107436540D01*
X128036263Y-107488719D01*
X128252706Y-107498867D01*
X128466970Y-107466593D01*
X128670821Y-107393139D01*
X128762126Y-107344335D01*
X128850398Y-107190819D01*
X128820484Y-107160905D01*
X129746000Y-107160905D01*
X129746000Y-107279095D01*
X129769058Y-107395014D01*
X129814287Y-107504207D01*
X129879950Y-107602478D01*
X129963522Y-107686050D01*
X130061793Y-107751713D01*
X130170986Y-107796942D01*
X130286905Y-107820000D01*
X130405095Y-107820000D01*
X130521014Y-107796942D01*
X130630207Y-107751713D01*
X130728478Y-107686050D01*
X130812050Y-107602478D01*
X130877713Y-107504207D01*
X130922942Y-107395014D01*
X130946000Y-107279095D01*
X130946000Y-107160905D01*
X130922942Y-107044986D01*
X130877713Y-106935793D01*
X130812050Y-106837522D01*
X130728478Y-106753950D01*
X130630207Y-106688287D01*
X130521014Y-106643058D01*
X130405095Y-106620000D01*
X130286905Y-106620000D01*
X130170986Y-106643058D01*
X130061793Y-106688287D01*
X129963522Y-106753950D01*
X129879950Y-106837522D01*
X129814287Y-106935793D01*
X129769058Y-107044986D01*
X129746000Y-107160905D01*
X128820484Y-107160905D01*
X128196000Y-106536421D01*
X127541602Y-107190819D01*
X126971000Y-107190819D01*
X126971000Y-106451706D01*
X127092133Y-106451706D01*
X127124407Y-106665970D01*
X127197861Y-106869821D01*
X127246665Y-106961126D01*
X127400181Y-107049398D01*
X128054579Y-106395000D01*
X128337421Y-106395000D01*
X128991819Y-107049398D01*
X129145335Y-106961126D01*
X129237540Y-106765042D01*
X129289719Y-106554737D01*
X129299867Y-106338294D01*
X129267593Y-106124030D01*
X129194139Y-105920179D01*
X129145335Y-105828874D01*
X128991819Y-105740602D01*
X128337421Y-106395000D01*
X128054579Y-106395000D01*
X127400181Y-105740602D01*
X127246665Y-105828874D01*
X127154460Y-106024958D01*
X127102281Y-106235263D01*
X127092133Y-106451706D01*
X126971000Y-106451706D01*
X126971000Y-105599181D01*
X127541602Y-105599181D01*
X128196000Y-106253579D01*
X128850398Y-105599181D01*
X128762126Y-105445665D01*
X128566042Y-105353460D01*
X128355737Y-105301281D01*
X128139294Y-105291133D01*
X127925030Y-105323407D01*
X127721179Y-105396861D01*
X127629874Y-105445665D01*
X127541602Y-105599181D01*
X126971000Y-105599181D01*
X126971000Y-104452056D01*
X132015000Y-104452056D01*
X132015000Y-104589944D01*
X132041901Y-104725182D01*
X132094668Y-104852574D01*
X132171274Y-104967224D01*
X132268776Y-105064726D01*
X132383426Y-105141332D01*
X132510818Y-105194099D01*
X132646056Y-105221000D01*
X132783944Y-105221000D01*
X132919182Y-105194099D01*
X133046574Y-105141332D01*
X133161224Y-105064726D01*
X133258726Y-104967224D01*
X133335332Y-104852574D01*
X133388099Y-104725182D01*
X133415000Y-104589944D01*
X133415000Y-104452056D01*
X133388099Y-104316818D01*
X133335332Y-104189426D01*
X133258726Y-104074776D01*
X133227653Y-104043703D01*
X133497198Y-103774158D01*
X141146118Y-103774158D01*
X142831001Y-105459042D01*
X142831000Y-107900093D01*
X142809776Y-107914274D01*
X142712274Y-108011776D01*
X142635668Y-108126426D01*
X142582901Y-108253818D01*
X142556000Y-108389056D01*
X142556000Y-108526944D01*
X142582901Y-108662182D01*
X142635668Y-108789574D01*
X142712274Y-108904224D01*
X142809776Y-109001726D01*
X142924426Y-109078332D01*
X143051818Y-109131099D01*
X143187056Y-109158000D01*
X143324944Y-109158000D01*
X143460182Y-109131099D01*
X143587574Y-109078332D01*
X143702224Y-109001726D01*
X143799726Y-108904224D01*
X143876332Y-108789574D01*
X143929099Y-108662182D01*
X143956000Y-108526944D01*
X143956000Y-108389056D01*
X143929099Y-108253818D01*
X143876332Y-108126426D01*
X143799726Y-108011776D01*
X143702224Y-107914274D01*
X143681000Y-107900093D01*
X143681000Y-105303867D01*
X143683055Y-105283000D01*
X143681000Y-105262133D01*
X143681000Y-105262126D01*
X143674850Y-105199686D01*
X143674850Y-105199685D01*
X143650548Y-105119572D01*
X143633156Y-105087035D01*
X143611084Y-105045740D01*
X143557974Y-104981026D01*
X143541762Y-104967721D01*
X141637442Y-103063402D01*
X141624132Y-103047184D01*
X141559418Y-102994074D01*
X141485585Y-102954610D01*
X141405472Y-102930308D01*
X141343032Y-102924158D01*
X141343025Y-102924158D01*
X141322158Y-102922103D01*
X141301291Y-102924158D01*
X133342025Y-102924158D01*
X133321158Y-102922103D01*
X133300291Y-102924158D01*
X133300284Y-102924158D01*
X133237844Y-102930308D01*
X133157731Y-102954610D01*
X133083898Y-102994074D01*
X133019184Y-103047184D01*
X133005879Y-103063396D01*
X132429239Y-103640036D01*
X132413027Y-103653341D01*
X132399722Y-103669553D01*
X132399720Y-103669555D01*
X132359917Y-103718055D01*
X132320453Y-103791888D01*
X132296150Y-103872001D01*
X132287945Y-103955315D01*
X132288791Y-103963901D01*
X132268776Y-103977274D01*
X132171274Y-104074776D01*
X132094668Y-104189426D01*
X132041901Y-104316818D01*
X132015000Y-104452056D01*
X126971000Y-104452056D01*
X126971000Y-101032905D01*
X128598000Y-101032905D01*
X128598000Y-101151095D01*
X128621058Y-101267014D01*
X128666287Y-101376207D01*
X128731950Y-101474478D01*
X128815522Y-101558050D01*
X128913793Y-101623713D01*
X129022986Y-101668942D01*
X129138905Y-101692000D01*
X129257095Y-101692000D01*
X129373014Y-101668942D01*
X129482207Y-101623713D01*
X129580478Y-101558050D01*
X129664050Y-101474478D01*
X129729713Y-101376207D01*
X129774942Y-101267014D01*
X129798000Y-101151095D01*
X129798000Y-101032905D01*
X130298000Y-101032905D01*
X130298000Y-101151095D01*
X130321058Y-101267014D01*
X130366287Y-101376207D01*
X130431950Y-101474478D01*
X130515522Y-101558050D01*
X130613793Y-101623713D01*
X130722986Y-101668942D01*
X130838905Y-101692000D01*
X130957095Y-101692000D01*
X131073014Y-101668942D01*
X131182207Y-101623713D01*
X131280478Y-101558050D01*
X131351793Y-101486735D01*
X133470000Y-101486735D01*
X133470000Y-101713265D01*
X133514194Y-101935443D01*
X133600884Y-102144729D01*
X133726737Y-102333082D01*
X133886918Y-102493263D01*
X134075271Y-102619116D01*
X134284557Y-102705806D01*
X134506735Y-102750000D01*
X134733265Y-102750000D01*
X134955443Y-102705806D01*
X135164729Y-102619116D01*
X135353082Y-102493263D01*
X135513263Y-102333082D01*
X135639116Y-102144729D01*
X135725806Y-101935443D01*
X135770000Y-101713265D01*
X135770000Y-101486735D01*
X136010000Y-101486735D01*
X136010000Y-101713265D01*
X136054194Y-101935443D01*
X136140884Y-102144729D01*
X136266737Y-102333082D01*
X136426918Y-102493263D01*
X136615271Y-102619116D01*
X136824557Y-102705806D01*
X137046735Y-102750000D01*
X137273265Y-102750000D01*
X137495443Y-102705806D01*
X137704729Y-102619116D01*
X137893082Y-102493263D01*
X138053263Y-102333082D01*
X138179116Y-102144729D01*
X138265806Y-101935443D01*
X138310000Y-101713265D01*
X138310000Y-101486735D01*
X138550000Y-101486735D01*
X138550000Y-101713265D01*
X138594194Y-101935443D01*
X138680884Y-102144729D01*
X138806737Y-102333082D01*
X138966918Y-102493263D01*
X139155271Y-102619116D01*
X139364557Y-102705806D01*
X139586735Y-102750000D01*
X139813265Y-102750000D01*
X140035443Y-102705806D01*
X140244729Y-102619116D01*
X140433082Y-102493263D01*
X140593263Y-102333082D01*
X140719116Y-102144729D01*
X140805806Y-101935443D01*
X140850000Y-101713265D01*
X140850000Y-101486735D01*
X141090000Y-101486735D01*
X141090000Y-101713265D01*
X141134194Y-101935443D01*
X141220884Y-102144729D01*
X141346737Y-102333082D01*
X141506918Y-102493263D01*
X141695271Y-102619116D01*
X141904557Y-102705806D01*
X142126735Y-102750000D01*
X142155370Y-102750000D01*
X143754258Y-104348889D01*
X143774016Y-104372964D01*
X143790232Y-104386272D01*
X144014710Y-104610750D01*
X145078728Y-105674769D01*
X145092035Y-105690983D01*
X145156749Y-105744093D01*
X145230582Y-105783557D01*
X145233227Y-105784359D01*
X145249901Y-105868182D01*
X145290160Y-105965376D01*
X145241685Y-105970151D01*
X145161572Y-105994453D01*
X145150443Y-106000401D01*
X145041497Y-105955275D01*
X144906259Y-105928374D01*
X144768371Y-105928374D01*
X144633133Y-105955275D01*
X144505741Y-106008042D01*
X144391091Y-106084648D01*
X144293589Y-106182150D01*
X144216983Y-106296800D01*
X144164216Y-106424192D01*
X144137315Y-106559430D01*
X144137315Y-106697318D01*
X144164216Y-106832556D01*
X144216983Y-106959948D01*
X144293589Y-107074598D01*
X144391091Y-107172100D01*
X144505741Y-107248706D01*
X144633133Y-107301473D01*
X144768371Y-107328374D01*
X144906259Y-107328374D01*
X145041497Y-107301473D01*
X145168889Y-107248706D01*
X145283539Y-107172100D01*
X145381041Y-107074598D01*
X145457647Y-106959948D01*
X145510414Y-106832556D01*
X145514105Y-106814001D01*
X146250134Y-106814001D01*
X146271001Y-106816056D01*
X146291868Y-106814001D01*
X146291875Y-106814001D01*
X146354315Y-106807851D01*
X146434428Y-106783549D01*
X146508261Y-106744085D01*
X146572975Y-106690975D01*
X146586285Y-106674757D01*
X146933757Y-106327285D01*
X146949975Y-106313975D01*
X147003085Y-106249261D01*
X147042549Y-106175428D01*
X147066851Y-106095315D01*
X147073001Y-106032875D01*
X147075057Y-106012001D01*
X147073001Y-105991127D01*
X147073001Y-105336873D01*
X147075057Y-105315999D01*
X147066851Y-105232685D01*
X147042549Y-105152572D01*
X147036541Y-105141332D01*
X147003085Y-105078739D01*
X146949975Y-105014025D01*
X146933759Y-105000717D01*
X146586285Y-104653243D01*
X146572975Y-104637025D01*
X146508261Y-104583915D01*
X146434428Y-104544451D01*
X146354315Y-104520149D01*
X146291875Y-104513999D01*
X146291868Y-104513999D01*
X146271001Y-104511944D01*
X146250134Y-104513999D01*
X145756450Y-104513999D01*
X144847736Y-103605286D01*
X144841279Y-103597418D01*
X144841278Y-103597417D01*
X144827973Y-103581205D01*
X144811762Y-103567901D01*
X144355001Y-103111141D01*
X144355001Y-102668710D01*
X144444557Y-102705806D01*
X144666735Y-102750000D01*
X144893265Y-102750000D01*
X145115443Y-102705806D01*
X145324729Y-102619116D01*
X145513082Y-102493263D01*
X145673263Y-102333082D01*
X145799116Y-102144729D01*
X145885806Y-101935443D01*
X145930000Y-101713265D01*
X145930000Y-101486735D01*
X146170000Y-101486735D01*
X146170000Y-101713265D01*
X146214194Y-101935443D01*
X146300884Y-102144729D01*
X146426737Y-102333082D01*
X146586918Y-102493263D01*
X146775271Y-102619116D01*
X146984557Y-102705806D01*
X147206735Y-102750000D01*
X147433265Y-102750000D01*
X147655443Y-102705806D01*
X147864729Y-102619116D01*
X148053082Y-102493263D01*
X148213263Y-102333082D01*
X148339116Y-102144729D01*
X148425806Y-101935443D01*
X148470000Y-101713265D01*
X148470000Y-101486735D01*
X148425806Y-101264557D01*
X148339116Y-101055271D01*
X148213263Y-100866918D01*
X148053082Y-100706737D01*
X147864729Y-100580884D01*
X147655443Y-100494194D01*
X147433265Y-100450000D01*
X147206735Y-100450000D01*
X146984557Y-100494194D01*
X146775271Y-100580884D01*
X146586918Y-100706737D01*
X146426737Y-100866918D01*
X146300884Y-101055271D01*
X146214194Y-101264557D01*
X146170000Y-101486735D01*
X145930000Y-101486735D01*
X145885806Y-101264557D01*
X145799116Y-101055271D01*
X145673263Y-100866918D01*
X145513082Y-100706737D01*
X145324729Y-100580884D01*
X145115443Y-100494194D01*
X144893265Y-100450000D01*
X144666735Y-100450000D01*
X144444557Y-100494194D01*
X144235271Y-100580884D01*
X144046918Y-100706737D01*
X143886737Y-100866918D01*
X143760884Y-101055271D01*
X143674194Y-101264557D01*
X143630000Y-101486735D01*
X143630000Y-101713265D01*
X143674194Y-101935443D01*
X143723788Y-102055172D01*
X143644244Y-102134716D01*
X143628027Y-102148025D01*
X143574917Y-102212740D01*
X143535453Y-102286573D01*
X143511151Y-102366686D01*
X143505001Y-102429126D01*
X143505001Y-102429132D01*
X143502946Y-102449999D01*
X143505001Y-102470866D01*
X143505002Y-102897551D01*
X143036898Y-102429447D01*
X143133263Y-102333082D01*
X143259116Y-102144729D01*
X143345806Y-101935443D01*
X143390000Y-101713265D01*
X143390000Y-101486735D01*
X143345806Y-101264557D01*
X143259116Y-101055271D01*
X143133263Y-100866918D01*
X142973082Y-100706737D01*
X142784729Y-100580884D01*
X142575443Y-100494194D01*
X142353265Y-100450000D01*
X142126735Y-100450000D01*
X141904557Y-100494194D01*
X141695271Y-100580884D01*
X141506918Y-100706737D01*
X141346737Y-100866918D01*
X141220884Y-101055271D01*
X141134194Y-101264557D01*
X141090000Y-101486735D01*
X140850000Y-101486735D01*
X140805806Y-101264557D01*
X140719116Y-101055271D01*
X140593263Y-100866918D01*
X140433082Y-100706737D01*
X140244729Y-100580884D01*
X140035443Y-100494194D01*
X139813265Y-100450000D01*
X139586735Y-100450000D01*
X139364557Y-100494194D01*
X139155271Y-100580884D01*
X138966918Y-100706737D01*
X138806737Y-100866918D01*
X138680884Y-101055271D01*
X138594194Y-101264557D01*
X138550000Y-101486735D01*
X138310000Y-101486735D01*
X138265806Y-101264557D01*
X138179116Y-101055271D01*
X138053263Y-100866918D01*
X137893082Y-100706737D01*
X137704729Y-100580884D01*
X137495443Y-100494194D01*
X137273265Y-100450000D01*
X137046735Y-100450000D01*
X136824557Y-100494194D01*
X136615271Y-100580884D01*
X136426918Y-100706737D01*
X136266737Y-100866918D01*
X136140884Y-101055271D01*
X136054194Y-101264557D01*
X136010000Y-101486735D01*
X135770000Y-101486735D01*
X135725806Y-101264557D01*
X135639116Y-101055271D01*
X135513263Y-100866918D01*
X135353082Y-100706737D01*
X135164729Y-100580884D01*
X134955443Y-100494194D01*
X134733265Y-100450000D01*
X134506735Y-100450000D01*
X134284557Y-100494194D01*
X134075271Y-100580884D01*
X133886918Y-100706737D01*
X133726737Y-100866918D01*
X133600884Y-101055271D01*
X133514194Y-101264557D01*
X133470000Y-101486735D01*
X131351793Y-101486735D01*
X131364050Y-101474478D01*
X131429713Y-101376207D01*
X131474942Y-101267014D01*
X131498000Y-101151095D01*
X131498000Y-101032905D01*
X131474942Y-100916986D01*
X131429713Y-100807793D01*
X131364050Y-100709522D01*
X131280478Y-100625950D01*
X131182207Y-100560287D01*
X131073014Y-100515058D01*
X130957095Y-100492000D01*
X130838905Y-100492000D01*
X130722986Y-100515058D01*
X130613793Y-100560287D01*
X130515522Y-100625950D01*
X130431950Y-100709522D01*
X130366287Y-100807793D01*
X130321058Y-100916986D01*
X130298000Y-101032905D01*
X129798000Y-101032905D01*
X129774942Y-100916986D01*
X129729713Y-100807793D01*
X129664050Y-100709522D01*
X129580478Y-100625950D01*
X129482207Y-100560287D01*
X129373014Y-100515058D01*
X129257095Y-100492000D01*
X129138905Y-100492000D01*
X129022986Y-100515058D01*
X128913793Y-100560287D01*
X128815522Y-100625950D01*
X128731950Y-100709522D01*
X128666287Y-100807793D01*
X128621058Y-100916986D01*
X128598000Y-101032905D01*
X126971000Y-101032905D01*
X126971000Y-100428000D01*
X158652000Y-100428000D01*
X158652001Y-118012000D01*
M02*
