M48
; DRILL file {KiCad (5.1.5)-3} date 6/9/2020 9:02:56 PM
; FORMAT={-:-/ absolute / inch / decimal}
; #@! TF.CreationDate,2020-06-09T21:02:56-05:00
; #@! TF.GenerationSoftware,Kicad,Pcbnew,(5.1.5)-3
; #@! TF.FileFunction,Plated,1,2,PTH
FMAT,2
INCH
T1C0.0157
T2C0.0360
T3C0.0394
%
G90
G05
T1
X5.12Y-4.055
X5.12Y-4.545
X5.2Y-4.22
X5.225Y-4.115
X5.225Y-4.485
X5.37Y-4.115
X5.37Y-4.485
X5.465Y-4.16
X5.465Y-4.44
X5.4951Y-4.3503
X5.535Y-4.315
X5.545Y-4.19
X5.5652Y-4.4065
X5.6073Y-4.3409
X5.64Y-4.27
X5.6707Y-4.3207
X5.6798Y-4.3702
X5.7Y-4.26
X5.7023Y-4.198
X5.71Y-4.3187
X5.745Y-4.16
X5.745Y-4.44
X5.821Y-4.379
X5.83Y-4.115
X5.905Y-4.455
X6.025Y-4.26
T2
X5.0471Y-4.1888
X5.0471Y-4.4112
T3
X5.3Y-4.0
X5.4Y-4.0
X5.5Y-4.0
X5.6Y-4.0
X5.7Y-4.0
X5.8Y-4.0
X5.9Y-4.0
X6.0Y-4.0
X6.1Y-4.0
X6.2Y-4.0
X6.2Y-4.15
X6.2Y-4.25
X6.2Y-4.35
X6.2Y-4.45
X5.3Y-4.6
X5.4Y-4.6
X5.5Y-4.6
X5.6Y-4.6
X5.7Y-4.6
X5.8Y-4.6
X5.9Y-4.6
X6.0Y-4.6
X6.1Y-4.6
X6.2Y-4.6
T0
M30
