G04 #@! TF.GenerationSoftware,KiCad,Pcbnew,(5.1.5)-3*
G04 #@! TF.CreationDate,2020-06-09T21:02:58-05:00*
G04 #@! TF.ProjectId,pcb,7063622e-6b69-4636-9164-5f7063625858,rev?*
G04 #@! TF.SameCoordinates,Original*
G04 #@! TF.FileFunction,Legend,Bot*
G04 #@! TF.FilePolarity,Positive*
%FSLAX46Y46*%
G04 Gerber Fmt 4.6, Leading zero omitted, Abs format (unit mm)*
G04 Created by KiCad (PCBNEW (5.1.5)-3) date 2020-06-09 21:02:58*
%MOMM*%
%LPD*%
G04 APERTURE LIST*
%ADD10C,0.080000*%
%ADD11C,0.100000*%
%ADD12C,0.010000*%
G04 APERTURE END LIST*
D10*
X149491285Y-109593000D02*
X149519857Y-109564428D01*
X149577000Y-109478714D01*
X149605571Y-109421571D01*
X149634142Y-109335857D01*
X149662714Y-109193000D01*
X149662714Y-109078714D01*
X149634142Y-108935857D01*
X149605571Y-108850142D01*
X149577000Y-108793000D01*
X149519857Y-108707285D01*
X149491285Y-108678714D01*
X148948428Y-109364428D02*
X149291285Y-109364428D01*
X149119857Y-109364428D02*
X149119857Y-108764428D01*
X149177000Y-108850142D01*
X149234142Y-108907285D01*
X149291285Y-108935857D01*
X148262714Y-108735857D02*
X148777000Y-109507285D01*
X148091285Y-108821571D02*
X148062714Y-108793000D01*
X148005571Y-108764428D01*
X147862714Y-108764428D01*
X147805571Y-108793000D01*
X147777000Y-108821571D01*
X147748428Y-108878714D01*
X147748428Y-108935857D01*
X147777000Y-109021571D01*
X148119857Y-109364428D01*
X147748428Y-109364428D01*
X146834142Y-109050142D02*
X146748428Y-109078714D01*
X146719857Y-109107285D01*
X146691285Y-109164428D01*
X146691285Y-109250142D01*
X146719857Y-109307285D01*
X146748428Y-109335857D01*
X146805571Y-109364428D01*
X147034142Y-109364428D01*
X147034142Y-108764428D01*
X146834142Y-108764428D01*
X146777000Y-108793000D01*
X146748428Y-108821571D01*
X146719857Y-108878714D01*
X146719857Y-108935857D01*
X146748428Y-108993000D01*
X146777000Y-109021571D01*
X146834142Y-109050142D01*
X147034142Y-109050142D01*
X146348428Y-109364428D02*
X146405571Y-109335857D01*
X146434142Y-109278714D01*
X146434142Y-108764428D01*
X145862714Y-108964428D02*
X145862714Y-109364428D01*
X146119857Y-108964428D02*
X146119857Y-109278714D01*
X146091285Y-109335857D01*
X146034142Y-109364428D01*
X145948428Y-109364428D01*
X145891285Y-109335857D01*
X145862714Y-109307285D01*
X145348428Y-109335857D02*
X145405571Y-109364428D01*
X145519857Y-109364428D01*
X145577000Y-109335857D01*
X145605571Y-109278714D01*
X145605571Y-109050142D01*
X145577000Y-108993000D01*
X145519857Y-108964428D01*
X145405571Y-108964428D01*
X145348428Y-108993000D01*
X145319857Y-109050142D01*
X145319857Y-109107285D01*
X145605571Y-109164428D01*
X145062714Y-109135857D02*
X144605571Y-109135857D01*
X144319857Y-109364428D02*
X144319857Y-108764428D01*
X144091285Y-108764428D01*
X144034142Y-108793000D01*
X144005571Y-108821571D01*
X143977000Y-108878714D01*
X143977000Y-108964428D01*
X144005571Y-109021571D01*
X144034142Y-109050142D01*
X144091285Y-109078714D01*
X144319857Y-109078714D01*
X143719857Y-109364428D02*
X143719857Y-108964428D01*
X143719857Y-108764428D02*
X143748428Y-108793000D01*
X143719857Y-108821571D01*
X143691285Y-108793000D01*
X143719857Y-108764428D01*
X143719857Y-108821571D01*
X143348428Y-109364428D02*
X143405571Y-109335857D01*
X143434142Y-109278714D01*
X143434142Y-108764428D01*
X143034142Y-109364428D02*
X143091285Y-109335857D01*
X143119857Y-109278714D01*
X143119857Y-108764428D01*
X142862714Y-109593000D02*
X142834142Y-109564428D01*
X142777000Y-109478714D01*
X142748428Y-109421571D01*
X142719857Y-109335857D01*
X142691285Y-109193000D01*
X142691285Y-109078714D01*
X142719857Y-108935857D01*
X142748428Y-108850142D01*
X142777000Y-108793000D01*
X142834142Y-108707285D01*
X142862714Y-108678714D01*
X138525142Y-108964428D02*
X138382285Y-109364428D01*
X138239428Y-108964428D01*
X137696571Y-109364428D02*
X138039428Y-109364428D01*
X137868000Y-109364428D02*
X137868000Y-108764428D01*
X137925142Y-108850142D01*
X137982285Y-108907285D01*
X138039428Y-108935857D01*
X137439428Y-109307285D02*
X137410857Y-109335857D01*
X137439428Y-109364428D01*
X137468000Y-109335857D01*
X137439428Y-109307285D01*
X137439428Y-109364428D01*
X137039428Y-108764428D02*
X136982285Y-108764428D01*
X136925142Y-108793000D01*
X136896571Y-108821571D01*
X136868000Y-108878714D01*
X136839428Y-108993000D01*
X136839428Y-109135857D01*
X136868000Y-109250142D01*
X136896571Y-109307285D01*
X136925142Y-109335857D01*
X136982285Y-109364428D01*
X137039428Y-109364428D01*
X137096571Y-109335857D01*
X137125142Y-109307285D01*
X137153714Y-109250142D01*
X137182285Y-109135857D01*
X137182285Y-108993000D01*
X137153714Y-108878714D01*
X137125142Y-108821571D01*
X137096571Y-108793000D01*
X137039428Y-108764428D01*
X148861142Y-113894142D02*
X148775428Y-113922714D01*
X148746857Y-113951285D01*
X148718285Y-114008428D01*
X148718285Y-114094142D01*
X148746857Y-114151285D01*
X148775428Y-114179857D01*
X148832571Y-114208428D01*
X149061142Y-114208428D01*
X149061142Y-113608428D01*
X148861142Y-113608428D01*
X148804000Y-113637000D01*
X148775428Y-113665571D01*
X148746857Y-113722714D01*
X148746857Y-113779857D01*
X148775428Y-113837000D01*
X148804000Y-113865571D01*
X148861142Y-113894142D01*
X149061142Y-113894142D01*
X148375428Y-114208428D02*
X148432571Y-114179857D01*
X148461142Y-114151285D01*
X148489714Y-114094142D01*
X148489714Y-113922714D01*
X148461142Y-113865571D01*
X148432571Y-113837000D01*
X148375428Y-113808428D01*
X148289714Y-113808428D01*
X148232571Y-113837000D01*
X148204000Y-113865571D01*
X148175428Y-113922714D01*
X148175428Y-114094142D01*
X148204000Y-114151285D01*
X148232571Y-114179857D01*
X148289714Y-114208428D01*
X148375428Y-114208428D01*
X147661142Y-114208428D02*
X147661142Y-113894142D01*
X147689714Y-113837000D01*
X147746857Y-113808428D01*
X147861142Y-113808428D01*
X147918285Y-113837000D01*
X147661142Y-114179857D02*
X147718285Y-114208428D01*
X147861142Y-114208428D01*
X147918285Y-114179857D01*
X147946857Y-114122714D01*
X147946857Y-114065571D01*
X147918285Y-114008428D01*
X147861142Y-113979857D01*
X147718285Y-113979857D01*
X147661142Y-113951285D01*
X147375428Y-114208428D02*
X147375428Y-113808428D01*
X147375428Y-113922714D02*
X147346857Y-113865571D01*
X147318285Y-113837000D01*
X147261142Y-113808428D01*
X147204000Y-113808428D01*
X146746857Y-114208428D02*
X146746857Y-113608428D01*
X146746857Y-114179857D02*
X146804000Y-114208428D01*
X146918285Y-114208428D01*
X146975428Y-114179857D01*
X147004000Y-114151285D01*
X147032571Y-114094142D01*
X147032571Y-113922714D01*
X147004000Y-113865571D01*
X146975428Y-113837000D01*
X146918285Y-113808428D01*
X146804000Y-113808428D01*
X146746857Y-113837000D01*
X145918285Y-114208428D02*
X145975428Y-114179857D01*
X146004000Y-114122714D01*
X146004000Y-113608428D01*
X145432571Y-114208428D02*
X145432571Y-113894142D01*
X145461142Y-113837000D01*
X145518285Y-113808428D01*
X145632571Y-113808428D01*
X145689714Y-113837000D01*
X145432571Y-114179857D02*
X145489714Y-114208428D01*
X145632571Y-114208428D01*
X145689714Y-114179857D01*
X145718285Y-114122714D01*
X145718285Y-114065571D01*
X145689714Y-114008428D01*
X145632571Y-113979857D01*
X145489714Y-113979857D01*
X145432571Y-113951285D01*
X145204000Y-113808428D02*
X145061142Y-114208428D01*
X144918285Y-113808428D02*
X145061142Y-114208428D01*
X145118285Y-114351285D01*
X145146857Y-114379857D01*
X145204000Y-114408428D01*
X144604000Y-114208428D02*
X144661142Y-114179857D01*
X144689714Y-114151285D01*
X144718285Y-114094142D01*
X144718285Y-113922714D01*
X144689714Y-113865571D01*
X144661142Y-113837000D01*
X144604000Y-113808428D01*
X144518285Y-113808428D01*
X144461142Y-113837000D01*
X144432571Y-113865571D01*
X144404000Y-113922714D01*
X144404000Y-114094142D01*
X144432571Y-114151285D01*
X144461142Y-114179857D01*
X144518285Y-114208428D01*
X144604000Y-114208428D01*
X143889714Y-113808428D02*
X143889714Y-114208428D01*
X144146857Y-113808428D02*
X144146857Y-114122714D01*
X144118285Y-114179857D01*
X144061142Y-114208428D01*
X143975428Y-114208428D01*
X143918285Y-114179857D01*
X143889714Y-114151285D01*
X143689714Y-113808428D02*
X143461142Y-113808428D01*
X143604000Y-113608428D02*
X143604000Y-114122714D01*
X143575428Y-114179857D01*
X143518285Y-114208428D01*
X143461142Y-114208428D01*
X148904000Y-115188428D02*
X148904000Y-114588428D01*
X148904000Y-114817000D02*
X148846857Y-114788428D01*
X148732571Y-114788428D01*
X148675428Y-114817000D01*
X148646857Y-114845571D01*
X148618285Y-114902714D01*
X148618285Y-115074142D01*
X148646857Y-115131285D01*
X148675428Y-115159857D01*
X148732571Y-115188428D01*
X148846857Y-115188428D01*
X148904000Y-115159857D01*
X148418285Y-114788428D02*
X148275428Y-115188428D01*
X148132571Y-114788428D02*
X148275428Y-115188428D01*
X148332571Y-115331285D01*
X148361142Y-115359857D01*
X148418285Y-115388428D01*
X147475428Y-115159857D02*
X147418285Y-115188428D01*
X147304000Y-115188428D01*
X147246857Y-115159857D01*
X147218285Y-115102714D01*
X147218285Y-115074142D01*
X147246857Y-115017000D01*
X147304000Y-114988428D01*
X147389714Y-114988428D01*
X147446857Y-114959857D01*
X147475428Y-114902714D01*
X147475428Y-114874142D01*
X147446857Y-114817000D01*
X147389714Y-114788428D01*
X147304000Y-114788428D01*
X147246857Y-114817000D01*
X146732571Y-115159857D02*
X146789714Y-115188428D01*
X146904000Y-115188428D01*
X146961142Y-115159857D01*
X146989714Y-115102714D01*
X146989714Y-114874142D01*
X146961142Y-114817000D01*
X146904000Y-114788428D01*
X146789714Y-114788428D01*
X146732571Y-114817000D01*
X146704000Y-114874142D01*
X146704000Y-114931285D01*
X146989714Y-114988428D01*
X146446857Y-115188428D02*
X146446857Y-114788428D01*
X146446857Y-114902714D02*
X146418285Y-114845571D01*
X146389714Y-114817000D01*
X146332571Y-114788428D01*
X146275428Y-114788428D01*
X146075428Y-115188428D02*
X146075428Y-114788428D01*
X146075428Y-114588428D02*
X146104000Y-114617000D01*
X146075428Y-114645571D01*
X146046857Y-114617000D01*
X146075428Y-114588428D01*
X146075428Y-114645571D01*
X145818285Y-115159857D02*
X145761142Y-115188428D01*
X145646857Y-115188428D01*
X145589714Y-115159857D01*
X145561142Y-115102714D01*
X145561142Y-115074142D01*
X145589714Y-115017000D01*
X145646857Y-114988428D01*
X145732571Y-114988428D01*
X145789714Y-114959857D01*
X145818285Y-114902714D01*
X145818285Y-114874142D01*
X145789714Y-114817000D01*
X145732571Y-114788428D01*
X145646857Y-114788428D01*
X145589714Y-114817000D01*
X145304000Y-115188428D02*
X145304000Y-114788428D01*
X145304000Y-114845571D02*
X145275428Y-114817000D01*
X145218285Y-114788428D01*
X145132571Y-114788428D01*
X145075428Y-114817000D01*
X145046857Y-114874142D01*
X145046857Y-115188428D01*
X145046857Y-114874142D02*
X145018285Y-114817000D01*
X144961142Y-114788428D01*
X144875428Y-114788428D01*
X144818285Y-114817000D01*
X144789714Y-114874142D01*
X144789714Y-115188428D01*
X144246857Y-115188428D02*
X144246857Y-114874142D01*
X144275428Y-114817000D01*
X144332571Y-114788428D01*
X144446857Y-114788428D01*
X144504000Y-114817000D01*
X144246857Y-115159857D02*
X144304000Y-115188428D01*
X144446857Y-115188428D01*
X144504000Y-115159857D01*
X144532571Y-115102714D01*
X144532571Y-115045571D01*
X144504000Y-114988428D01*
X144446857Y-114959857D01*
X144304000Y-114959857D01*
X144246857Y-114931285D01*
X143961142Y-114788428D02*
X143961142Y-115188428D01*
X143961142Y-114845571D02*
X143932571Y-114817000D01*
X143875428Y-114788428D01*
X143789714Y-114788428D01*
X143732571Y-114817000D01*
X143704000Y-114874142D01*
X143704000Y-115188428D01*
D11*
X149589285Y-107973761D02*
X149446428Y-108021380D01*
X149208333Y-108021380D01*
X149113095Y-107973761D01*
X149065476Y-107926142D01*
X149017857Y-107830904D01*
X149017857Y-107735666D01*
X149065476Y-107640428D01*
X149113095Y-107592809D01*
X149208333Y-107545190D01*
X149398809Y-107497571D01*
X149494047Y-107449952D01*
X149541666Y-107402333D01*
X149589285Y-107307095D01*
X149589285Y-107211857D01*
X149541666Y-107116619D01*
X149494047Y-107069000D01*
X149398809Y-107021380D01*
X149160714Y-107021380D01*
X149017857Y-107069000D01*
X148732142Y-107021380D02*
X148160714Y-107021380D01*
X148446428Y-108021380D02*
X148446428Y-107021380D01*
X147827380Y-108021380D02*
X147827380Y-107021380D01*
X147494047Y-107735666D01*
X147160714Y-107021380D01*
X147160714Y-108021380D01*
X146779761Y-107021380D02*
X146160714Y-107021380D01*
X146494047Y-107402333D01*
X146351190Y-107402333D01*
X146255952Y-107449952D01*
X146208333Y-107497571D01*
X146160714Y-107592809D01*
X146160714Y-107830904D01*
X146208333Y-107926142D01*
X146255952Y-107973761D01*
X146351190Y-108021380D01*
X146636904Y-108021380D01*
X146732142Y-107973761D01*
X146779761Y-107926142D01*
X145779761Y-107116619D02*
X145732142Y-107069000D01*
X145636904Y-107021380D01*
X145398809Y-107021380D01*
X145303571Y-107069000D01*
X145255952Y-107116619D01*
X145208333Y-107211857D01*
X145208333Y-107307095D01*
X145255952Y-107449952D01*
X145827380Y-108021380D01*
X145208333Y-108021380D01*
X144065476Y-107021380D02*
X144065476Y-107211857D01*
X143684523Y-107021380D02*
X143684523Y-107211857D01*
X143255952Y-108021380D02*
X143255952Y-107021380D01*
X142922619Y-107735666D01*
X142589285Y-107021380D01*
X142589285Y-108021380D01*
X142113095Y-108021380D02*
X142113095Y-107354714D01*
X142113095Y-107021380D02*
X142160714Y-107069000D01*
X142113095Y-107116619D01*
X142065476Y-107069000D01*
X142113095Y-107021380D01*
X142113095Y-107116619D01*
X141636904Y-107354714D02*
X141636904Y-108021380D01*
X141636904Y-107449952D02*
X141589285Y-107402333D01*
X141494047Y-107354714D01*
X141351190Y-107354714D01*
X141255952Y-107402333D01*
X141208333Y-107497571D01*
X141208333Y-108021380D01*
X140732142Y-108021380D02*
X140732142Y-107354714D01*
X140732142Y-107021380D02*
X140779761Y-107069000D01*
X140732142Y-107116619D01*
X140684523Y-107069000D01*
X140732142Y-107021380D01*
X140732142Y-107116619D01*
X140255952Y-107640428D02*
X139494047Y-107640428D01*
X139017857Y-108021380D02*
X139017857Y-107021380D01*
X138636904Y-107021380D01*
X138541666Y-107069000D01*
X138494047Y-107116619D01*
X138446428Y-107211857D01*
X138446428Y-107354714D01*
X138494047Y-107449952D01*
X138541666Y-107497571D01*
X138636904Y-107545190D01*
X139017857Y-107545190D01*
X138017857Y-108021380D02*
X138017857Y-107354714D01*
X138017857Y-107021380D02*
X138065476Y-107069000D01*
X138017857Y-107116619D01*
X137970238Y-107069000D01*
X138017857Y-107021380D01*
X138017857Y-107116619D01*
X137398809Y-108021380D02*
X137494047Y-107973761D01*
X137541666Y-107878523D01*
X137541666Y-107021380D01*
X136875000Y-108021380D02*
X136970238Y-107973761D01*
X137017857Y-107878523D01*
X137017857Y-107021380D01*
X136541666Y-107021380D02*
X136541666Y-107211857D01*
X136160714Y-107021380D02*
X136160714Y-107211857D01*
D12*
G36*
X152190853Y-113083589D02*
G01*
X152214904Y-113174760D01*
X152079452Y-113291270D01*
X152010210Y-113325994D01*
X151762559Y-113408092D01*
X151642836Y-113374778D01*
X151662082Y-113264669D01*
X151782205Y-113139296D01*
X151941365Y-113054625D01*
X152007555Y-113044682D01*
X152190853Y-113083589D01*
G37*
X152190853Y-113083589D02*
X152214904Y-113174760D01*
X152079452Y-113291270D01*
X152010210Y-113325994D01*
X151762559Y-113408092D01*
X151642836Y-113374778D01*
X151662082Y-113264669D01*
X151782205Y-113139296D01*
X151941365Y-113054625D01*
X152007555Y-113044682D01*
X152190853Y-113083589D01*
G36*
X152666137Y-111706950D02*
G01*
X152870592Y-111946359D01*
X153024119Y-112240477D01*
X153145403Y-112487594D01*
X153253905Y-112650155D01*
X153306170Y-112688077D01*
X153389678Y-112762735D01*
X153503691Y-112953240D01*
X153570135Y-113095090D01*
X153698099Y-113557575D01*
X153741085Y-114104043D01*
X153697160Y-114661466D01*
X153620452Y-114997168D01*
X153499000Y-115396818D01*
X153270158Y-114904238D01*
X153041121Y-115118187D01*
X152789895Y-115315549D01*
X152527858Y-115475491D01*
X152205091Y-115574382D01*
X151805088Y-115610562D01*
X151406114Y-115583767D01*
X151086434Y-115493733D01*
X151060361Y-115480441D01*
X150818428Y-115349148D01*
X150993420Y-115062144D01*
X151140859Y-114752493D01*
X151143682Y-114541148D01*
X151001895Y-114423293D01*
X150994218Y-114420772D01*
X150843946Y-114292283D01*
X150730030Y-114043563D01*
X150728280Y-114037340D01*
X150711440Y-113968848D01*
X151025026Y-113968848D01*
X151038787Y-114037012D01*
X151116708Y-114073884D01*
X151292531Y-114099063D01*
X151560208Y-114095234D01*
X151679034Y-114084687D01*
X151913159Y-114064257D01*
X151991033Y-114077430D01*
X151931541Y-114128183D01*
X151919139Y-114135267D01*
X151712176Y-114221743D01*
X151448064Y-114297926D01*
X151435510Y-114300733D01*
X151281489Y-114338045D01*
X151279781Y-114352023D01*
X151440398Y-114345361D01*
X151567951Y-114336373D01*
X151824433Y-114319687D01*
X151923597Y-114326685D01*
X151885215Y-114367312D01*
X151762281Y-114434105D01*
X151599368Y-114540705D01*
X151542599Y-114621992D01*
X151543878Y-114625436D01*
X151602480Y-114742154D01*
X151694266Y-114924896D01*
X151764153Y-115158713D01*
X151740925Y-115348426D01*
X151633418Y-115439455D01*
X151610679Y-115441224D01*
X151552433Y-115388828D01*
X151563774Y-115360427D01*
X151579302Y-115216879D01*
X151518402Y-115063942D01*
X151423221Y-114997168D01*
X151316949Y-115067591D01*
X151284371Y-115225125D01*
X151340688Y-115389163D01*
X151347638Y-115397949D01*
X151553996Y-115528930D01*
X151814907Y-115491826D01*
X152128866Y-115287096D01*
X152328909Y-115097727D01*
X152633808Y-114720443D01*
X152855803Y-114322716D01*
X152979212Y-113944007D01*
X152988351Y-113623776D01*
X152956018Y-113519840D01*
X152803041Y-113341654D01*
X152533680Y-113168711D01*
X152436997Y-113123628D01*
X152183932Y-113001743D01*
X152003061Y-112889990D01*
X151954725Y-112843610D01*
X151854167Y-112800150D01*
X151727461Y-112885894D01*
X151614699Y-113065239D01*
X151575748Y-113180181D01*
X151505178Y-113344775D01*
X151436016Y-113398566D01*
X151396667Y-113327854D01*
X151437708Y-113170757D01*
X151516172Y-112917628D01*
X151503509Y-112812725D01*
X151400021Y-112858322D01*
X151396384Y-112861318D01*
X151310099Y-113007226D01*
X151315004Y-113088827D01*
X151285544Y-113223390D01*
X151183111Y-113321601D01*
X151062040Y-113415063D01*
X151089179Y-113491298D01*
X151152297Y-113541002D01*
X151246844Y-113631909D01*
X151221684Y-113728060D01*
X151133606Y-113832749D01*
X151025026Y-113968848D01*
X150711440Y-113968848D01*
X150657622Y-113749971D01*
X150655484Y-113580946D01*
X150733971Y-113480187D01*
X150880440Y-113407763D01*
X151084035Y-113255609D01*
X151139178Y-113108352D01*
X151184121Y-112776417D01*
X151245412Y-112507283D01*
X151352941Y-112507283D01*
X151366462Y-112588641D01*
X151446551Y-112536646D01*
X151483179Y-112500848D01*
X151573604Y-112306694D01*
X151556460Y-112199674D01*
X151501760Y-112084984D01*
X151455619Y-112133832D01*
X151426222Y-112206109D01*
X151366427Y-112412571D01*
X151352941Y-112507283D01*
X151245412Y-112507283D01*
X151263318Y-112428658D01*
X151360135Y-112124171D01*
X151457938Y-111922053D01*
X151480989Y-111894046D01*
X151583135Y-111808500D01*
X151612210Y-111859360D01*
X151613133Y-111900386D01*
X151680759Y-112069227D01*
X151835729Y-112236853D01*
X152006176Y-112329707D01*
X152035635Y-112332832D01*
X152099607Y-112304173D01*
X152453613Y-112304173D01*
X152503707Y-112444348D01*
X152565347Y-112511471D01*
X152730249Y-112620341D01*
X152833142Y-112586452D01*
X152852483Y-112483010D01*
X152815723Y-112332559D01*
X152732585Y-112116288D01*
X152730158Y-112110804D01*
X152611839Y-111844371D01*
X152509630Y-112100975D01*
X152453613Y-112304173D01*
X152099607Y-112304173D01*
X152206814Y-112256146D01*
X152349656Y-112071465D01*
X152412327Y-111846856D01*
X152412433Y-111838027D01*
X152430138Y-111674014D01*
X152462677Y-111622343D01*
X152666137Y-111706950D01*
G37*
X152666137Y-111706950D02*
X152870592Y-111946359D01*
X153024119Y-112240477D01*
X153145403Y-112487594D01*
X153253905Y-112650155D01*
X153306170Y-112688077D01*
X153389678Y-112762735D01*
X153503691Y-112953240D01*
X153570135Y-113095090D01*
X153698099Y-113557575D01*
X153741085Y-114104043D01*
X153697160Y-114661466D01*
X153620452Y-114997168D01*
X153499000Y-115396818D01*
X153270158Y-114904238D01*
X153041121Y-115118187D01*
X152789895Y-115315549D01*
X152527858Y-115475491D01*
X152205091Y-115574382D01*
X151805088Y-115610562D01*
X151406114Y-115583767D01*
X151086434Y-115493733D01*
X151060361Y-115480441D01*
X150818428Y-115349148D01*
X150993420Y-115062144D01*
X151140859Y-114752493D01*
X151143682Y-114541148D01*
X151001895Y-114423293D01*
X150994218Y-114420772D01*
X150843946Y-114292283D01*
X150730030Y-114043563D01*
X150728280Y-114037340D01*
X150711440Y-113968848D01*
X151025026Y-113968848D01*
X151038787Y-114037012D01*
X151116708Y-114073884D01*
X151292531Y-114099063D01*
X151560208Y-114095234D01*
X151679034Y-114084687D01*
X151913159Y-114064257D01*
X151991033Y-114077430D01*
X151931541Y-114128183D01*
X151919139Y-114135267D01*
X151712176Y-114221743D01*
X151448064Y-114297926D01*
X151435510Y-114300733D01*
X151281489Y-114338045D01*
X151279781Y-114352023D01*
X151440398Y-114345361D01*
X151567951Y-114336373D01*
X151824433Y-114319687D01*
X151923597Y-114326685D01*
X151885215Y-114367312D01*
X151762281Y-114434105D01*
X151599368Y-114540705D01*
X151542599Y-114621992D01*
X151543878Y-114625436D01*
X151602480Y-114742154D01*
X151694266Y-114924896D01*
X151764153Y-115158713D01*
X151740925Y-115348426D01*
X151633418Y-115439455D01*
X151610679Y-115441224D01*
X151552433Y-115388828D01*
X151563774Y-115360427D01*
X151579302Y-115216879D01*
X151518402Y-115063942D01*
X151423221Y-114997168D01*
X151316949Y-115067591D01*
X151284371Y-115225125D01*
X151340688Y-115389163D01*
X151347638Y-115397949D01*
X151553996Y-115528930D01*
X151814907Y-115491826D01*
X152128866Y-115287096D01*
X152328909Y-115097727D01*
X152633808Y-114720443D01*
X152855803Y-114322716D01*
X152979212Y-113944007D01*
X152988351Y-113623776D01*
X152956018Y-113519840D01*
X152803041Y-113341654D01*
X152533680Y-113168711D01*
X152436997Y-113123628D01*
X152183932Y-113001743D01*
X152003061Y-112889990D01*
X151954725Y-112843610D01*
X151854167Y-112800150D01*
X151727461Y-112885894D01*
X151614699Y-113065239D01*
X151575748Y-113180181D01*
X151505178Y-113344775D01*
X151436016Y-113398566D01*
X151396667Y-113327854D01*
X151437708Y-113170757D01*
X151516172Y-112917628D01*
X151503509Y-112812725D01*
X151400021Y-112858322D01*
X151396384Y-112861318D01*
X151310099Y-113007226D01*
X151315004Y-113088827D01*
X151285544Y-113223390D01*
X151183111Y-113321601D01*
X151062040Y-113415063D01*
X151089179Y-113491298D01*
X151152297Y-113541002D01*
X151246844Y-113631909D01*
X151221684Y-113728060D01*
X151133606Y-113832749D01*
X151025026Y-113968848D01*
X150711440Y-113968848D01*
X150657622Y-113749971D01*
X150655484Y-113580946D01*
X150733971Y-113480187D01*
X150880440Y-113407763D01*
X151084035Y-113255609D01*
X151139178Y-113108352D01*
X151184121Y-112776417D01*
X151245412Y-112507283D01*
X151352941Y-112507283D01*
X151366462Y-112588641D01*
X151446551Y-112536646D01*
X151483179Y-112500848D01*
X151573604Y-112306694D01*
X151556460Y-112199674D01*
X151501760Y-112084984D01*
X151455619Y-112133832D01*
X151426222Y-112206109D01*
X151366427Y-112412571D01*
X151352941Y-112507283D01*
X151245412Y-112507283D01*
X151263318Y-112428658D01*
X151360135Y-112124171D01*
X151457938Y-111922053D01*
X151480989Y-111894046D01*
X151583135Y-111808500D01*
X151612210Y-111859360D01*
X151613133Y-111900386D01*
X151680759Y-112069227D01*
X151835729Y-112236853D01*
X152006176Y-112329707D01*
X152035635Y-112332832D01*
X152099607Y-112304173D01*
X152453613Y-112304173D01*
X152503707Y-112444348D01*
X152565347Y-112511471D01*
X152730249Y-112620341D01*
X152833142Y-112586452D01*
X152852483Y-112483010D01*
X152815723Y-112332559D01*
X152732585Y-112116288D01*
X152730158Y-112110804D01*
X152611839Y-111844371D01*
X152509630Y-112100975D01*
X152453613Y-112304173D01*
X152099607Y-112304173D01*
X152206814Y-112256146D01*
X152349656Y-112071465D01*
X152412327Y-111846856D01*
X152412433Y-111838027D01*
X152430138Y-111674014D01*
X152462677Y-111622343D01*
X152666137Y-111706950D01*
M02*
